<?xml version="1.0" standalone="no"?>
<!DOCTYPE svg PUBLIC "-//W3C//DTD SVG 1.1//EN" "http://www.w3.org/Graphics/SVG/1.1/DTD/svg11.dtd" >
<svg>
<metadata>
Created by FontForge 20090914 at Sun May  1 22:35:40 2016
 By www-data
Copyright ivancr72 2013
</metadata>
<defs>
<font id="Pixel-UniCode" horiz-adv-x="384" >
  <font-face 
    font-family="Pixel UniCode"
    font-weight="400"
    font-stretch="normal"
    units-per-em="1024"
    panose-1="0 0 4 0 0 0 0 0 0 0"
    ascent="819"
    descent="-205"
    x-height="384"
    cap-height="512"
    bbox="-384 -320 1472 832"
    underline-thickness="51"
    underline-position="126"
    unicode-range="U+0020-U+FB06"
  />
<missing-glyph horiz-adv-x="1344" 
d="M256 72v82h-82v-82h82zM337 167v82h-163v-82h163zM256 262v82h-82v-82h82zM337 357v81h-81c-22.667 0 -42 -7.66699 -58 -23c-16 -16 -24 -35.333 -24 -58h163zM0 0v512h512v-512h-512z" />
    <glyph glyph-name=".notdef" horiz-adv-x="1344" 
d="M256 72v82h-82v-82h82zM337 167v82h-163v-82h163zM256 262v82h-82v-82h82zM337 357v81h-81c-22.667 0 -42 -7.66699 -58 -23c-16 -16 -24 -35.333 -24 -58h163zM0 0v512h512v-512h-512z" />
    <glyph glyph-name="space" unicode=" " horiz-adv-x="128" 
 />
    <glyph glyph-name="exclam" unicode="!" horiz-adv-x="128" 
d="M0 0v64h64v-64h-64zM0 128v384h64v-384h-64z" />
    <glyph glyph-name="quotedbl" unicode="&#x22;" horiz-adv-x="256" 
d="M0 384v128h64v-128h-64zM128 384v128h64v-128h-64z" />
    <glyph glyph-name="numbersign" unicode="#" horiz-adv-x="448" 
d="M256 192v128h-128v-128h128zM64 0v128h-64v64h64v128h-64v64h64v128h64v-128h128v128h64v-128h64v-64h-64v-128h64v-64h-64v-128h-64v128h-128v-128h-64z" />
    <glyph glyph-name="dollar" unicode="$" 
d="M0 64v64h64v-64h-64zM256 64v128h64v-128h-64zM0 256v192h64v-192h-64zM256 384v64h64v-64h-64zM128 -64v64h-64v64h64v128h-64v64h64v192h-64v64h64v64h64v-64h64v-64h-64v-192h64v-64h-64v-128h64v-64h-64v-64h-64z" />
    <glyph glyph-name="percent" unicode="%" horiz-adv-x="576" 
d="M0 0v64h64v-64h-64zM320 0v64h128v-64h-128zM64 64v64h64v-64h-64zM128 128v64h64v-64h-64zM256 64v128h64v-128h-64zM448 64v128h64v-128h-64zM192 192v64h64v-64h-64zM320 192v64h128v-64h-128zM64 256v64h128v-64h-128zM256 256v64h64v-64h-64zM320 320v64h64v-64h-64
zM0 320v128h64v-128h-64zM192 320v128h64v-128h-64zM384 384v64h64v-64h-64zM64 448v64h128v-64h-128zM448 448v64h64v-64h-64z" />
    <glyph glyph-name="ampersand" unicode="&#x26;" horiz-adv-x="448" 
d="M64 0v64h192v-64h-192zM320 0v64h64v-64h-64zM256 64v64h64v-64h-64zM0 64v128h64v-128h-64zM192 128v64h64v-64h-64zM320 128v128h64v-128h-64zM64 192v128h128v-128h-128zM0 320v128h64v-128h-64zM192 320v128h64v-128h-64zM64 448v64h128v-64h-128z" />
    <glyph glyph-name="quotesingle" unicode="'" horiz-adv-x="128" 
d="M0 384v128h64v-128h-64z" />
    <glyph glyph-name="parenleft" unicode="(" horiz-adv-x="192" 
d="M64 -64v64h64v-64h-64zM0 0v448h64v-448h-64zM64 448v64h64v-64h-64z" />
    <glyph glyph-name="parenright" unicode=")" horiz-adv-x="192" 
d="M0 -64v64h64v-64h-64zM64 0v448h64v-448h-64zM0 448v64h64v-64h-64z" />
    <glyph glyph-name="asterisk" unicode="*" horiz-adv-x="256" 
d="M0 320v64h64v-64h-64zM128 320v64h64v-64h-64zM64 384v64h64v-64h-64zM0 448v64h64v-64h-64zM128 448v64h64v-64h-64z" />
    <glyph glyph-name="plus" unicode="+" 
d="M128 128v128h-128v64h128v128h64v-128h128v-64h-128v-128h-64z" />
    <glyph glyph-name="comma" unicode="," horiz-adv-x="192" 
d="M0 -64v64h64v-64h-64zM64 0v128h64v-128h-64z" />
    <glyph glyph-name="hyphen" unicode="-" horiz-adv-x="320" 
d="M0 256v64h256v-64h-256z" />
    <glyph glyph-name="period" unicode="." horiz-adv-x="128" 
d="M0 0v64h64v-64h-64z" />
    <glyph glyph-name="slash" unicode="/" horiz-adv-x="448" 
d="M0 0v64h64v-64h-64zM64 64v128h64v-128h-64zM128 192v64h64v-64h-64zM192 256v128h64v-128h-64zM256 384v64h64v-64h-64zM320 448v64h64v-64h-64z" />
    <glyph glyph-name="zero" unicode="0" 
d="M64 0v64h192v-64h-192zM128 192v64h64v-64h-64zM0 64v384h64v-256h64v-64h-64v-64h-64zM256 64v192h-64v64h64v128h64v-384h-64zM64 448v64h192v-64h-192z" />
    <glyph glyph-name="one" unicode="1" horiz-adv-x="192" 
d="M64 0v448h-64v64h128v-512h-64z" />
    <glyph glyph-name="two" unicode="2" 
d="M0 0v128h64v-64h256v-64h-320zM64 128v64h64v-64h-64zM128 192v64h64v-64h-64zM192 256v64h64v-64h-64zM0 384v64h64v-64h-64zM256 320v128h64v-128h-64zM64 448v64h192v-64h-192z" />
    <glyph glyph-name="three" unicode="3" 
d="M64 0v64h192v-64h-192zM0 64v64h64v-64h-64zM256 64v192h64v-192h-64zM128 256v64h128v-64h-128zM0 384v64h64v-64h-64zM256 320v128h64v-128h-64zM64 448v64h192v-64h-192z" />
    <glyph glyph-name="four" unicode="4" 
d="M64 384v64h64v-64h-64zM192 0v192h-192v192h64v-128h128v192h-64v64h128v-256h64v-64h-64v-192h-64z" />
    <glyph glyph-name="five" unicode="5" 
d="M64 0v64h192v-64h-192zM0 64v64h64v-64h-64zM256 64v192h64v-192h-64zM128 256v64h128v-64h-128zM0 192v320h320v-64h-256v-192h64v-64h-128z" />
    <glyph glyph-name="six" unicode="6" 
d="M64 0v64h192v-64h-192zM256 64v128h64v-128h-64zM0 64v384h64v-192h192v-64h-192v-128h-64zM256 384v64h64v-64h-64zM64 448v64h192v-64h-192z" />
    <glyph glyph-name="seven" unicode="7" 
d="M0 0v64h64v-64h-64zM64 64v128h64v-128h-64zM128 192v128h64v-128h-64zM192 320v64h64v-64h-64zM256 384v64h-256v64h320v-128h-64z" />
    <glyph glyph-name="eight" unicode="8" 
d="M64 0v64h192v-64h-192zM0 64v192h64v-192h-64zM256 64v192h64v-192h-64zM64 256v64h192v-64h-192zM0 320v128h64v-128h-64zM256 320v128h64v-128h-64zM64 448v64h192v-64h-192z" />
    <glyph glyph-name="nine" unicode="9" 
d="M64 0v64h192v-64h-192zM0 64v64h64v-64h-64zM0 320v128h64v-128h-64zM256 64v192h-192v64h192v128h64v-384h-64zM64 448v64h192v-64h-192z" />
    <glyph glyph-name="colon" unicode=":" horiz-adv-x="128" 
d="M0 0v64h64v-64h-64zM0 256v64h64v-64h-64z" />
    <glyph glyph-name="semicolon" unicode=";" horiz-adv-x="192" 
d="M0 -64v64h64v-64h-64zM64 0v64h64v-64h-64zM64 256v64h64v-64h-64z" />
    <glyph glyph-name="less" unicode="&#x3c;" horiz-adv-x="320" 
d="M192 0v64h64v-64h-64zM128 64v64h64v-64h-64zM64 128v64h64v-64h-64zM0 192v64h64v-64h-64zM64 256v64h64v-64h-64zM128 320v64h64v-64h-64zM192 384v64h64v-64h-64z" />
    <glyph glyph-name="equal" unicode="=" 
d="M0 128v64h320v-64h-320zM0 320v64h320v-64h-320z" />
    <glyph glyph-name="greater" unicode="&#x3e;" horiz-adv-x="320" 
d="M0 0v64h64v-64h-64zM64 64v64h64v-64h-64zM128 128v64h64v-64h-64zM192 192v64h64v-64h-64zM128 256v64h64v-64h-64zM64 320v64h64v-64h-64zM0 384v64h64v-64h-64z" />
    <glyph glyph-name="question" unicode="?" horiz-adv-x="448" 
d="M128 0v64h64v-64h-64zM128 128v64h64v-64h-64zM192 192v64h128v-64h-128zM0 320v128h64v-128h-64zM320 256v192h64v-192h-64zM64 448v64h256v-64h-256z" />
    <glyph glyph-name="at" unicode="@" horiz-adv-x="512" 
d="M64 64v64h384v-64h-384zM128 256v64h64v-64h-64zM192 192v64h64v64h-64v64h128v-128h64v-64h-192zM0 128v320h64v-320h-64zM384 256v192h64v-192h-64zM64 448v64h320v-64h-320z" />
    <glyph glyph-name="A" unicode="A" 
d="M0 0v384h64v-128h192v128h64v-384h-64v192h-192v-192h-64zM64 384v64h64v-64h-64zM192 384v64h64v-64h-64zM128 448v64h64v-64h-64z" />
    <glyph glyph-name="B" unicode="B" 
d="M256 64v192h64v-192h-64zM256 320v128h64v-128h-64zM0 0v512h256v-64h-192v-128h192v-64h-192v-192h192v-64h-256z" />
    <glyph glyph-name="C" unicode="C" 
d="M64 0v64h192v-64h-192zM256 64v64h64v-64h-64zM0 64v384h64v-384h-64zM256 384v64h64v-64h-64zM64 448v64h192v-64h-192z" />
    <glyph glyph-name="D" unicode="D" 
d="M256 64v384h64v-384h-64zM0 0v512h256v-64h-192v-384h192v-64h-256z" />
    <glyph glyph-name="E" unicode="E" 
d="M0 0v512h320v-64h-256v-128h128v-64h-128v-192h256v-64h-320z" />
    <glyph glyph-name="F" unicode="F" 
d="M0 0v512h320v-64h-256v-128h128v-64h-128v-256h-64z" />
    <glyph glyph-name="G" unicode="G" 
d="M64 0v64h192v-64h-192zM256 64v128h-128v64h192v-192h-64zM0 64v384h64v-384h-64zM256 384v64h64v-64h-64zM64 448v64h192v-64h-192z" />
    <glyph glyph-name="H" unicode="H" 
d="M0 0v512h64v-192h192v192h64v-512h-64v256h-192v-256h-64z" />
    <glyph glyph-name="I" unicode="I" horiz-adv-x="256" 
d="M0 0v64h64v384h-64v64h192v-64h-64v-384h64v-64h-192z" />
    <glyph glyph-name="J" unicode="J" 
d="M64 0v64h128v-64h-128zM0 64v64h64v-64h-64zM192 64v384h-64v64h192v-64h-64v-384h-64z" />
    <glyph glyph-name="K" unicode="K" 
d="M256 0v64h64v-64h-64zM192 64v128h64v-128h-64zM128 192v64h64v-64h-64zM128 320v64h64v-64h-64zM192 384v64h64v-64h-64zM0 0v512h64v-192h64v-64h-64v-256h-64zM256 448v64h64v-64h-64z" />
    <glyph glyph-name="L" unicode="L" horiz-adv-x="320" 
d="M0 0v512h64v-448h192v-64h-256z" />
    <glyph glyph-name="M" unicode="M" horiz-adv-x="512" 
d="M192 192v192h64v-192h-64zM128 384v64h64v-64h-64zM256 384v64h64v-64h-64zM0 0v512h128v-64h-64v-448h-64zM384 0v448h-64v64h128v-512h-64z" />
    <glyph glyph-name="N" unicode="N" horiz-adv-x="512" 
d="M256 128v128h64v-128h-64zM192 256v64h64v-64h-64zM128 320v128h64v-128h-64zM0 0v512h128v-64h-64v-448h-64zM384 0v64h-64v64h64v384h64v-512h-64z" />
    <glyph glyph-name="O" unicode="O" 
d="M64 0v64h192v-64h-192zM0 64v384h64v-384h-64zM256 64v384h64v-384h-64zM64 448v64h192v-64h-192z" />
    <glyph glyph-name="P" unicode="P" 
d="M256 256v192h64v-192h-64zM0 0v512h256v-64h-192v-192h192v-64h-192v-192h-64z" />
    <glyph glyph-name="Q" unicode="Q" horiz-adv-x="448" 
d="M64 0v64h192v-64h-192zM320 0v64h64v-64h-64zM256 64v64h64v-64h-64zM192 128v64h64v-64h-64zM0 64v384h64v-384h-64zM320 128v320h64v-320h-64zM64 448v64h256v-64h-256z" />
    <glyph glyph-name="R" unicode="R" 
d="M256 0v64h64v-64h-64zM192 64v64h64v-64h-64zM256 256v192h64v-192h-64zM0 0v512h256v-64h-192v-192h192v-64h-64v-64h-64v64h-64v-192h-64z" />
    <glyph glyph-name="S" unicode="S" 
d="M64 0v64h192v-64h-192zM0 64v64h64v-64h-64zM256 64v192h64v-192h-64zM64 256v64h192v-64h-192zM0 320v128h64v-128h-64zM256 384v64h64v-64h-64zM64 448v64h192v-64h-192z" />
    <glyph glyph-name="T" unicode="T" 
d="M128 0v448h-128v64h320v-64h-128v-448h-64z" />
    <glyph glyph-name="U" unicode="U" 
d="M64 0v64h192v-64h-192zM0 64v448h64v-448h-64zM256 64v448h64v-448h-64z" />
    <glyph glyph-name="V" unicode="V" horiz-adv-x="512" 
d="M192 0v128h64v-128h-64zM128 128v128h64v-128h-64zM256 128v128h64v-128h-64zM64 256v128h64v-128h-64zM320 256v128h64v-128h-64zM0 384v128h64v-128h-64zM384 384v128h64v-128h-64z" />
    <glyph glyph-name="W" unicode="W" horiz-adv-x="640" 
d="M128 0v128h64v-128h-64zM384 0v128h64v-128h-64zM64 128v192h64v-192h-64zM192 128v192h64v-192h-64zM320 128v192h64v-192h-64zM448 128v192h64v-192h-64zM256 320v128h64v-128h-64zM0 320v192h64v-192h-64zM512 320v192h64v-192h-64z" />
    <glyph glyph-name="X" unicode="X" horiz-adv-x="512" 
d="M0 0v64h64v-64h-64zM384 0v64h64v-64h-64zM64 64v64h64v-64h-64zM320 64v64h64v-64h-64zM128 128v64h64v-64h-64zM256 128v64h64v-64h-64zM192 192v128h64v-128h-64zM128 320v64h64v-64h-64zM256 320v64h64v-64h-64zM64 384v64h64v-64h-64zM320 384v64h64v-64h-64zM0 448
v64h64v-64h-64zM384 448v64h64v-64h-64z" />
    <glyph glyph-name="Y" unicode="Y" 
d="M128 0v320h64v-320h-64zM64 320v64h64v-64h-64zM192 320v64h64v-64h-64zM0 384v128h64v-128h-64zM256 384v128h64v-128h-64z" />
    <glyph glyph-name="Z" unicode="Z" 
d="M0 0v128h64v-64h256v-64h-320zM64 128v64h64v-64h-64zM128 192v128h64v-128h-64zM192 320v64h64v-64h-64zM256 384v64h-256v64h320v-128h-64z" />
    <glyph glyph-name="bracketleft" unicode="[" horiz-adv-x="192" 
d="M0 -64v576h128v-64h-64v-448h64v-64h-128z" />
    <glyph glyph-name="backslash" unicode="\" 
d="M256 0v128h64v-128h-64zM192 128v64h64v-64h-64zM128 192v128h64v-128h-64zM64 320v64h64v-64h-64zM0 384v128h64v-128h-64z" />
    <glyph glyph-name="bracketright" unicode="]" horiz-adv-x="192" 
d="M0 -64v64h64v448h-64v64h128v-576h-128z" />
    <glyph glyph-name="asciicircum" unicode="^" 
d="M0 256v64h64v-64h-64zM256 256v64h64v-64h-64zM64 320v128h64v-128h-64zM192 320v128h64v-128h-64zM128 448v64h64v-64h-64z" />
    <glyph glyph-name="underscore" unicode="_" 
d="M0 -64v64h320v-64h-320z" />
    <glyph glyph-name="grave" unicode="`" horiz-adv-x="256" 
d="M128 320v64h64v-64h-64zM64 384v64h64v-64h-64zM0 448v64h64v-64h-64z" />
    <glyph glyph-name="a" unicode="a" horiz-adv-x="448" 
d="M64 0v64h192v-64h-192zM320 0v64h64v-64h-64zM0 64v64h64v-64h-64zM0 256v64h64v-64h-64zM256 64v64h-192v64h192v128h64v-256h-64zM64 320v64h192v-64h-192z" />
    <glyph glyph-name="b" unicode="b" 
d="M128 0v64h128v-64h-128zM256 64v256h64v-256h-64zM128 320v64h128v-64h-128zM0 0v512h64v-192h64v-64h-64v-128h64v-64h-64v-64h-64z" />
    <glyph glyph-name="c" unicode="c" 
d="M64 0v64h192v-64h-192zM256 64v64h64v-64h-64zM0 64v256h64v-256h-64zM256 256v64h64v-64h-64zM64 320v64h192v-64h-192z" />
    <glyph glyph-name="d" unicode="d" 
d="M64 0v64h128v-64h-128zM0 64v256h64v-256h-64zM64 320v64h128v-64h-128zM256 0v64h-64v64h64v128h-64v64h64v192h64v-512h-64z" />
    <glyph glyph-name="e" unicode="e" 
d="M64 0v64h192v-64h-192zM256 64v64h64v-64h-64zM0 64v256h64v-64h192v-64h-192v-128h-64zM256 256v64h64v-64h-64zM64 320v64h192v-64h-192z" />
    <glyph glyph-name="f" unicode="f" horiz-adv-x="320" 
d="M64 0v320h-64v64h64v64h64v-64h64v-64h-64v-320h-64zM128 448v64h128v-64h-128z" />
    <glyph glyph-name="g" unicode="g" 
d="M64 -192v64h192v-64h-192zM0 -128v64h64v-64h-64zM64 0v64h128v-64h-128zM0 64v256h64v-256h-64zM64 320v64h128v-64h-128zM256 -128v192h-64v64h64v128h-64v64h64v64h64v-512h-64z" />
    <glyph glyph-name="h" unicode="h" 
d="M256 0v320h64v-320h-64zM128 320v64h128v-64h-128zM0 0v512h64v-192h64v-64h-64v-256h-64z" />
    <glyph glyph-name="i" unicode="i" horiz-adv-x="128" 
d="M0 0v384h64v-384h-64zM0 448v64h64v-64h-64z" />
    <glyph glyph-name="j" unicode="j" horiz-adv-x="320" 
d="M64 -64v64h128v-64h-128zM0 0v64h64v-64h-64zM192 0v384h64v-384h-64zM192 448v64h64v-64h-64z" />
    <glyph glyph-name="k" unicode="k" horiz-adv-x="320" 
d="M192 0v128h64v-128h-64zM128 128v64h64v-64h-64zM128 256v64h64v-64h-64zM192 320v64h64v-64h-64zM0 0v512h64v-256h64v-64h-64v-192h-64z" />
    <glyph glyph-name="l" unicode="l" horiz-adv-x="128" 
d="M0 0v512h64v-512h-64z" />
    <glyph glyph-name="m" unicode="m" horiz-adv-x="576" 
d="M256 0v320h64v-320h-64zM448 0v320h64v-320h-64zM0 0v384h64v-64h64v-64h-64v-256h-64zM128 320v64h128v-64h-128zM320 320v64h128v-64h-128z" />
    <glyph glyph-name="n" unicode="n" 
d="M256 0v320h64v-320h-64zM0 0v384h64v-64h64v-64h-64v-256h-64zM128 320v64h128v-64h-128z" />
    <glyph glyph-name="o" unicode="o" 
d="M64 0v64h192v-64h-192zM0 64v256h64v-256h-64zM256 64v256h64v-256h-64zM64 320v64h192v-64h-192z" />
    <glyph glyph-name="p" unicode="p" 
d="M128 0v64h128v-64h-128zM256 64v256h64v-256h-64zM0 -128v512h64v-64h64v-64h-64v-128h64v-64h-64v-192h-64zM128 320v64h128v-64h-128z" />
    <glyph glyph-name="q" unicode="q" 
d="M64 0v64h128v-64h-128zM0 64v256h64v-256h-64zM64 320v64h128v-64h-128zM256 -128v192h-64v64h64v128h-64v64h64v64h64v-512h-64z" />
    <glyph glyph-name="r" unicode="r" 
d="M256 256v64h64v-64h-64zM0 0v384h64v-64h64v-64h-64v-256h-64zM128 320v64h128v-64h-128z" />
    <glyph glyph-name="s" unicode="s" 
d="M64 0v64h192v-64h-192zM0 64v64h64v-64h-64zM256 64v128h64v-128h-64zM64 192v64h192v-64h-192zM0 256v64h64v-64h-64zM64 320v64h256v-64h-256z" />
    <glyph glyph-name="t" unicode="t" horiz-adv-x="320" 
d="M128 0v64h64v-64h-64zM192 64v64h64v-64h-64zM64 64v256h-64v64h64v128h64v-128h64v-64h-64v-256h-64z" />
    <glyph glyph-name="u" unicode="u" 
d="M64 0v64h128v-64h-128zM0 64v320h64v-320h-64zM256 0v64h-64v64h64v256h64v-384h-64z" />
    <glyph glyph-name="v" unicode="v" 
d="M128 0v128h64v-128h-64zM64 128v128h64v-128h-64zM192 128v128h64v-128h-64zM0 256v128h64v-128h-64zM256 256v128h64v-128h-64z" />
    <glyph glyph-name="w" unicode="w" 
d="M64 0v128h64v-128h-64zM192 0v128h64v-128h-64zM128 128v192h64v-192h-64zM0 128v256h64v-256h-64zM256 128v256h64v-256h-64z" />
    <glyph glyph-name="x" unicode="x" 
d="M0 0v64h64v-64h-64zM256 0v64h64v-64h-64zM64 64v64h64v-64h-64zM192 64v64h64v-64h-64zM128 128v128h64v-128h-64zM64 256v64h64v-64h-64zM192 256v64h64v-64h-64zM0 320v64h64v-64h-64zM256 320v64h64v-64h-64z" />
    <glyph glyph-name="y" unicode="y" 
d="M0 -128v64h64v-64h-64zM64 -64v64h64v-64h-64zM128 0v128h64v-128h-64zM64 128v128h64v-128h-64zM192 128v128h64v-128h-64zM0 256v128h64v-128h-64zM256 256v128h64v-128h-64z" />
    <glyph glyph-name="z" unicode="z" 
d="M0 0v64h64v64h64v-64h192v-64h-320zM128 128v64h64v-64h-64zM192 192v64h64v-64h-64zM256 256v64h-256v64h320v-128h-64z" />
    <glyph glyph-name="braceleft" unicode="{" horiz-adv-x="256" 
d="M64 -64v64h128v-64h-128zM0 0v192h64v-192h-64zM-64 192v64h64v-64h-64zM0 256v192h64v-192h-64zM64 448v64h128v-64h-128z" />
    <glyph glyph-name="bar" unicode="|" horiz-adv-x="128" 
d="M0 -64v576h64v-576h-64z" />
    <glyph glyph-name="braceright" unicode="}" horiz-adv-x="320" 
d="M0 -64v64h128v-64h-128zM128 0v192h64v-192h-64zM192 192v64h64v-64h-64zM128 256v192h64v-192h-64zM0 448v64h128v-64h-128z" />
    <glyph glyph-name="asciitilde" unicode="~" horiz-adv-x="448" 
d="M0 192v64h64v-64h-64zM192 192v64h128v-64h-128zM64 256v64h128v-64h-128zM320 256v64h64v-64h-64z" />
    <glyph glyph-name="exclamdown" unicode="&#xa1;" horiz-adv-x="128" 
d="M0 -64v384h64v-384h-64zM0 384v64h64v-64h-64z" />
    <glyph glyph-name="cent" unicode="&#xa2;" 
d="M256 64v64h64v-64h-64zM0 64v256h64v-256h-64zM256 256v64h64v-64h-64zM128 -64v64h-64v64h64v256h-64v64h64v64h64v-64h64v-64h-64v-256h64v-64h-64v-64h-64z" />
    <glyph glyph-name="sterling" unicode="&#xa3;" horiz-adv-x="448" 
d="M0 0v64h64v-64h-64zM128 0v64h192v-64h-192zM320 64v64h64v-64h-64zM64 64v192h-64v64h64v128h64v-128h128v-64h-128v-192h-64zM320 384v64h64v-64h-64zM128 448v64h192v-64h-192z" />
    <glyph glyph-name="currency" unicode="&#xa4;" horiz-adv-x="448" 
d="M0 64v64h64v-64h-64zM320 64v64h64v-64h-64zM256 192v128h-128v-128h128zM64 128v256h256v-256h-256zM0 384v64h64v-64h-64zM320 384v64h64v-64h-64z" />
    <glyph glyph-name="yen" unicode="&#xa5;" 
d="M128 0v64h-128v64h128v64h-128v64h128v64h64v-64h128v-64h-128v-64h128v-64h-128v-64h-64zM64 320v64h64v-64h-64zM192 320v64h64v-64h-64zM0 384v128h64v-128h-64zM256 384v128h64v-128h-64z" />
    <glyph glyph-name="brokenbar" unicode="&#xa6;" horiz-adv-x="128" 
d="M0 -64v256h64v-256h-64zM0 256v256h64v-256h-64z" />
    <glyph glyph-name="section" unicode="&#xa7;" 
d="M64 -64v64h192v-64h-192zM0 0v64h64v-64h-64zM256 0v128h64v-128h-64zM64 128v64h192v-64h-192zM0 192v64h64v-64h-64zM256 192v64h64v-64h-64zM64 256v64h192v-64h-192zM0 320v128h64v-128h-64zM256 384v64h64v-64h-64zM64 448v64h192v-64h-192z" />
    <glyph glyph-name="dieresis" unicode="&#xa8;" horiz-adv-x="256" 
d="M0 448v64h64v-64h-64zM128 448v64h64v-64h-64z" />
    <glyph glyph-name="copyright" unicode="&#xa9;" horiz-adv-x="512" 
d="M64 0v64h320v-64h-320zM128 128v192h192v-64h-128v-64h128v-64h-192zM0 64v320h64v-320h-64zM384 64v320h64v-320h-64zM64 384v64h320v-64h-320z" />
    <glyph glyph-name="ordfeminine" unicode="&#xaa;" horiz-adv-x="320" 
d="M0 256v64h64v-64h-64zM64 192v64h128v64h-128v64h128v64h64v-256h-192zM0 448v64h192v-64h-192z" />
    <glyph glyph-name="guillemotleft" unicode="&#xab;" horiz-adv-x="448" 
d="M128 64v64h64v-64h-64zM320 64v64h64v-64h-64zM64 128v64h64v-64h-64zM256 128v64h64v-64h-64zM0 192v64h64v-64h-64zM192 192v64h64v-64h-64zM64 256v64h64v-64h-64zM256 256v64h64v-64h-64zM128 320v64h64v-64h-64zM320 320v64h64v-64h-64z" />
    <glyph glyph-name="logicalnot" unicode="&#xac;" 
d="M256 192v128h-256v64h320v-192h-64z" />
    <glyph glyph-name="uni00AD" unicode="&#xad;" horiz-adv-x="320" 
d="M0 0v448h64v64h192v-128h-128v-128h128v-128h-128v-128h-128z" />
    <glyph glyph-name="registered" unicode="&#xae;" horiz-adv-x="512" 
d="M64 0v64h320v-64h-320zM256 128v64h64v-64h-64zM128 128v192h192v-64h-64v-64h-64v-64h-64zM0 64v320h64v-320h-64zM384 64v320h64v-320h-64zM64 384v64h320v-64h-320z" />
    <glyph glyph-name="macron" unicode="&#xaf;" 
d="M0 448v64h320v-64h-320z" />
    <glyph glyph-name="degree" unicode="&#xb0;" horiz-adv-x="256" 
d="M64 320v64h64v-64h-64zM0 384v64h64v-64h-64zM128 384v64h64v-64h-64zM64 448v64h64v-64h-64z" />
    <glyph glyph-name="plusminus" unicode="&#xb1;" 
d="M0 0v64h320v-64h-320zM128 128v128h-128v64h128v128h64v-128h128v-64h-128v-128h-64z" />
    <glyph glyph-name="uni00B2" unicode="&#xb2;" horiz-adv-x="256" 
d="M0 256v64h64v64h64v-64h64v-64h-192zM128 384v64h-128v64h192v-128h-64z" />
    <glyph glyph-name="uni00B3" unicode="&#xb3;" horiz-adv-x="256" 
d="M0 192v64h128v-64h-128zM128 256v64h64v-64h-64zM64 320v64h64v-64h-64zM128 384v64h64v-64h-64zM0 448v64h128v-64h-128z" />
    <glyph glyph-name="acute" unicode="&#xb4;" horiz-adv-x="256" 
d="M0 320v64h64v-64h-64zM64 384v64h64v-64h-64zM128 448v64h64v-64h-64z" />
    <glyph glyph-name="uni00B5" unicode="&#xb5;" 
d="M0 -128v512h64v-256h64v-64h-64v-192h-64zM128 0v64h128v320h64v-384h-192z" />
    <glyph glyph-name="paragraph" unicode="&#xb6;" horiz-adv-x="576" 
d="M192 0v256h-128v64h-64v128h64v64h448v-512h-128v384h-64v-384h-128z" />
    <glyph glyph-name="periodcentered" unicode="&#xb7;" horiz-adv-x="128" 
d="M0 192v64h64v-64h-64z" />
    <glyph glyph-name="cedilla" unicode="&#xb8;" horiz-adv-x="192" 
d="M0 -64v64h64v64h64v-128h-128zM0 64v64h64v-64h-64z" />
    <glyph glyph-name="uni00B9" unicode="&#xb9;" horiz-adv-x="192" 
d="M64 256v192h-64v64h128v-256h-64z" />
    <glyph glyph-name="ordmasculine" unicode="&#xba;" horiz-adv-x="256" 
d="M0 192v64h192v-64h-192zM64 320v64h64v-64h-64zM0 384v64h64v-64h-64zM128 384v64h64v-64h-64zM64 448v64h64v-64h-64z" />
    <glyph glyph-name="guillemotright" unicode="&#xbb;" horiz-adv-x="448" 
d="M0 64v64h64v-64h-64zM192 64v64h64v-64h-64zM64 128v64h64v-64h-64zM256 128v64h64v-64h-64zM128 192v64h64v-64h-64zM320 192v64h64v-64h-64zM64 256v64h64v-64h-64zM256 256v64h64v-64h-64zM0 320v64h64v-64h-64zM192 320v64h64v-64h-64z" />
    <glyph glyph-name="onequarter" unicode="&#xbc;" horiz-adv-x="576" 
d="M0 0v64h64v-64h-64zM64 64v64h64v-64h-64zM128 128v64h64v-64h-64zM192 192v64h64v-64h-64zM448 0v64h-128v128h64v-64h64v64h-64v64h128v-256h-64zM256 256v64h64v-64h-64zM320 320v64h64v-64h-64zM384 384v64h64v-64h-64zM64 320v128h-64v64h128v-192h-64zM448 448v64
h64v-64h-64z" />
    <glyph glyph-name="onehalf" unicode="&#xbd;" horiz-adv-x="576" 
d="M0 0v64h64v-64h-64zM64 64v64h64v-64h-64zM320 0v128h128v-64h64v-64h-192zM128 128v64h64v-64h-64zM448 128v64h64v-64h-64zM192 192v64h64v-64h-64zM320 192v64h128v-64h-128zM256 256v64h64v-64h-64zM320 320v64h64v-64h-64zM384 384v64h64v-64h-64zM64 320v128h-64
v64h128v-192h-64zM448 448v64h64v-64h-64z" />
    <glyph glyph-name="threequarters" unicode="&#xbe;" horiz-adv-x="576" 
d="M0 0v64h64v-64h-64zM64 64v64h64v-64h-64zM128 128v64h64v-64h-64zM0 192v64h128v-64h-128zM192 192v64h64v-64h-64zM448 0v64h-128v128h64v-64h64v64h-64v64h128v-256h-64zM128 256v64h64v-64h-64zM256 256v64h64v-64h-64zM0 320v64h128v-64h-128zM320 320v64h64v-64
h-64zM128 384v64h64v-64h-64zM384 384v64h64v-64h-64zM0 448v64h128v-64h-128zM448 448v64h64v-64h-64z" />
    <glyph glyph-name="questiondown" unicode="&#xbf;" 
d="M64 0v64h192v-64h-192zM256 64v64h64v-64h-64zM0 64v192h64v-192h-64zM64 256v64h64v-64h-64zM128 320v64h64v-64h-64zM128 448v64h64v-64h-64z" />
    <glyph glyph-name="Agrave" unicode="&#xc0;" 
d="M0 0v320h64v-64h192v64h64v-320h-64v192h-192v-192h-64zM64 320v64h64v-64h-64zM192 320v64h64v-64h-64zM128 384v64h64v-64h-64zM128 512v64h64v-64h-64zM64 576v64h64v-64h-64z" />
    <glyph glyph-name="Aacute" unicode="&#xc1;" 
d="M0 0v320h64v-64h192v64h64v-320h-64v192h-192v-192h-64zM64 320v64h64v-64h-64zM192 320v64h64v-64h-64zM128 384v64h64v-64h-64zM128 512v64h64v-64h-64zM192 576v64h64v-64h-64z" />
    <glyph glyph-name="Acircumflex" unicode="&#xc2;" 
d="M0 0v320h64v-64h192v64h64v-320h-64v192h-192v-192h-64zM64 320v64h64v-64h-64zM192 320v64h64v-64h-64zM128 384v64h64v-64h-64zM64 512v64h64v-64h-64zM192 512v64h64v-64h-64zM128 576v64h64v-64h-64z" />
    <glyph glyph-name="Atilde" unicode="&#xc3;" 
d="M0 0v320h64v-64h192v64h64v-320h-64v192h-192v-192h-64zM64 320v64h64v-64h-64zM192 320v64h64v-64h-64zM128 384v64h64v-64h-64zM0 512v64h64v-64h-64zM192 512v64h128v-64h-128zM64 576v64h128v-64h-128zM320 576v64h64v-64h-64z" />
    <glyph glyph-name="Adieresis" unicode="&#xc4;" 
d="M0 0v384h64v-128h192v128h64v-384h-64v192h-192v-192h-64zM64 384v64h64v-64h-64zM192 384v64h64v-64h-64zM128 448v64h64v-64h-64zM64 576v64h64v-64h-64zM192 576v64h64v-64h-64z" />
    <glyph glyph-name="Aring" unicode="&#xc5;" 
d="M0 0v384h64v-128h192v128h64v-384h-64v192h-192v-192h-64zM64 384v64h64v-64h-64zM192 384v64h64v-64h-64zM128 448v64h64v-64h-64zM64 512v64h64v-64h-64zM192 512v64h64v-64h-64zM128 576v64h64v-64h-64z" />
    <glyph glyph-name="AE" unicode="&#xc6;" horiz-adv-x="576" 
d="M0 0v128h64v-128h-64zM256 0v192h-128v-64h-64v128h64v128h64v-128h64v128h-64v128h320v-64h-192v-192h128v-64h-128v-128h192v-64h-256z" />
    <glyph glyph-name="Ccedilla" unicode="&#xc7;" 
d="M64 -64v64h64v64h-64v64h192v-64h-64v-128h-128zM256 128v64h64v-64h-64zM0 128v320h64v-320h-64zM256 384v64h64v-64h-64zM64 448v64h192v-64h-192z" />
    <glyph glyph-name="Egrave" unicode="&#xc8;" 
d="M0 0v448h320v-64h-256v-128h128v-64h-128v-128h256v-64h-320zM128 512v64h64v-64h-64zM64 576v64h64v-64h-64z" />
    <glyph glyph-name="Eacute" unicode="&#xc9;" 
d="M0 0v448h320v-64h-256v-128h128v-64h-128v-128h256v-64h-320zM128 512v64h64v-64h-64zM192 576v64h64v-64h-64z" />
    <glyph glyph-name="Ecircumflex" unicode="&#xca;" 
d="M0 0v448h320v-64h-256v-128h128v-64h-128v-128h256v-64h-320zM64 512v64h64v-64h-64zM192 512v64h64v-64h-64zM128 576v64h64v-64h-64z" />
    <glyph glyph-name="Edieresis" unicode="&#xcb;" 
d="M0 0v512h320v-64h-256v-128h128v-64h-128v-192h256v-64h-320zM64 576v64h64v-64h-64zM192 576v64h64v-64h-64z" />
    <glyph glyph-name="Igrave" unicode="&#xcc;" horiz-adv-x="256" 
d="M0 0v64h64v320h-64v64h192v-64h-64v-320h64v-64h-192zM64 512v64h64v-64h-64zM0 576v64h64v-64h-64z" />
    <glyph glyph-name="Iacute" unicode="&#xcd;" horiz-adv-x="256" 
d="M0 0v64h64v320h-64v64h192v-64h-64v-320h64v-64h-192zM64 512v64h64v-64h-64zM128 576v64h64v-64h-64z" />
    <glyph glyph-name="Icircumflex" unicode="&#xce;" horiz-adv-x="256" 
d="M0 0v64h64v320h-64v64h192v-64h-64v-320h64v-64h-192zM0 512v64h64v-64h-64zM128 512v64h64v-64h-64zM64 576v64h64v-64h-64z" />
    <glyph glyph-name="Idieresis" unicode="&#xcf;" horiz-adv-x="256" 
d="M0 0v64h64v384h-64v64h192v-64h-64v-384h64v-64h-192zM0 576v64h64v-64h-64zM128 576v64h64v-64h-64z" />
    <glyph glyph-name="Eth" unicode="&#xd0;" horiz-adv-x="448" 
d="M320 64v384h64v-384h-64zM64 0v256h-64v64h64v192h256v-64h-192v-128h128v-64h-128v-192h192v-64h-256z" />
    <glyph glyph-name="Ntilde" unicode="&#xd1;" horiz-adv-x="512" 
d="M256 128v128h64v-128h-64zM192 256v64h64v-64h-64zM128 320v64h64v-64h-64zM0 0v448h128v-64h-64v-384h-64zM384 0v64h-64v64h64v320h64v-448h-64zM64 512v64h64v-64h-64zM256 512v64h128v-64h-128zM128 576v64h128v-64h-128zM384 576v64h64v-64h-64z" />
    <glyph glyph-name="Ograve" unicode="&#xd2;" 
d="M64 0v64h192v-64h-192zM0 64v320h64v-320h-64zM256 64v320h64v-320h-64zM64 384v64h192v-64h-192zM128 512v64h64v-64h-64zM64 576v64h64v-64h-64z" />
    <glyph glyph-name="Oacute" unicode="&#xd3;" 
d="M64 0v64h192v-64h-192zM0 64v320h64v-320h-64zM256 64v320h64v-320h-64zM64 384v64h192v-64h-192zM128 512v64h64v-64h-64zM192 576v64h64v-64h-64z" />
    <glyph glyph-name="Ocircumflex" unicode="&#xd4;" 
d="M64 0v64h192v-64h-192zM0 64v320h64v-320h-64zM256 64v320h64v-320h-64zM64 384v64h192v-64h-192zM64 512v64h64v-64h-64zM192 512v64h64v-64h-64zM128 576v64h64v-64h-64z" />
    <glyph glyph-name="Otilde" unicode="&#xd5;" horiz-adv-x="448" 
d="M64 0v64h192v-64h-192zM0 64v320h64v-320h-64zM256 64v320h64v-320h-64zM64 384v64h192v-64h-192zM0 512v64h64v-64h-64zM192 512v64h128v-64h-128zM64 576v64h128v-64h-128zM320 576v64h64v-64h-64z" />
    <glyph glyph-name="Odieresis" unicode="&#xd6;" 
d="M64 0v64h192v-64h-192zM0 64v384h64v-384h-64zM256 64v384h64v-384h-64zM64 448v64h192v-64h-192zM64 576v64h64v-64h-64zM192 576v64h64v-64h-64z" />
    <glyph glyph-name="multiply" unicode="&#xd7;" 
d="M0 64v64h64v-64h-64zM256 64v64h64v-64h-64zM64 128v64h64v-64h-64zM192 128v64h64v-64h-64zM128 192v64h64v-64h-64zM64 256v64h64v-64h-64zM192 256v64h64v-64h-64zM0 320v64h64v-64h-64zM256 320v64h64v-64h-64z" />
    <glyph glyph-name="Oslash" unicode="&#xd8;" horiz-adv-x="512" 
d="M0 0v64h64v-64h-64zM128 0v64h192v-64h-192zM192 192v64h64v-64h-64zM64 64v384h64v-256h64v-64h-64v-64h-64zM320 64v192h-64v64h64v128h64v-384h-64zM128 448v64h192v-64h-192zM384 448v64h64v-64h-64z" />
    <glyph glyph-name="Ugrave" unicode="&#xd9;" 
d="M64 0v64h192v-64h-192zM0 64v384h64v-384h-64zM256 64v384h64v-384h-64zM128 448v64h64v-64h-64zM64 512v64h64v-64h-64z" />
    <glyph glyph-name="Uacute" unicode="&#xda;" 
d="M64 0v64h192v-64h-192zM0 64v384h64v-384h-64zM256 64v384h64v-384h-64zM128 448v64h64v-64h-64zM192 512v64h64v-64h-64z" />
    <glyph glyph-name="Ucircumflex" unicode="&#xdb;" 
d="M64 0v64h192v-64h-192zM0 64v384h64v-384h-64zM256 64v384h64v-384h-64zM64 512v64h64v-64h-64zM192 512v64h64v-64h-64zM128 576v64h64v-64h-64z" />
    <glyph glyph-name="Udieresis" unicode="&#xdc;" 
d="M64 0v64h192v-64h-192zM0 64v384h64v-384h-64zM256 64v384h64v-384h-64zM64 512v64h64v-64h-64zM192 512v64h64v-64h-64z" />
    <glyph glyph-name="Yacute" unicode="&#xdd;" 
d="M128 0v256h64v-256h-64zM64 256v64h64v-64h-64zM192 256v64h64v-64h-64zM0 320v128h64v-128h-64zM256 320v128h64v-128h-64zM128 448v64h64v-64h-64zM192 512v64h64v-64h-64z" />
    <glyph glyph-name="Thorn" unicode="&#xde;" 
d="M256 192v128h64v-128h-64zM0 0v512h64v-128h192v-64h-192v-128h192v-64h-192v-128h-64z" />
    <glyph glyph-name="germandbls" unicode="&#xdf;" 
d="M128 0v64h128v-64h-128zM256 64v64h64v-64h-64zM192 128v64h64v-64h-64zM128 192v64h64v-64h-64zM192 256v64h64v-64h-64zM0 0v384h64v-384h-64zM64 384v64h64v-64h-64zM256 320v128h64v-128h-64zM128 448v64h128v-64h-128z" />
    <glyph glyph-name="agrave" unicode="&#xe0;" horiz-adv-x="448" 
d="M64 0v64h192v-64h-192zM320 0v64h64v-64h-64zM0 64v64h64v-64h-64zM0 256v64h64v-64h-64zM256 64v64h-192v64h192v128h64v-256h-64zM64 320v64h192v-64h-192zM128 448v64h64v-64h-64zM64 512v64h64v-64h-64z" />
    <glyph glyph-name="aacute" unicode="&#xe1;" horiz-adv-x="448" 
d="M64 0v64h192v-64h-192zM320 0v64h64v-64h-64zM0 64v64h64v-64h-64zM0 256v64h64v-64h-64zM256 64v64h-192v64h192v128h64v-256h-64zM64 320v64h192v-64h-192zM128 448v64h64v-64h-64zM192 512v64h64v-64h-64z" />
    <glyph glyph-name="acircumflex" unicode="&#xe2;" horiz-adv-x="448" 
d="M64 0v64h192v-64h-192zM320 0v64h64v-64h-64zM0 64v64h64v-64h-64zM0 256v64h64v-64h-64zM256 64v64h-192v64h192v128h64v-256h-64zM64 320v64h192v-64h-192zM64 448v64h64v-64h-64zM192 448v64h64v-64h-64zM128 512v64h64v-64h-64z" />
    <glyph glyph-name="atilde" unicode="&#xe3;" horiz-adv-x="448" 
d="M64 0v64h192v-64h-192zM320 0v64h64v-64h-64zM0 64v64h64v-64h-64zM0 256v64h64v-64h-64zM256 64v64h-192v64h192v128h64v-256h-64zM64 320v64h192v-64h-192zM0 448v64h64v-64h-64zM192 448v64h128v-64h-128zM64 512v64h128v-64h-128zM320 512v64h64v-64h-64z" />
    <glyph glyph-name="adieresis" unicode="&#xe4;" horiz-adv-x="448" 
d="M64 0v64h192v-64h-192zM320 0v64h64v-64h-64zM0 64v64h64v-64h-64zM0 256v64h64v-64h-64zM256 64v64h-192v64h192v128h64v-256h-64zM64 320v64h192v-64h-192zM64 448v64h64v-64h-64zM192 448v64h64v-64h-64z" />
    <glyph glyph-name="aring" unicode="&#xe5;" horiz-adv-x="448" 
d="M64 0v64h192v-64h-192zM320 0v64h64v-64h-64zM0 64v64h64v-64h-64zM0 256v64h64v-64h-64zM256 64v64h-192v64h192v128h64v-256h-64zM64 320v64h64v64h64v-64h64v-64h-192zM64 448v64h64v-64h-64zM192 448v64h64v-64h-64zM128 512v64h64v-64h-64z" />
    <glyph glyph-name="ae" unicode="&#xe6;" horiz-adv-x="640" 
d="M64 0v64h192v-64h-192zM320 0v64h192v-64h-192zM0 64v64h64v-64h-64zM512 64v64h64v-64h-64zM0 256v64h64v-64h-64zM256 64v64h-192v64h192v128h64v-64h192v-64h-192v-128h-64zM512 256v64h64v-64h-64zM64 320v64h192v-64h-192zM320 320v64h192v-64h-192z" />
    <glyph glyph-name="ccedilla" unicode="&#xe7;" 
d="M64 -128v64h64v64h-64v64h192v-64h-64v-128h-128zM256 64v64h64v-64h-64zM0 64v256h64v-256h-64zM256 256v64h64v-64h-64zM64 320v64h192v-64h-192z" />
    <glyph glyph-name="egrave" unicode="&#xe8;" 
d="M64 0v64h192v-64h-192zM256 64v64h64v-64h-64zM0 64v256h64v-64h192v-64h-192v-128h-64zM256 256v64h64v-64h-64zM64 320v64h192v-64h-192zM128 448v64h64v-64h-64zM64 512v64h64v-64h-64z" />
    <glyph glyph-name="eacute" unicode="&#xe9;" 
d="M64 0v64h192v-64h-192zM256 64v64h64v-64h-64zM0 64v256h64v-64h192v-64h-192v-128h-64zM256 256v64h64v-64h-64zM64 320v64h192v-64h-192zM128 448v64h64v-64h-64zM192 512v64h64v-64h-64z" />
    <glyph glyph-name="ecircumflex" unicode="&#xea;" 
d="M64 0v64h192v-64h-192zM256 64v64h64v-64h-64zM0 64v256h64v-64h192v-64h-192v-128h-64zM256 256v64h64v-64h-64zM64 320v64h192v-64h-192zM64 448v64h64v-64h-64zM192 448v64h64v-64h-64zM128 512v64h64v-64h-64z" />
    <glyph glyph-name="edieresis" unicode="&#xeb;" 
d="M64 0v64h192v-64h-192zM256 64v64h64v-64h-64zM0 64v256h64v-64h192v-64h-192v-128h-64zM256 256v64h64v-64h-64zM64 320v64h192v-64h-192zM64 448v64h64v-64h-64zM192 448v64h64v-64h-64z" />
    <glyph glyph-name="igrave" unicode="&#xec;" horiz-adv-x="192" 
d="M64 0v384h64v-384h-64zM64 448v64h64v-64h-64zM0 512v64h64v-64h-64z" />
    <glyph glyph-name="iacute" unicode="&#xed;" horiz-adv-x="192" 
d="M0 0v384h64v-384h-64zM0 448v64h64v-64h-64zM64 512v64h64v-64h-64z" />
    <glyph glyph-name="icircumflex" unicode="&#xee;" horiz-adv-x="256" 
d="M64 0v384h64v-384h-64zM0 448v64h64v-64h-64zM128 448v64h64v-64h-64zM64 512v64h64v-64h-64z" />
    <glyph glyph-name="idieresis" unicode="&#xef;" horiz-adv-x="256" 
d="M64 0v384h64v-384h-64zM0 448v64h64v-64h-64zM128 448v64h64v-64h-64z" />
    <glyph glyph-name="eth" unicode="&#xf0;" 
d="M64 0v64h192v-64h-192zM0 64v192h64v-192h-64zM256 64v192h64v-192h-64zM64 256v64h128v64h64v-128h-192zM0 384v64h64v-64h-64zM128 384v64h64v-64h-64zM64 448v64h64v-64h-64zM0 512v64h64v-64h-64zM128 512v64h64v-64h-64z" />
    <glyph glyph-name="ntilde" unicode="&#xf1;" 
d="M256 0v320h64v-320h-64zM0 0v384h64v-64h64v-64h-64v-256h-64zM128 320v64h128v-64h-128zM0 448v64h64v-64h-64zM192 448v64h64v-64h-64zM64 512v64h128v-64h-128zM256 512v64h64v-64h-64z" />
    <glyph glyph-name="ograve" unicode="&#xf2;" 
d="M64 0v64h192v-64h-192zM0 64v256h64v-256h-64zM256 64v256h64v-256h-64zM64 320v64h192v-64h-192zM128 448v64h64v-64h-64zM64 512v64h64v-64h-64z" />
    <glyph glyph-name="oacute" unicode="&#xf3;" 
d="M64 0v64h192v-64h-192zM0 64v256h64v-256h-64zM256 64v256h64v-256h-64zM64 320v64h192v-64h-192zM128 448v64h64v-64h-64zM192 512v64h64v-64h-64z" />
    <glyph glyph-name="ocircumflex" unicode="&#xf4;" 
d="M64 0v64h192v-64h-192zM0 64v256h64v-256h-64zM256 64v256h64v-256h-64zM64 320v64h192v-64h-192zM64 448v64h64v-64h-64zM192 448v64h64v-64h-64zM128 512v64h64v-64h-64z" />
    <glyph glyph-name="otilde" unicode="&#xf5;" 
d="M64 0v64h192v-64h-192zM0 64v256h64v-256h-64zM256 64v256h64v-256h-64zM64 320v64h192v-64h-192zM0 448v64h64v-64h-64zM128 448v64h128v-64h-128zM64 512v64h64v-64h-64zM256 512v64h64v-64h-64z" />
    <glyph glyph-name="odieresis" unicode="&#xf6;" 
d="M64 0v64h192v-64h-192zM0 64v256h64v-256h-64zM256 64v256h64v-256h-64zM64 320v64h192v-64h-192zM64 448v64h64v-64h-64zM192 448v64h64v-64h-64z" />
    <glyph glyph-name="divide" unicode="&#xf7;" horiz-adv-x="448" 
d="M128 64v64h128v-64h-128zM0 192v64h384v-64h-384zM128 320v64h128v-64h-128z" />
    <glyph glyph-name="oslash" unicode="&#xf8;" horiz-adv-x="448" 
d="M128 128v64h64v-64h-64zM64 0v64h-64v256h64v-192h64v-64h128v-64h-192zM256 64v128h-64v64h64v64h64v-256h-64zM64 320v64h192v-64h-192zM320 320v64h64v-64h-64z" />
    <glyph glyph-name="ugrave" unicode="&#xf9;" 
d="M64 0v64h128v-64h-128zM0 64v320h64v-320h-64zM256 0v64h-64v64h64v256h64v-384h-64zM128 384v64h64v-64h-64zM64 448v64h64v-64h-64z" />
    <glyph glyph-name="uacute" unicode="&#xfa;" 
d="M64 0v64h128v-64h-128zM0 64v320h64v-320h-64zM256 0v64h-64v64h64v256h64v-384h-64zM128 384v64h64v-64h-64zM192 448v64h64v-64h-64z" />
    <glyph glyph-name="ucircumflex" unicode="&#xfb;" 
d="M64 0v64h128v-64h-128zM0 64v320h64v-320h-64zM256 0v64h-64v64h64v256h64v-384h-64zM64 448v64h64v-64h-64zM192 448v64h64v-64h-64zM128 512v64h64v-64h-64z" />
    <glyph glyph-name="udieresis" unicode="&#xfc;" 
d="M64 0v64h128v-64h-128zM0 64v320h64v-320h-64zM256 0v64h-64v64h64v256h64v-384h-64zM64 448v64h64v-64h-64zM192 448v64h64v-64h-64z" />
    <glyph glyph-name="yacute" unicode="&#xfd;" 
d="M64 -128v128h64v-128h-64zM128 0v128h64v-128h-64zM64 128v128h64v-128h-64zM192 128v128h64v-128h-64zM0 256v128h64v-128h-64zM256 256v128h64v-128h-64zM128 384v64h64v-64h-64zM192 448v64h64v-64h-64z" />
    <glyph glyph-name="thorn" unicode="&#xfe;" 
d="M128 64v64h128v-64h-128zM256 128v192h64v-192h-64zM128 320v64h128v-64h-128zM0 -64v576h64v-192h64v-64h-64v-64h64v-64h-64v-192h-64z" />
    <glyph glyph-name="ydieresis" unicode="&#xff;" 
d="M0 -128v64h64v-64h-64zM64 -64v64h64v-64h-64zM128 0v128h64v-128h-64zM64 128v128h64v-128h-64zM192 128v128h64v-128h-64zM0 256v128h64v-128h-64zM256 256v128h64v-128h-64zM64 448v64h64v-64h-64zM192 448v64h64v-64h-64z" />
    <glyph glyph-name="Amacron" unicode="&#x100;" horiz-adv-x="512" 
d="M0 0v128h64v-128h-64zM384 0v128h64v-128h-64zM64 128v128h64v128h64v-128h64v128h64v-128h64v-128h-64v64h-192v-64h-64zM192 384v128h64v-128h-64zM0 576v64h448v-64h-448z" />
    <glyph glyph-name="amacron" unicode="&#x101;" horiz-adv-x="448" 
d="M64 0v64h192v-64h-192zM320 0v64h64v-64h-64zM0 64v64h64v-64h-64zM0 256v64h64v-64h-64zM256 64v64h-192v64h192v128h64v-256h-64zM64 320v64h192v-64h-192zM0 448v64h320v-64h-320z" />
    <glyph glyph-name="Abreve" unicode="&#x102;" horiz-adv-x="512" 
d="M0 0v128h64v-128h-64zM384 0v128h64v-128h-64zM64 128v128h64v128h64v-128h64v128h64v-128h64v-128h-64v64h-192v-64h-64zM192 384v128h64v-128h-64zM128 576v128h64v-64h64v64h64v-128h-192z" />
    <glyph glyph-name="abreve" unicode="&#x103;" horiz-adv-x="448" 
d="M64 0v64h192v-64h-192zM320 0v64h64v-64h-64zM0 64v64h64v-64h-64zM0 256v64h64v-64h-64zM256 64v64h-192v64h192v128h64v-256h-64zM64 320v64h192v-64h-192zM64 448v128h64v-64h64v64h64v-128h-192z" />
    <glyph glyph-name="Aogonek" unicode="&#x104;" horiz-adv-x="512" 
d="M384 -128v64h64v-64h-64zM320 -64v64h64v-64h-64zM0 0v128h64v-128h-64zM384 0v128h64v-128h-64zM64 128v128h64v128h64v-128h64v128h64v-128h64v-128h-64v64h-192v-64h-64zM192 384v128h64v-128h-64z" />
    <glyph glyph-name="aogonek" unicode="&#x105;" horiz-adv-x="448" 
d="M320 -192v64h64v-64h-64zM256 -128v64h64v-64h-64zM64 0v64h192v-64h-192zM320 -64v128h64v-128h-64zM0 64v64h64v-64h-64zM0 256v64h64v-64h-64zM256 64v64h-192v64h192v128h64v-256h-64zM64 320v64h192v-64h-192z" />
    <glyph glyph-name="Cacute" unicode="&#x106;" 
d="M64 0v64h192v-64h-192zM256 64v128h64v-128h-64zM0 64v384h64v-384h-64zM256 320v128h64v-128h-64zM64 448v64h192v-64h-192zM128 576v64h64v-64h-64zM192 640v64h64v-64h-64z" />
    <glyph glyph-name="cacute" unicode="&#x107;" 
d="M64 0v64h192v-64h-192zM256 64v64h64v-64h-64zM0 64v256h64v-256h-64zM256 256v64h64v-64h-64zM64 320v64h192v-64h-192zM128 448v64h64v-64h-64zM192 512v64h64v-64h-64z" />
    <glyph glyph-name="Ccircumflex" unicode="&#x108;" 
d="M64 0v64h192v-64h-192zM256 64v64h64v-64h-64zM0 64v384h64v-384h-64zM256 384v64h64v-64h-64zM64 448v64h192v-64h-192zM64 576v64h64v-64h-64zM192 576v64h64v-64h-64zM128 640v64h64v-64h-64z" />
    <glyph glyph-name="ccircumflex" unicode="&#x109;" 
d="M64 0v64h192v-64h-192zM256 64v64h64v-64h-64zM0 64v256h64v-256h-64zM256 256v64h64v-64h-64zM64 320v64h192v-64h-192zM64 448v64h64v-64h-64zM192 448v64h64v-64h-64zM128 512v64h64v-64h-64z" />
    <glyph glyph-name="Cdotaccent" unicode="&#x10a;" 
d="M64 0v64h192v-64h-192zM256 64v64h64v-64h-64zM0 64v384h64v-384h-64zM256 384v64h64v-64h-64zM64 448v64h192v-64h-192zM128 576v64h64v-64h-64z" />
    <glyph glyph-name="cdotaccent" unicode="&#x10b;" 
d="M64 0v64h192v-64h-192zM256 64v64h64v-64h-64zM0 64v256h64v-256h-64zM256 256v64h64v-64h-64zM64 320v64h192v-64h-192zM128 448v64h64v-64h-64z" />
    <glyph glyph-name="Ccaron" unicode="&#x10c;" 
d="M64 0v64h192v-64h-192zM256 64v64h64v-64h-64zM0 64v384h64v-384h-64zM256 384v64h64v-64h-64zM64 448v64h192v-64h-192zM128 576v64h64v-64h-64zM64 640v64h64v-64h-64zM192 640v64h64v-64h-64z" />
    <glyph glyph-name="ccaron" unicode="&#x10d;" 
d="M64 0v64h192v-64h-192zM256 64v64h64v-64h-64zM0 64v256h64v-256h-64zM256 256v64h64v-64h-64zM64 320v64h192v-64h-192zM128 448v64h64v-64h-64zM64 512v64h64v-64h-64zM192 512v64h64v-64h-64z" />
    <glyph glyph-name="Dcaron" unicode="&#x10e;" 
d="M256 64v384h64v-384h-64zM0 0v512h256v-64h-192v-384h192v-64h-256zM128 576v64h64v-64h-64zM64 640v64h64v-64h-64zM192 640v64h64v-64h-64z" />
    <glyph glyph-name="dcaron" unicode="&#x10f;" horiz-adv-x="512" 
d="M64 0v64h128v-64h-128zM0 64v256h64v-256h-64zM64 320v64h128v-64h-128zM256 0v64h-64v64h64v128h-64v64h64v192h64v-128h64v-64h-64v-320h-64zM384 384v128h64v-128h-64z" />
    <glyph glyph-name="Dcroat" unicode="&#x110;" horiz-adv-x="448" 
d="M320 64v384h64v-384h-64zM64 0v256h-64v64h64v192h256v-64h-192v-128h64v-64h-64v-192h192v-64h-256z" />
    <glyph glyph-name="dcroat" unicode="&#x111;" horiz-adv-x="448" 
d="M64 0v64h128v-64h-128zM0 64v256h64v-256h-64zM64 320v64h128v-64h-128zM256 0v64h-64v64h64v128h-64v64h64v128h-128v64h128v64h64v-64h64v-64h-64v-448h-64z" />
    <glyph glyph-name="Emacron" unicode="&#x112;" 
d="M0 0v512h320v-64h-256v-128h192v-64h-192v-192h256v-64h-320zM0 576v64h320v-64h-320z" />
    <glyph glyph-name="emacron" unicode="&#x113;" 
d="M64 0v64h192v-64h-192zM256 64v64h64v-64h-64zM0 64v256h64v-64h192v-64h-192v-128h-64zM256 256v64h64v-64h-64zM64 320v64h192v-64h-192zM0 448v64h320v-64h-320z" />
    <glyph glyph-name="Ebreve" unicode="&#x114;" 
d="M0 0v512h320v-64h-256v-128h192v-64h-192v-192h256v-64h-320zM64 576v128h64v-64h64v64h64v-128h-192z" />
    <glyph glyph-name="ebreve" unicode="&#x115;" 
d="M64 0v64h192v-64h-192zM256 64v64h64v-64h-64zM0 64v256h64v-64h192v64h64v-128h-256v-128h-64zM64 320v64h192v-64h-192zM64 448v128h64v-64h64v64h64v-128h-192z" />
    <glyph glyph-name="Edotaccent" unicode="&#x116;" 
d="M0 0v512h320v-64h-256v-128h128v-64h-128v-192h256v-64h-320zM128 576v64h64v-64h-64z" />
    <glyph glyph-name="edotaccent" unicode="&#x117;" 
d="M64 0v64h192v-64h-192zM256 64v64h64v-64h-64zM0 64v256h64v-64h192v64h64v-128h-256v-128h-64zM64 320v64h192v-64h-192zM128 448v64h64v-64h-64z" />
    <glyph glyph-name="Eogonek" unicode="&#x118;" 
d="M256 -192v64h64v-64h-64zM192 -128v64h64v-64h-64zM256 -64v64h-256v512h320v-64h-256v-128h192v-64h-192v-192h256v-128h-64z" />
    <glyph glyph-name="eogonek" unicode="&#x119;" 
d="M192 -192v64h64v-64h-64zM128 -128v64h64v-64h-64zM192 -64v64h-128v64h192v-128h-64zM256 64v64h64v-64h-64zM0 64v256h64v-64h192v64h64v-128h-256v-128h-64zM64 320v64h192v-64h-192z" />
    <glyph glyph-name="Ecaron" unicode="&#x11a;" 
d="M0 0v512h320v-64h-256v-128h192v-64h-192v-192h256v-64h-320zM128 576v64h64v-64h-64zM64 640v64h64v-64h-64zM192 640v64h64v-64h-64z" />
    <glyph glyph-name="ecaron" unicode="&#x11b;" 
d="M64 0v64h192v-64h-192zM256 64v64h64v-64h-64zM0 64v256h64v-64h192v64h64v-128h-256v-128h-64zM64 320v64h192v-64h-192zM128 448v64h64v-64h-64zM64 512v64h64v-64h-64zM192 512v64h64v-64h-64z" />
    <glyph glyph-name="Gcircumflex" unicode="&#x11c;" 
d="M64 0v64h192v-64h-192zM256 64v128h-128v64h192v-192h-64zM0 64v384h64v-384h-64zM256 384v64h64v-64h-64zM64 448v64h192v-64h-192zM64 576v64h64v-64h-64zM192 576v64h64v-64h-64zM128 640v64h64v-64h-64z" />
    <glyph glyph-name="gcircumflex" unicode="&#x11d;" 
d="M64 -192v64h192v-64h-192zM0 -128v64h64v-64h-64zM64 0v64h128v-64h-128zM0 64v256h64v-256h-64zM64 320v64h128v-64h-128zM256 -128v192h-64v64h64v128h-64v64h64v64h64v-512h-64zM64 448v64h64v-64h-64zM192 448v64h64v-64h-64zM128 512v64h64v-64h-64z" />
    <glyph glyph-name="Gbreve" unicode="&#x11e;" 
d="M64 0v64h192v-64h-192zM256 64v128h-128v64h192v-192h-64zM0 64v384h64v-384h-64zM256 384v64h64v-64h-64zM64 448v64h192v-64h-192zM64 576v128h64v-64h64v64h64v-128h-192z" />
    <glyph glyph-name="gbreve" unicode="&#x11f;" 
d="M64 -192v64h192v-64h-192zM0 -128v64h64v-64h-64zM64 0v64h128v-64h-128zM0 64v256h64v-256h-64zM64 320v64h128v-64h-128zM256 -128v192h-64v64h64v128h-64v64h64v64h64v-512h-64zM64 448v128h64v-64h64v64h64v-128h-192z" />
    <glyph glyph-name="Gdotaccent" unicode="&#x120;" 
d="M64 0v64h192v-64h-192zM256 64v128h-128v64h192v-192h-64zM0 64v384h64v-384h-64zM256 384v64h64v-64h-64zM64 448v64h192v-64h-192zM128 576v64h64v-64h-64z" />
    <glyph glyph-name="gdotaccent" unicode="&#x121;" 
d="M64 -192v64h192v-64h-192zM0 -128v64h64v-64h-64zM64 0v64h128v-64h-128zM0 64v256h64v-256h-64zM64 320v64h128v-64h-128zM256 -128v192h-64v64h64v128h-64v64h64v64h64v-512h-64zM128 448v64h64v-64h-64z" />
    <glyph glyph-name="Gcommaaccent" unicode="&#x122;" 
d="M128 -192v64h64v-64h-64zM192 -128v64h64v-64h-64zM128 -64v64h-64v64h192v-64h-64v-64h-64zM256 64v128h-128v64h192v-192h-64zM0 64v384h64v-384h-64zM256 384v64h64v-64h-64zM64 448v64h192v-64h-192z" />
    <glyph glyph-name="gcommaaccent" unicode="&#x123;" 
d="M64 -192v64h192v-64h-192zM0 -128v64h64v-64h-64zM64 0v64h128v-64h-128zM0 64v256h64v-256h-64zM64 320v64h128v-64h-128zM256 -128v192h-64v64h64v128h-64v64h64v64h64v-512h-64zM64 448v128h64v-128h-64zM128 576v64h64v-64h-64z" />
    <glyph glyph-name="Hcircumflex" unicode="&#x124;" 
d="M0 0v512h64v-192h192v192h64v-512h-64v256h-192v-256h-64zM64 576v64h64v-64h-64zM192 576v64h64v-64h-64zM128 640v64h64v-64h-64z" />
    <glyph glyph-name="hcircumflex" unicode="&#x125;" 
d="M256 0v320h64v-320h-64zM128 320v64h128v-64h-128zM0 0v512h64v-192h64v-64h-64v-256h-64zM128 448v64h64v-64h-64zM256 448v64h64v-64h-64zM192 512v64h64v-64h-64z" />
    <glyph glyph-name="Hbar" unicode="&#x126;" 
d="M256 320v64h-192v-64h192zM0 0v512h64v-64h192v64h64v-512h-64v256h-192v-256h-64z" />
    <glyph glyph-name="hbar" unicode="&#x127;" horiz-adv-x="448" 
d="M320 0v256h64v-256h-64zM192 256v64h128v-64h-128zM64 0v384h-64v64h64v64h64v-64h64v-64h-64v-128h64v-64h-64v-192h-64z" />
    <glyph glyph-name="Itilde" unicode="&#x128;" horiz-adv-x="320" 
d="M0 0v64h64v384h-64v64h192v-64h-64v-384h64v-64h-192zM0 576v64h64v-64h-64zM128 576v64h64v-64h-64zM64 640v64h64v-64h-64zM192 640v64h64v-64h-64z" />
    <glyph glyph-name="itilde" unicode="&#x129;" horiz-adv-x="320" 
d="M64 0v384h64v-384h-64zM0 448v64h64v-64h-64zM128 448v64h64v-64h-64zM64 512v64h64v-64h-64zM192 512v64h64v-64h-64z" />
    <glyph glyph-name="Imacron" unicode="&#x12a;" horiz-adv-x="256" 
d="M0 0v64h64v384h-64v64h192v-64h-64v-384h64v-64h-192zM0 576v64h192v-64h-192z" />
    <glyph glyph-name="imacron" unicode="&#x12b;" horiz-adv-x="256" 
d="M64 0v384h64v-384h-64zM0 448v64h192v-64h-192z" />
    <glyph glyph-name="Ibreve" unicode="&#x12c;" horiz-adv-x="256" 
d="M0 0v64h64v384h-64v64h192v-64h-64v-384h64v-64h-192zM0 576v128h64v-64h64v64h64v-128h-192z" />
    <glyph glyph-name="ibreve" unicode="&#x12d;" horiz-adv-x="256" 
d="M64 0v384h64v-384h-64zM0 448v128h64v-64h64v64h64v-128h-192z" />
    <glyph glyph-name="Iogonek" unicode="&#x12e;" horiz-adv-x="256" 
d="M64 -192v64h64v-64h-64zM0 -128v64h64v-64h-64zM64 -64v64h-64v64h64v384h-64v64h192v-64h-64v-384h64v-64h-64v-64h-64z" />
    <glyph glyph-name="iogonek" unicode="&#x12f;" horiz-adv-x="192" 
d="M64 -192v64h64v-64h-64zM0 -128v64h64v-64h-64zM64 -64v448h64v-448h-64zM64 448v64h64v-64h-64z" />
    <glyph glyph-name="Idotaccent" unicode="&#x130;" horiz-adv-x="128" 
d="M0 0v512h64v-512h-64zM0 576v64h64v-64h-64z" />
    <glyph glyph-name="dotlessi" unicode="&#x131;" horiz-adv-x="128" 
d="M0 0v384h64v-384h-64z" />
    <glyph glyph-name="IJ" unicode="&#x132;" horiz-adv-x="512" 
d="M256 0v64h128v-64h-128zM0 0v64h64v384h-64v64h192v-64h-64v-384h64v-64h-192zM384 64v448h64v-448h-64z" />
    <glyph glyph-name="ij" unicode="&#x133;" horiz-adv-x="320" 
d="M64 -64v64h128v-64h-128zM0 0v384h64v-384h-64zM192 0v384h64v-384h-64zM0 448v64h64v-64h-64zM192 448v64h64v-64h-64z" />
    <glyph glyph-name="Jcircumflex" unicode="&#x134;" horiz-adv-x="320" 
d="M0 0v64h128v-64h-128zM128 64v448h64v-448h-64zM64 576v64h64v-64h-64zM192 576v64h64v-64h-64zM128 640v64h64v-64h-64z" />
    <glyph glyph-name="jcircumflex" unicode="&#x135;" horiz-adv-x="192" 
d="M0 -128v64h64v-64h-64zM64 -64v448h64v-448h-64zM64 448v64h64v-64h-64z" />
    <glyph glyph-name="Kcommaaccent" unicode="&#x136;" 
d="M128 -192v64h64v-64h-64zM192 -128v64h64v-64h-64zM128 -64v64h64v-64h-64zM256 0v64h64v-64h-64zM192 64v64h64v-64h-64zM128 128v128h64v-128h-64zM128 320v64h64v-64h-64zM192 384v64h64v-64h-64zM0 0v512h64v-192h64v-64h-64v-256h-64zM256 448v64h64v-64h-64z" />
    <glyph glyph-name="kcommaaccent" unicode="&#x137;" horiz-adv-x="320" 
d="M64 -192v64h64v-64h-64zM128 -128v64h64v-64h-64zM64 -64v64h64v-64h-64zM192 0v64h64v-64h-64zM128 64v64h64v-64h-64zM128 192v64h64v-64h-64zM192 256v64h64v-64h-64zM0 0v512h64v-320h64v-64h-64v-128h-64z" />
    <glyph glyph-name="kgreenlandic" unicode="&#x138;" horiz-adv-x="320" 
d="M192 0v128h64v-128h-64zM128 128v64h64v-64h-64zM128 256v64h64v-64h-64zM0 0v384h64v-128h64v-64h-64v-192h-64zM192 320v64h64v-64h-64z" />
    <glyph glyph-name="Lacute" unicode="&#x139;" 
d="M128 384v64h64v-64h-64zM0 0v512h64v-448h256v-64h-320zM192 448v64h64v-64h-64z" />
    <glyph glyph-name="lacute" unicode="&#x13a;" horiz-adv-x="192" 
d="M0 0v512h64v-512h-64zM0 576v64h64v-64h-64zM64 640v64h64v-64h-64z" />
    <glyph glyph-name="Lcommaaccent" unicode="&#x13b;" 
d="M128 -192v64h64v-64h-64zM192 -128v64h64v-64h-64zM128 -64v64h-128v512h64v-448h256v-64h-128v-64h-64z" />
    <glyph glyph-name="lcommaaccent" unicode="&#x13c;" horiz-adv-x="192" 
d="M0 -192v64h64v-64h-64zM64 -128v64h64v-64h-64zM0 -64v576h64v-576h-64z" />
    <glyph glyph-name="Lcaron" unicode="&#x13d;" 
d="M128 320v64h64v-64h-64zM0 0v512h64v-448h256v-64h-320zM192 384v128h64v-128h-64z" />
    <glyph glyph-name="lcaron" unicode="&#x13e;" horiz-adv-x="320" 
d="M128 320v64h64v-64h-64zM0 0v512h64v-512h-64zM192 384v64h-64v64h128v-128h-64z" />
    <glyph glyph-name="Ldot" unicode="&#x13f;" 
d="M128 256v64h64v-64h-64zM0 0v512h64v-448h256v-64h-320z" />
    <glyph glyph-name="ldot" unicode="&#x140;" horiz-adv-x="256" 
d="M128 256v64h64v-64h-64zM0 0v512h64v-512h-64z" />
    <glyph glyph-name="Lslash" unicode="&#x141;" 
d="M64 0v192h-64v64h64v256h64v-128h64v-64h-64v-256h192v-64h-256z" />
    <glyph glyph-name="lslash" unicode="&#x142;" horiz-adv-x="256" 
d="M64 0v192h-64v64h64v256h64v-128h64v-64h-64v-320h-64z" />
    <glyph glyph-name="Nacute" unicode="&#x143;" horiz-adv-x="512" 
d="M256 64v128h64v-128h-64zM192 192v128h64v-128h-64zM128 320v128h64v-128h-64zM0 0v512h128v-64h-64v-448h-64zM320 0v64h64v448h64v-512h-128zM192 576v64h64v-64h-64zM256 640v64h64v-64h-64z" />
    <glyph glyph-name="nacute" unicode="&#x144;" 
d="M256 0v320h64v-320h-64zM0 0v384h64v-64h64v-64h-64v-256h-64zM128 320v64h128v-64h-128zM128 448v64h64v-64h-64zM192 512v64h64v-64h-64z" />
    <glyph glyph-name="Ncommaaccent" unicode="&#x145;" horiz-adv-x="512" 
d="M192 -192v64h64v-64h-64zM256 -128v64h64v-64h-64zM192 -64v64h64v-64h-64zM256 64v128h64v-128h-64zM192 192v128h64v-128h-64zM128 320v128h64v-128h-64zM0 0v512h128v-64h-64v-448h-64zM320 0v64h64v448h64v-512h-128z" />
    <glyph glyph-name="ncommaaccent" unicode="&#x146;" 
d="M128 -192v64h64v-64h-64zM192 -128v64h64v-64h-64zM128 -64v64h64v-64h-64zM256 0v320h64v-320h-64zM0 0v384h64v-64h64v-64h-64v-256h-64zM128 320v64h128v-64h-128z" />
    <glyph glyph-name="Ncaron" unicode="&#x147;" horiz-adv-x="512" 
d="M256 64v128h64v-128h-64zM192 192v128h64v-128h-64zM128 320v128h64v-128h-64zM0 0v512h128v-64h-64v-448h-64zM320 0v64h64v448h64v-512h-128zM192 576v64h64v-64h-64zM128 640v64h64v-64h-64zM256 640v64h64v-64h-64z" />
    <glyph glyph-name="ncaron" unicode="&#x148;" 
d="M256 0v320h64v-320h-64zM0 0v384h64v-64h64v-64h-64v-256h-64zM128 320v64h128v-64h-128zM128 448v64h64v-64h-64zM64 512v64h64v-64h-64zM192 512v64h64v-64h-64z" />
    <glyph glyph-name="napostrophe" unicode="&#x149;" horiz-adv-x="576" 
d="M448 0v320h64v-320h-64zM0 320v64h64v-64h-64zM192 0v384h64v-64h64v-64h-64v-256h-64zM320 320v64h128v-64h-128zM64 384v128h64v-128h-64z" />
    <glyph glyph-name="Eng" unicode="&#x14a;" horiz-adv-x="512" 
d="M256 -192v64h128v-64h-128zM256 64v128h64v-128h-64zM192 192v128h64v-128h-64zM128 320v128h64v-128h-64zM0 0v512h128v-64h-64v-448h-64zM384 -128v128h-64v64h64v448h64v-640h-64z" />
    <glyph glyph-name="eng" unicode="&#x14b;" 
d="M128 -64v64h128v-64h-128zM256 0v320h64v-320h-64zM0 0v384h64v-64h64v-64h-64v-256h-64zM128 320v64h128v-64h-128z" />
    <glyph glyph-name="Omacron" unicode="&#x14c;" horiz-adv-x="448" 
d="M64 0v64h256v-64h-256zM0 64v384h64v-384h-64zM320 64v384h64v-384h-64zM64 448v64h256v-64h-256zM64 576v64h256v-64h-256z" />
    <glyph glyph-name="omacron" unicode="&#x14d;" 
d="M64 0v64h192v-64h-192zM0 64v256h64v-256h-64zM256 64v256h64v-256h-64zM64 320v64h192v-64h-192zM64 448v64h192v-64h-192z" />
    <glyph glyph-name="Obreve" unicode="&#x14e;" horiz-adv-x="448" 
d="M64 0v64h256v-64h-256zM0 64v384h64v-384h-64zM320 64v384h64v-384h-64zM64 448v64h256v-64h-256zM64 576v128h64v-64h64v64h64v-128h-192z" />
    <glyph glyph-name="obreve" unicode="&#x14f;" 
d="M64 0v64h192v-64h-192zM0 64v256h64v-256h-64zM256 64v256h64v-256h-64zM64 320v64h192v-64h-192zM64 448v128h64v-64h64v64h64v-128h-192z" />
    <glyph glyph-name="Ohungarumlaut" unicode="&#x150;" 
d="M64 0v64h192v-64h-192zM0 64v384h64v-384h-64zM256 64v384h64v-384h-64zM64 448v64h192v-64h-192zM0 576v64h64v-64h-64zM192 576v64h64v-64h-64zM64 640v64h64v-64h-64zM256 640v64h64v-64h-64z" />
    <glyph glyph-name="ohungarumlaut" unicode="&#x151;" 
d="M0 64v256h64v-256h-64zM64 0v64h192v256h64v-320h-256zM64 320v64h192v-64h-192zM0 448v64h64v-64h-64zM192 448v64h64v-64h-64zM64 512v64h64v-64h-64zM256 512v64h64v-64h-64z" />
    <glyph glyph-name="OE" unicode="&#x152;" horiz-adv-x="640" 
d="M0 64v384h64v-384h-64zM64 0v64h192v384h-192v64h512v-64h-256v-128h128v-64h-128v-192h256v-64h-512z" />
    <glyph glyph-name="oe" unicode="&#x153;" horiz-adv-x="576" 
d="M64 0v64h128v-64h-128zM256 0v64h192v-64h-192zM448 64v64h64v-64h-64zM0 64v256h64v-256h-64zM192 64v256h64v-64h192v64h64v-128h-256v-128h-64zM64 320v64h128v-64h-128zM256 320v64h192v-64h-192z" />
    <glyph glyph-name="Racute" unicode="&#x154;" 
d="M256 0v64h64v-64h-64zM192 64v64h64v-64h-64zM128 128v64h64v-64h-64zM256 320v128h64v-128h-64zM0 0v512h256v-64h-192v-128h192v-64h-128v-64h-64v-192h-64zM128 576v64h64v-64h-64zM192 640v64h64v-64h-64z" />
    <glyph glyph-name="racute" unicode="&#x155;" 
d="M256 256v64h64v-64h-64zM0 0v384h64v-64h64v-64h-64v-256h-64zM128 320v64h128v-64h-128zM128 448v64h64v-64h-64zM192 512v64h64v-64h-64z" />
    <glyph glyph-name="Rcommaaccent" unicode="&#x156;" 
d="M128 -192v64h64v-64h-64zM192 -128v64h64v-64h-64zM128 -64v64h64v-64h-64zM256 0v64h64v-64h-64zM192 64v64h64v-64h-64zM128 128v64h64v-64h-64zM256 320v128h64v-128h-64zM0 0v512h256v-64h-192v-128h192v-64h-128v-64h-64v-192h-64z" />
    <glyph glyph-name="rcommaaccent" unicode="&#x157;" 
d="M0 -192v64h64v-64h-64zM64 -128v64h64v-64h-64zM256 256v64h64v-64h-64zM0 -64v448h64v-64h64v-64h-64v-320h-64zM128 320v64h128v-64h-128z" />
    <glyph glyph-name="Rcaron" unicode="&#x158;" 
d="M256 0v64h64v-64h-64zM192 64v64h64v-64h-64zM128 128v64h64v-64h-64zM256 320v128h64v-128h-64zM0 0v512h256v-64h-192v-128h192v-64h-128v-64h-64v-192h-64zM128 576v64h64v-64h-64zM64 640v64h64v-64h-64zM192 640v64h64v-64h-64z" />
    <glyph glyph-name="rcaron" unicode="&#x159;" 
d="M256 256v64h64v-64h-64zM0 0v384h64v-64h64v-64h-64v-256h-64zM128 320v64h128v-64h-128zM128 448v64h64v-64h-64zM64 512v64h64v-64h-64zM192 512v64h64v-64h-64z" />
    <glyph glyph-name="Sacute" unicode="&#x15a;" 
d="M64 0v64h192v-64h-192zM0 64v64h64v-64h-64zM256 64v192h64v-192h-64zM64 256v64h192v-64h-192zM0 320v128h64v-128h-64zM256 384v64h64v-64h-64zM64 448v64h192v-64h-192z" />
    <glyph glyph-name="sacute" unicode="&#x15b;" horiz-adv-x="320" 
d="M0 0v64h192v-64h-192zM192 64v128h64v-128h-64zM64 192v64h128v-64h-128zM0 256v64h64v-64h-64zM64 320v64h192v-64h-192zM64 448v64h64v-64h-64zM128 512v64h64v-64h-64z" />
    <glyph glyph-name="Scircumflex" unicode="&#x15c;" 
d="M64 0v64h192v-64h-192zM0 64v64h64v-64h-64zM256 64v192h64v-192h-64zM64 256v64h192v-64h-192zM0 320v128h64v-128h-64zM256 384v64h64v-64h-64zM64 448v64h192v-64h-192zM64 576v64h64v-64h-64zM192 576v64h64v-64h-64zM128 640v64h64v-64h-64z" />
    <glyph glyph-name="scircumflex" unicode="&#x15d;" horiz-adv-x="320" 
d="M64 0v64h128v-64h-128zM0 64v64h64v-64h-64zM192 64v128h64v-128h-64zM64 192v64h128v-64h-128zM0 256v64h64v-64h-64zM64 320v64h192v-64h-192zM64 448v64h64v-64h-64zM192 448v64h64v-64h-64zM128 512v64h64v-64h-64z" />
    <glyph glyph-name="Scedilla" unicode="&#x15e;" 
d="M64 0v64h192v-64h-192zM0 64v64h64v-64h-64zM256 64v192h64v-192h-64zM64 256v64h192v-64h-192zM0 320v128h64v-128h-64zM256 384v64h64v-64h-64zM64 448v64h192v-64h-192z" />
    <glyph glyph-name="scedilla" unicode="&#x15f;" horiz-adv-x="320" 
d="M64 -192v64h64v-64h-64zM128 -128v64h64v-64h-64zM64 -64v64h-64v64h192v-64h-64v-64h-64zM192 64v64h64v-64h-64zM64 128v64h128v-64h-128zM0 192v128h64v-128h-64zM192 256v64h64v-64h-64zM64 320v64h128v-64h-128z" />
    <glyph glyph-name="Scaron" unicode="&#x160;" 
d="M64 0v64h192v-64h-192zM0 64v64h64v-64h-64zM256 64v192h64v-192h-64zM64 256v64h192v-64h-192zM0 320v128h64v-128h-64zM256 384v64h64v-64h-64zM64 448v64h192v-64h-192zM128 576v64h64v-64h-64zM64 640v64h64v-64h-64zM192 640v64h64v-64h-64z" />
    <glyph glyph-name="scaron" unicode="&#x161;" 
d="M0 0v64h256v-64h-256zM256 64v64h64v-64h-64zM64 128v64h192v-64h-192zM0 192v128h64v-128h-64zM256 256v64h64v-64h-64zM64 320v64h192v-64h-192zM128 448v64h64v-64h-64zM64 512v64h64v-64h-64zM192 512v64h64v-64h-64z" />
    <glyph glyph-name="Tcommaaccent" unicode="&#x162;" 
d="M128 -192v64h64v-64h-64zM192 -128v64h64v-64h-64zM128 -64v512h-128v64h320v-64h-128v-512h-64z" />
    <glyph glyph-name="tcommaaccent" unicode="&#x163;" horiz-adv-x="320" 
d="M64 -192v64h64v-64h-64zM128 -128v64h64v-64h-64zM64 -64v64h64v-64h-64zM128 0v64h128v-64h-128zM64 64v256h-64v64h64v128h64v-128h64v-64h-64v-256h-64z" />
    <glyph glyph-name="Tcaron" unicode="&#x164;" 
d="M128 0v448h-128v64h320v-64h-128v-448h-64zM128 576v64h64v-64h-64zM64 640v64h64v-64h-64zM192 640v64h64v-64h-64z" />
    <glyph glyph-name="tcaron" unicode="&#x165;" 
d="M128 0v64h128v-64h-128zM64 64v256h-64v64h64v128h64v-128h64v-64h-64v-256h-64zM192 448v64h64v-64h-64zM256 512v128h64v-128h-64z" />
    <glyph glyph-name="Tbar" unicode="&#x166;" horiz-adv-x="512" 
d="M192 0v256h-128v64h128v128h-192v64h448v-64h-192v-128h128v-64h-128v-256h-64z" />
    <glyph glyph-name="tbar" unicode="&#x167;" horiz-adv-x="320" 
d="M128 0v64h128v-64h-128zM64 64v128h-64v64h64v64h-64v64h64v128h64v-128h64v-64h-64v-64h64v-64h-64v-128h-64z" />
    <glyph glyph-name="Utilde" unicode="&#x168;" horiz-adv-x="448" 
d="M64 0v64h256v-64h-256zM0 64v448h64v-448h-64zM320 64v448h64v-448h-64zM64 576v64h64v-64h-64zM192 576v64h64v-64h-64zM128 640v64h64v-64h-64zM256 640v64h64v-64h-64z" />
    <glyph glyph-name="utilde" unicode="&#x169;" 
d="M64 0v64h128v-64h-128zM0 64v320h64v-320h-64zM256 0v64h-64v64h64v256h64v-384h-64z" />
    <glyph glyph-name="Umacron" unicode="&#x16a;" horiz-adv-x="448" 
d="M64 0v64h256v-64h-256zM0 64v448h64v-448h-64zM320 64v448h64v-448h-64zM64 576v64h256v-64h-256z" />
    <glyph glyph-name="umacron" unicode="&#x16b;" 
d="M64 0v64h128v-64h-128zM0 64v320h64v-320h-64zM256 0v64h-64v64h64v256h64v-384h-64zM64 448v64h192v-64h-192z" />
    <glyph glyph-name="Ubreve" unicode="&#x16c;" 
d="M64 0v64h192v-64h-192zM0 64v448h64v-448h-64zM256 64v448h64v-448h-64zM64 576v128h64v-64h64v64h64v-128h-192z" />
    <glyph glyph-name="ubreve" unicode="&#x16d;" 
d="M64 0v64h128v-64h-128zM0 64v320h64v-320h-64zM256 0v64h-64v64h64v256h64v-384h-64zM64 448v128h64v-64h64v64h64v-128h-192z" />
    <glyph glyph-name="Uring" unicode="&#x16e;" 
d="M64 0v64h192v-64h-192zM0 64v448h64v-448h-64zM256 64v448h64v-448h-64zM128 512v64h64v-64h-64zM64 576v64h64v-64h-64zM192 576v64h64v-64h-64zM128 640v64h64v-64h-64z" />
    <glyph glyph-name="uring" unicode="&#x16f;" 
d="M64 0v64h128v-64h-128zM0 64v320h64v-320h-64zM256 0v64h-64v64h64v256h64v-384h-64zM128 448v64h64v-64h-64zM64 512v64h64v-64h-64zM192 512v64h64v-64h-64zM128 576v64h64v-64h-64z" />
    <glyph glyph-name="Uhungarumlaut" unicode="&#x170;" horiz-adv-x="448" 
d="M64 0v64h256v-64h-256zM0 64v448h64v-448h-64zM320 64v448h64v-448h-64zM64 576v64h64v-64h-64zM256 576v64h64v-64h-64zM128 640v64h64v-64h-64zM320 640v64h64v-64h-64z" />
    <glyph glyph-name="uhungarumlaut" unicode="&#x171;" 
d="M64 0v64h128v-64h-128zM0 64v320h64v-320h-64zM256 0v64h-64v64h64v256h64v-384h-64zM0 448v64h64v-64h-64zM192 448v64h64v-64h-64zM64 512v64h64v-64h-64zM256 512v64h64v-64h-64z" />
    <glyph glyph-name="Uogonek" unicode="&#x172;" horiz-adv-x="448" 
d="M128 -192v64h128v-64h-128zM64 -128v64h64v-64h-64zM128 -64v64h-64v64h256v-64h-128v-64h-64zM0 64v448h64v-448h-64zM320 64v448h64v-448h-64z" />
    <glyph glyph-name="uogonek" unicode="&#x173;" horiz-adv-x="448" 
d="M320 -192v64h64v-64h-64zM256 -128v64h64v-64h-64zM64 0v64h192v-64h-192zM0 64v320h64v-320h-64zM320 -64v128h-64v64h64v256h64v-448h-64z" />
    <glyph glyph-name="Wcircumflex" unicode="&#x174;" horiz-adv-x="640" 
d="M128 0v128h64v-128h-64zM384 0v128h64v-128h-64zM64 128v128h64v-128h-64zM192 128v128h64v-128h-64zM320 128v128h64v-128h-64zM448 128v128h64v-128h-64zM0 256v256h64v-256h-64zM256 256v256h64v-256h-64zM512 256v256h64v-256h-64zM192 576v64h64v-64h-64zM320 576
v64h64v-64h-64zM256 640v64h64v-64h-64z" />
    <glyph glyph-name="wcircumflex" unicode="&#x175;" horiz-adv-x="640" 
d="M128 0v64h64v-64h-64zM384 0v64h64v-64h-64zM64 64v128h64v-128h-64zM192 64v128h64v-128h-64zM320 64v128h64v-128h-64zM448 64v128h64v-128h-64zM0 192v128h64v-128h-64zM256 192v128h64v-128h-64zM512 192v128h64v-128h-64zM192 384v64h64v-64h-64zM320 384v64h64v-64
h-64zM256 448v64h64v-64h-64z" />
    <glyph glyph-name="Ycircumflex" unicode="&#x176;" 
d="M128 0v384h64v-384h-64zM64 384v64h64v-64h-64zM192 384v64h64v-64h-64zM0 448v64h64v-64h-64zM256 448v64h64v-64h-64zM64 576v64h64v-64h-64zM192 576v64h64v-64h-64zM128 640v64h64v-64h-64z" />
    <glyph glyph-name="ycircumflex" unicode="&#x177;" 
d="M64 -192v64h192v-64h-192zM0 -128v64h64v-64h-64zM64 0v64h128v-64h-128zM0 64v320h64v-320h-64zM256 -128v192h-64v64h64v256h64v-512h-64zM64 448v64h64v-64h-64zM192 448v64h64v-64h-64zM128 512v64h64v-64h-64z" />
    <glyph glyph-name="Ydieresis" unicode="&#x178;" 
d="M128 0v320h64v-320h-64zM64 320v64h64v-64h-64zM192 320v64h64v-64h-64zM0 384v128h64v-128h-64zM256 384v128h64v-128h-64zM64 576v64h64v-64h-64zM192 576v64h64v-64h-64z" />
    <glyph glyph-name="Zacute" unicode="&#x179;" horiz-adv-x="448" 
d="M0 0v64h64v64h64v-64h256v-64h-384zM128 128v64h64v-64h-64zM192 192v128h64v-128h-64zM256 320v64h64v-64h-64zM320 384v64h-320v64h384v-128h-64zM128 576v64h64v-64h-64zM192 640v64h64v-64h-64z" />
    <glyph glyph-name="zacute" unicode="&#x17a;" horiz-adv-x="320" 
d="M0 0v128h64v-64h192v-64h-256zM64 128v64h64v-64h-64zM128 192v64h64v-64h-64zM192 256v64h-192v64h256v-128h-64zM64 448v64h64v-64h-64zM128 512v64h64v-64h-64z" />
    <glyph glyph-name="Zdotaccent" unicode="&#x17b;" horiz-adv-x="448" 
d="M0 0v128h64v-64h320v-64h-384zM64 128v64h64v-64h-64zM128 192v64h64v-64h-64zM192 256v64h64v-64h-64zM256 320v64h64v-64h-64zM320 384v64h-320v64h384v-128h-64zM192 576v64h64v-64h-64z" />
    <glyph glyph-name="zdotaccent" unicode="&#x17c;" 
d="M0 0v64h64v64h64v-64h192v-64h-320zM128 128v64h64v-64h-64zM192 192v64h64v-64h-64zM256 256v64h-256v64h320v-128h-64zM128 448v64h64v-64h-64z" />
    <glyph glyph-name="Zcaron" unicode="&#x17d;" horiz-adv-x="448" 
d="M0 0v128h64v-64h320v-64h-384zM64 128v64h64v-64h-64zM128 192v64h64v-64h-64zM192 256v64h64v-64h-64zM256 320v64h64v-64h-64zM320 384v64h-320v64h384v-128h-64zM128 576v64h64v-64h-64zM64 640v64h64v-64h-64zM192 640v64h64v-64h-64z" />
    <glyph glyph-name="zcaron" unicode="&#x17e;" 
d="M0 0v64h64v64h64v-64h192v-64h-320zM128 128v64h64v-64h-64zM192 192v64h64v-64h-64zM256 256v64h-256v64h320v-128h-64zM128 448v64h64v-64h-64zM64 512v64h64v-64h-64zM192 512v64h64v-64h-64z" />
    <glyph glyph-name="longs" unicode="&#x17f;" horiz-adv-x="320" 
d="M64 0v320h-64v64h64v64h64v-448h-64zM128 448v64h128v-64h-128z" />
    <glyph glyph-name="uni0180" unicode="&#x180;" horiz-adv-x="448" 
d="M192 0v64h128v-64h-128zM320 64v256h64v-256h-64zM192 320v64h128v-64h-128zM64 0v384h-64v64h64v64h128v-64h-64v-128h64v-64h-64v-128h64v-64h-64v-64h-64z" />
    <glyph glyph-name="uni0181" unicode="&#x181;" horiz-adv-x="576" 
d="M448 64v128h64v-128h-64zM0 320v128h64v-128h-64zM448 256v192h64v-192h-64zM128 0v448h-64v64h384v-64h-256v-192h256v-64h-256v-128h256v-64h-320z" />
    <glyph glyph-name="uni0182" unicode="&#x182;" 
d="M256 64v192h64v-192h-64zM0 0v512h320v-64h-256v-128h192v-64h-192v-192h192v-64h-256z" />
    <glyph glyph-name="uni0183" unicode="&#x183;" 
d="M128 0v64h128v-64h-128zM256 64v192h64v-192h-64zM128 256v64h128v-64h-128zM0 0v512h320v-64h-256v-192h64v-64h-64v-64h64v-64h-64v-64h-64z" />
    <glyph glyph-name="uni0184" unicode="&#x184;" horiz-adv-x="448" 
d="M320 64v192h64v-192h-64zM0 0v512h64v-192h256v-64h-256v-192h256v-64h-320z" />
    <glyph glyph-name="uni0185" unicode="&#x185;" horiz-adv-x="320" 
d="M192 64v128h64v-128h-64zM0 0v384h64v-128h128v-64h-128v-128h128v-64h-192z" />
    <glyph glyph-name="uni0186" unicode="&#x186;" horiz-adv-x="512" 
d="M64 0v64h320v-64h-320zM0 64v64h64v-64h-64zM0 384v64h64v-64h-64zM384 64v384h64v-384h-64zM64 448v64h320v-64h-320z" />
    <glyph glyph-name="uni0187" unicode="&#x187;" horiz-adv-x="448" 
d="M64 0v64h256v-64h-256zM320 64v64h64v-64h-64zM0 64v384h64v-384h-64zM64 448v64h192v-64h-192zM320 320v64h-64v64h64v64h64v-192h-64z" />
    <glyph glyph-name="uni0188" unicode="&#x188;" horiz-adv-x="448" 
d="M64 0v64h192v-64h-192zM256 64v64h64v-64h-64zM0 64v256h64v-256h-64zM256 256v64h-192v64h192v64h64v-192h-64zM320 448v64h64v-64h-64z" />
    <glyph glyph-name="uni0189" unicode="&#x189;" horiz-adv-x="448" 
d="M320 64v384h64v-384h-64zM64 0v256h-64v64h64v192h256v-64h-192v-128h128v-64h-128v-192h192v-64h-256z" />
    <glyph glyph-name="uni018A" unicode="&#x18a;" horiz-adv-x="512" 
d="M0 320v128h64v-128h-64zM384 64v384h64v-384h-64zM128 0v448h-64v64h320v-64h-192v-384h192v-64h-256z" />
    <glyph glyph-name="uni018B" unicode="&#x18b;" 
d="M0 64v128h64v-128h-64zM64 0v64h192v128h-192v64h192v192h-256v64h320v-512h-256z" />
    <glyph glyph-name="uni018C" unicode="&#x18c;" 
d="M64 0v64h128v-64h-128zM0 64v192h64v-192h-64zM64 256v64h128v-64h-128zM256 0v64h-64v64h64v64h-64v64h64v192h-256v64h320v-512h-64z" />
    <glyph glyph-name="uni018D" unicode="&#x18d;" 
d="M64 0v64h192v-64h-192zM0 64v64h64v-64h-64zM256 64v64h-64v64h128v-128h-64zM128 192v64h-64v64h192v-64h-64v-64h-64zM0 320v128h64v-128h-64zM256 320v128h64v-128h-64zM64 448v64h192v-64h-192z" />
    <glyph glyph-name="uni018E" unicode="&#x18e;" 
d="M0 0v64h256v192h-192v64h192v128h-256v64h320v-512h-320z" />
    <glyph glyph-name="uni018F" unicode="&#x18f;" horiz-adv-x="448" 
d="M64 0v64h192v-64h-192zM256 64v64h64v-64h-64zM0 64v128h64v-128h-64zM0 384v64h64v-64h-64zM320 128v64h-256v64h256v192h64v-320h-64zM64 448v64h256v-64h-256z" />
    <glyph glyph-name="uni0190" unicode="&#x190;" 
d="M64 0v64h192v-64h-192zM256 64v64h64v-64h-64zM0 64v128h64v-128h-64zM64 192v64h128v-64h-128zM0 256v192h64v-192h-64zM256 384v64h64v-64h-64zM64 448v64h192v-64h-192z" />
    <glyph glyph-name="uni0191" unicode="&#x191;" horiz-adv-x="448" 
d="M0 -64v64h64v-64h-64zM64 0v512h320v-64h-256v-128h128v-64h-128v-256h-64z" />
    <glyph glyph-name="florin" unicode="&#x192;" horiz-adv-x="576" 
d="M0 -64v64h128v-64h-128zM128 0v128h64v-128h-64zM192 128v64h64v-64h-64zM256 192v64h-128v64h192v64h64v-64h64v-64h-128v-64h-64zM384 384v64h64v-64h-64zM448 448v64h64v-64h-64z" />
    <glyph glyph-name="uni0193" unicode="&#x193;" horiz-adv-x="448" 
d="M64 0v64h256v-64h-256zM320 64v128h-64v64h128v-192h-64zM128 256v64h128v-64h-128zM0 64v384h64v-384h-64zM64 448v64h192v-64h-192zM320 320v64h-64v64h64v64h64v-192h-64z" />
    <glyph glyph-name="uni0194" unicode="&#x194;" horiz-adv-x="640" 
d="M256 -64v64h64v-64h-64zM192 0v64h64v-64h-64zM320 0v64h64v-64h-64zM256 64v64h64v-64h-64zM192 128v128h64v-128h-64zM320 128v128h64v-128h-64zM128 256v64h64v-64h-64zM384 256v64h64v-64h-64zM64 320v128h64v-128h-64zM448 320v128h64v-128h-64zM0 448v64h64v-64
h-64zM512 448v64h64v-64h-64z" />
    <glyph glyph-name="uni0195" unicode="&#x195;" horiz-adv-x="640" 
d="M320 0v64h128v-64h-128zM448 64v64h64v-64h-64zM256 64v256h64v-256h-64zM128 320v64h128v-64h-128zM512 128v256h64v-256h-64zM0 0v512h64v-192h64v-64h-64v-256h-64z" />
    <glyph glyph-name="uni0196" unicode="&#x196;" horiz-adv-x="192" 
d="M64 0v64h64v-64h-64zM0 64v448h64v-448h-64z" />
    <glyph glyph-name="uni0197" unicode="&#x197;" horiz-adv-x="256" 
d="M64 0v256h-64v64h64v192h64v-192h64v-64h-64v-256h-64z" />
    <glyph glyph-name="uni0198" unicode="&#x198;" horiz-adv-x="512" 
d="M384 0v64h64v-64h-64zM320 64v64h64v-64h-64zM192 128v64h128v-64h-128zM128 192v64h64v-64h-64zM128 320v64h64v-64h-64zM192 384v64h64v-64h-64zM0 0v512h64v-192h64v-64h-64v-256h-64zM256 448v64h192v-64h-192z" />
    <glyph glyph-name="uni0199" unicode="&#x199;" horiz-adv-x="320" 
d="M192 0v64h64v-64h-64zM128 64v64h64v-64h-64zM128 192v64h64v-64h-64zM192 256v64h64v-64h-64zM0 0v448h64v-256h64v-64h-64v-128h-64zM64 448v64h192v-64h-192z" />
    <glyph glyph-name="uni019A" unicode="&#x19a;" horiz-adv-x="256" 
d="M64 0v256h-64v64h64v192h64v-192h64v-64h-64v-256h-64z" />
    <glyph glyph-name="uni019B" unicode="&#x19b;" horiz-adv-x="448" 
d="M0 0v64h64v-64h-64zM64 64v64h64v-64h-64zM320 0v128h64v-128h-64zM128 128v64h64v-64h-64zM0 256v64h64v-64h-64zM256 128v64h-64v128h64v-64h64v-128h-64zM64 320v64h64v64h128v-64h-64v-64h-128zM0 448v64h128v-64h-128zM256 448v64h64v-64h-64z" />
    <glyph glyph-name="uni019C" unicode="&#x19c;" horiz-adv-x="512" 
d="M64 0v64h128v-64h-128zM256 0v64h64v-64h-64zM0 64v448h64v-448h-64zM192 64v448h64v-448h-64zM384 0v64h-64v64h64v384h64v-512h-64z" />
    <glyph glyph-name="uni019D" unicode="&#x19d;" horiz-adv-x="640" 
d="M0 -64v64h128v-64h-128zM384 64v128h64v-128h-64zM320 192v64h64v-64h-64zM256 256v128h64v-128h-64zM128 0v512h64v-64h64v-64h-64v-384h-64zM448 0v64h64v448h64v-512h-128z" />
    <glyph glyph-name="uni019E" unicode="&#x19e;" 
d="M256 -128v384h64v-384h-64zM0 0v320h64v-64h64v-64h-64v-192h-64zM128 256v64h128v-64h-128z" />
    <glyph glyph-name="uni019F" unicode="&#x19f;" horiz-adv-x="448" 
d="M64 0v64h256v-64h-256zM192 192v64h64v-64h-64zM128 256v64h64v-64h-64zM0 64v384h64v-192h64v-64h-64v-128h-64zM320 64v192h-64v64h64v128h64v-384h-64zM64 448v64h256v-64h-256z" />
    <glyph glyph-name="Ohorn" unicode="&#x1a0;" horiz-adv-x="576" 
d="M64 0v64h256v-64h-256zM0 64v384h64v-384h-64zM320 64v384h128v-64h-64v-320h-64zM64 448v64h256v-64h-256zM448 448v128h64v-128h-64z" />
    <glyph glyph-name="ohorn" unicode="&#x1a1;" horiz-adv-x="448" 
d="M64 0v64h192v-64h-192zM0 64v192h64v-192h-64zM256 64v192h64v-192h-64zM64 256v64h192v-64h-192zM320 256v128h64v-128h-64z" />
    <glyph glyph-name="uni01A2" unicode="&#x1a2;" horiz-adv-x="704" 
d="M64 0v64h320v-64h-320zM0 64v384h64v-384h-64zM576 -64v512h64v-512h-64zM384 64v384h-320v64h512v-64h-128v-384h-64z" />
    <glyph glyph-name="uni01A3" unicode="&#x1a3;" horiz-adv-x="512" 
d="M64 0v64h192v-64h-192zM0 64v192h64v-192h-64zM384 -64v320h64v-320h-64zM256 64v192h-192v64h320v-64h-64v-192h-64z" />
    <glyph glyph-name="uni01A4" unicode="&#x1a4;" horiz-adv-x="512" 
d="M0 320v128h64v-128h-64zM384 320v128h64v-128h-64zM128 0v448h-64v64h320v-64h-192v-128h192v-64h-192v-256h-64z" />
    <glyph glyph-name="uni01A5" unicode="&#x1a5;" 
d="M128 0v64h128v-64h-128zM256 64v192h64v-192h-64zM128 256v64h128v-64h-128zM0 -64v512h64v-192h64v-64h-64v-64h64v-64h-64v-128h-64zM64 448v64h256v-64h-256z" />
    <glyph glyph-name="uni01A6" unicode="&#x1a6;" 
d="M256 -64v128h64v-128h-64zM192 64v64h64v-64h-64zM128 128v64h64v-64h-64zM256 320v64h64v-64h-64zM0 0v512h64v-64h192v-64h-192v-64h192v-64h-128v-64h-64v-192h-64z" />
    <glyph glyph-name="uni01A7" unicode="&#x1a7;" 
d="M64 0v64h192v-64h-192zM0 64v192h64v-192h-64zM64 256v64h192v-64h-192zM256 320v128h64v-128h-64zM64 448v64h192v-64h-192z" />
    <glyph glyph-name="uni01A8" unicode="&#x1a8;" horiz-adv-x="256" 
d="M64 0v64h128v-64h-128zM0 64v64h64v-64h-64zM64 128v64h64v-64h-64zM128 192v64h64v-64h-64zM0 256v64h128v-64h-128z" />
    <glyph glyph-name="uni01A9" unicode="&#x1a9;" 
d="M0 0v128h64v-64h256v-64h-320zM64 128v64h64v-64h-64zM128 192v64h64v-64h-64zM64 256v64h64v-64h-64zM0 320v192h320v-64h-256v-128h-64z" />
    <glyph glyph-name="uni01AA" unicode="&#x1aa;" horiz-adv-x="320" 
d="M192 -64v64h64v-64h-64zM0 384v64h64v-64h-64zM128 0v320h-64v64h64v64h64v-448h-64zM64 448v64h64v-64h-64z" />
    <glyph glyph-name="uni01AB" unicode="&#x1ab;" horiz-adv-x="256" 
d="M64 -64v64h64v-64h-64zM128 0v64h64v-64h-64zM64 64v256h-64v64h64v128h64v-128h64v-64h-64v-256h-64z" />
    <glyph glyph-name="uni01AC" unicode="&#x1ac;" horiz-adv-x="512" 
d="M0 320v128h64v-128h-64zM192 0v448h-128v64h384v-64h-192v-448h-64z" />
    <glyph glyph-name="uni01AD" unicode="&#x1ad;" horiz-adv-x="320" 
d="M128 0v64h128v-64h-128zM64 64v256h-64v64h64v64h64v-64h64v-64h-64v-256h-64zM128 448v64h128v-64h-128z" />
    <glyph glyph-name="uni01AE" unicode="&#x1ae;" horiz-adv-x="448" 
d="M192 -64v64h64v-64h-64zM128 0v448h-128v64h384v-64h-192v-448h-64z" />
    <glyph glyph-name="Uhorn" unicode="&#x1af;" horiz-adv-x="448" 
d="M64 0v64h192v-64h-192zM0 64v448h64v-448h-64zM256 64v448h64v64h64v-128h-64v-384h-64z" />
    <glyph glyph-name="uhorn" unicode="&#x1b0;" horiz-adv-x="512" 
d="M64 0v64h128v-64h-128zM0 64v256h64v-256h-64zM256 0v64h-64v64h64v192h128v64h64v-128h-128v-256h-64z" />
    <glyph glyph-name="uni01B1" unicode="&#x1b1;" horiz-adv-x="704" 
d="M192 0v64h256v-64h-256zM128 64v64h64v-64h-64zM448 64v64h64v-64h-64zM64 128v256h64v-256h-64zM512 128v256h64v-256h-64zM128 384v64h-128v64h256v-64h-64v-64h-64zM448 384v64h-64v64h256v-64h-128v-64h-64z" />
    <glyph glyph-name="uni01B2" unicode="&#x1b2;" horiz-adv-x="448" 
d="M128 0v64h192v-64h-192zM64 64v64h64v-64h-64zM320 64v384h64v-384h-64zM0 128v384h64v-384h-64zM256 448v64h64v-64h-64z" />
    <glyph glyph-name="uni01B3" unicode="&#x1b3;" horiz-adv-x="512" 
d="M256 0v384h64v-384h-64zM0 384v64h64v-64h-64zM192 384v64h64v-64h-64zM320 384v64h64v-64h-64zM64 448v64h128v-64h-128zM384 448v64h64v-64h-64z" />
    <glyph glyph-name="uni01B4" unicode="&#x1b4;" 
d="M0 -128v64h256v-64h-256zM64 0v64h128v-64h-128zM0 64v320h64v-320h-64zM256 -64v128h-64v64h64v384h64v-576h-64z" />
    <glyph glyph-name="uni01B5" unicode="&#x1b5;" horiz-adv-x="448" 
d="M0 0v128h64v-64h320v-64h-384zM64 128v64h64v-64h-64zM128 192v64h-128v64h256v64h64v-64h64v-64h-192v-64h-64zM320 384v64h-320v64h384v-128h-64z" />
    <glyph glyph-name="uni01B6" unicode="&#x1b6;" 
d="M0 0v64h64v64h-64v64h192v64h-192v64h320v-64h-64v-64h64v-64h-192v-64h192v-64h-320z" />
    <glyph glyph-name="uni01B7" unicode="&#x1b7;" 
d="M0 0v64h256v-64h-256zM256 64v128h64v-128h-64zM0 192v64h64v64h64v-64h128v-64h-256zM128 320v64h64v-64h-64zM192 384v64h-192v64h320v-64h-64v-64h-64z" />
    <glyph glyph-name="uni01B8" unicode="&#x1b8;" 
d="M64 0v64h256v-64h-256zM0 64v128h64v-128h-64zM64 192v64h64v-64h-64zM128 256v64h192v-64h-192zM64 320v64h64v-64h-64zM0 384v128h320v-64h-256v-64h-64z" />
    <glyph glyph-name="uni01B9" unicode="&#x1b9;" 
d="M64 -192v64h256v-64h-256zM0 -128v192h64v-192h-64zM64 64v64h64v-64h-64zM128 0v64h128v64h64v-128h-192zM192 128v64h64v-64h-64zM128 192v64h64v-64h-64zM64 256v64h-64v64h320v-64h-192v-64h-64z" />
    <glyph glyph-name="uni01BA" unicode="&#x1ba;" 
d="M64 -128v64h256v-64h-256zM0 -64v64h64v-64h-64zM64 0v64h192v-64h-192zM256 64v64h64v-64h-64zM192 128v64h64v-64h-64zM64 192v64h128v-64h-128zM192 256v64h-192v64h320v-64h-64v-64h-64z" />
    <glyph glyph-name="uni01BB" unicode="&#x1bb;" horiz-adv-x="448" 
d="M0 0v64h64v64h64v-64h256v-64h-384zM128 128v64h-128v64h256v64h64v-64h64v-64h-192v-64h-64zM0 384v64h64v-64h-64zM320 320v128h64v-128h-64zM64 448v64h256v-64h-256z" />
    <glyph glyph-name="uni01BC" unicode="&#x1bc;" 
d="M64 0v64h192v-64h-192zM0 64v64h64v-64h-64zM256 64v192h64v-192h-64zM128 256v64h128v-64h-128zM0 192v320h320v-64h-256v-192h64v-64h-128z" />
    <glyph glyph-name="uni01BD" unicode="&#x1bd;" horiz-adv-x="320" 
d="M64 0v64h128v-64h-128zM0 64v64h64v-64h-64zM192 64v128h64v-128h-64zM0 192v192h256v-64h-192v-64h128v-64h-192z" />
    <glyph glyph-name="uni01BE" unicode="&#x1be;" 
d="M64 0v64h192v-64h-192zM0 64v64h64v-64h-64zM256 64v192h64v-192h-64zM128 256v64h128v-64h-128zM64 320v64h-64v64h64v64h64v-64h192v-64h-192v-64h-64z" />
    <glyph glyph-name="uni01BF" unicode="&#x1bf;" horiz-adv-x="448" 
d="M192 64v64h64v-64h-64zM256 128v64h64v-64h-64zM128 256v64h64v-64h-64zM320 192v128h64v-128h-64zM0 -128v512h64v-128h64v-64h-64v-128h128v-64h-128v-128h-64zM192 320v64h128v-64h-128z" />
    <glyph glyph-name="uni01C0" unicode="&#x1c0;" horiz-adv-x="128" 
d="M0 0v512h64v-512h-64z" />
    <glyph glyph-name="uni01C1" unicode="&#x1c1;" horiz-adv-x="256" 
d="M0 0v512h64v-512h-64zM128 0v512h64v-512h-64z" />
    <glyph glyph-name="uni01C2" unicode="&#x1c2;" 
d="M128 0v128h-128v64h128v128h-128v64h128v128h64v-128h128v-64h-128v-128h128v-64h-128v-128h-64z" />
    <glyph glyph-name="uni01C3" unicode="&#x1c3;" horiz-adv-x="128" 
d="M0 0v64h64v-64h-64zM0 128v384h64v-384h-64z" />
    <glyph glyph-name="uni01C4" unicode="&#x1c4;" horiz-adv-x="704" 
d="M320 0v64h64v128h64v-128h192v-64h-320zM448 192v64h64v-64h-64zM512 256v128h64v-128h-64zM256 64v384h64v-384h-64zM0 0v512h256v-64h-192v-384h192v-64h-256zM576 384v64h-256v64h128v64h64v-64h128v-128h-64zM384 576v64h64v-64h-64zM512 576v64h64v-64h-64z" />
    <glyph glyph-name="uni01C5" unicode="&#x1c5;" horiz-adv-x="704" 
d="M320 0v64h64v64h64v-64h192v-64h-320zM448 128v64h64v-64h-64zM512 192v64h64v-64h-64zM256 64v384h64v-64h128v64h64v-64h128v-128h-64v64h-256v-256h-64zM0 0v512h256v-64h-192v-384h192v-64h-256zM384 448v64h64v-64h-64zM512 448v64h64v-64h-64z" />
    <glyph glyph-name="uni01C6" unicode="&#x1c6;" horiz-adv-x="640" 
d="M64 0v64h128v-64h-128zM448 128v64h64v-64h-64zM0 64v192h64v-192h-64zM256 0v64h-64v64h64v128h-192v64h192v192h64v-192h256v-128h-64v64h-192v-192h64v64h64v-64h128v-64h-320z" />
    <glyph glyph-name="uni01C7" unicode="&#x1c7;" horiz-adv-x="512" 
d="M256 -64v64h128v-64h-128zM0 0v512h64v-448h192v-64h-256zM384 0v512h64v-512h-64z" />
    <glyph glyph-name="uni01C8" unicode="&#x1c8;" horiz-adv-x="448" 
d="M320 0v384h64v-384h-64zM192 -64v64h-192v512h64v-448h192v-64h64v-64h-128zM320 448v64h64v-64h-64z" />
    <glyph glyph-name="uni01C9" unicode="&#x1c9;" horiz-adv-x="320" 
d="M64 -64v64h128v-64h-128zM192 0v384h64v-384h-64zM0 0v512h64v-512h-64zM192 448v64h64v-64h-64z" />
    <glyph glyph-name="uni01CA" unicode="&#x1ca;" horiz-adv-x="704" 
d="M448 -64v64h128v-64h-128zM256 64v128h64v-128h-64zM192 192v64h64v-64h-64zM128 256v128h64v-128h-64zM0 0v512h64v-64h64v-64h-64v-384h-64zM320 0v64h64v448h64v-512h-128zM576 0v512h64v-512h-64z" />
    <glyph glyph-name="uni01CB" unicode="&#x1cb;" horiz-adv-x="576" 
d="M192 128v128h64v-128h-64zM448 0v320h64v-320h-64zM128 256v128h64v-128h-64zM448 384v64h64v-64h-64zM0 0v512h64v-64h64v-64h-64v-384h-64zM320 -64v128h-64v64h64v384h64v-512h64v-64h-128z" />
    <glyph glyph-name="uni01CC" unicode="&#x1cc;" horiz-adv-x="576" 
d="M320 -64v64h128v-64h-128zM256 0v320h64v-320h-64zM0 0v384h64v-64h64v-64h-64v-256h-64zM128 320v64h128v-64h-128zM448 0v384h64v-384h-64zM448 448v64h64v-64h-64z" />
    <glyph glyph-name="uni01CD" unicode="&#x1cd;" 
d="M0 0v384h64v-128h192v128h64v-384h-64v192h-192v-192h-64zM64 384v64h64v-64h-64zM192 384v64h64v-64h-64zM128 448v64h64v-64h-64zM64 512v64h64v-64h-64zM192 512v64h64v-64h-64z" />
    <glyph glyph-name="uni01CE" unicode="&#x1ce;" horiz-adv-x="448" 
d="M64 0v64h192v-64h-192zM320 0v64h64v-64h-64zM0 64v64h64v-64h-64zM0 256v64h64v-64h-64zM256 64v64h-192v64h192v128h64v-256h-64zM64 320v64h192v-64h-192z" />
    <glyph glyph-name="uni01CF" unicode="&#x1cf;" horiz-adv-x="256" 
d="M64 0v512h64v-512h-64zM64 576v64h64v-64h-64zM0 640v64h64v-64h-64zM128 640v64h64v-64h-64z" />
    <glyph glyph-name="uni01D0" unicode="&#x1d0;" horiz-adv-x="256" 
d="M64 0v384h64v-384h-64zM64 448v64h64v-64h-64zM0 512v64h64v-64h-64zM128 512v64h64v-64h-64z" />
    <glyph glyph-name="uni01D1" unicode="&#x1d1;" 
d="M64 0v64h192v-64h-192zM0 64v384h64v-384h-64zM256 64v384h64v-384h-64zM64 448v64h192v-64h-192zM128 576v64h64v-64h-64zM64 640v64h64v-64h-64zM192 640v64h64v-64h-64z" />
    <glyph glyph-name="uni01D2" unicode="&#x1d2;" 
d="M64 0v64h192v-64h-192zM0 64v256h64v-256h-64zM256 64v256h64v-256h-64zM64 320v64h192v-64h-192zM128 448v64h64v-64h-64zM64 512v64h64v-64h-64zM192 512v64h64v-64h-64z" />
    <glyph glyph-name="uni01D3" unicode="&#x1d3;" 
d="M64 0v64h192v-64h-192zM0 64v448h64v-448h-64zM256 64v448h64v-448h-64zM128 512v64h64v-64h-64zM64 576v64h64v-64h-64zM192 576v64h64v-64h-64z" />
    <glyph glyph-name="uni01D4" unicode="&#x1d4;" 
d="M64 0v64h128v-64h-128zM0 64v320h64v-320h-64zM256 0v64h-64v64h64v256h64v-384h-64zM128 384v64h64v-64h-64zM64 448v64h64v-64h-64zM192 448v64h64v-64h-64z" />
    <glyph glyph-name="uni01D5" unicode="&#x1d5;" 
d="M64 0v64h192v-64h-192zM0 64v448h64v-448h-64zM256 64v448h64v-448h-64zM64 576v64h64v-64h-64zM192 576v64h64v-64h-64zM0 704v64h320v-64h-320z" />
    <glyph glyph-name="uni01D6" unicode="&#x1d6;" 
d="M64 0v64h128v-64h-128zM0 64v256h64v-256h-64zM256 0v64h-64v64h64v192h64v-320h-64zM64 384v64h64v-64h-64zM192 384v64h64v-64h-64zM0 512v64h320v-64h-320z" />
    <glyph glyph-name="uni01D7" unicode="&#x1d7;" 
d="M64 0v64h192v-64h-192zM0 64v448h64v-448h-64zM256 64v448h64v-448h-64zM64 576v64h64v-64h-64zM192 576v64h64v-64h-64zM128 704v64h64v-64h-64zM192 768v64h64v-64h-64z" />
    <glyph glyph-name="uni01D8" unicode="&#x1d8;" 
d="M64 0v64h128v-64h-128zM0 64v320h64v-320h-64zM256 0v64h-64v64h64v256h64v-384h-64zM64 448v64h64v-64h-64zM192 448v64h64v-64h-64zM128 576v64h64v-64h-64zM192 640v64h64v-64h-64z" />
    <glyph glyph-name="uni01D9" unicode="&#x1d9;" 
d="M64 0v64h192v-64h-192zM0 64v448h64v-448h-64zM256 64v448h64v-448h-64zM64 576v64h64v-64h-64zM192 576v64h64v-64h-64zM128 704v64h64v-64h-64zM64 768v64h64v-64h-64zM192 768v64h64v-64h-64z" />
    <glyph glyph-name="uni01DA" unicode="&#x1da;" 
d="M64 0v64h128v-64h-128zM0 64v320h64v-320h-64zM256 0v64h-64v64h64v256h64v-384h-64zM64 448v64h64v-64h-64zM192 448v64h64v-64h-64zM128 576v64h64v-64h-64zM64 640v64h64v-64h-64zM192 640v64h64v-64h-64z" />
    <glyph glyph-name="uni01DB" unicode="&#x1db;" 
d="M64 0v64h192v-64h-192zM0 64v448h64v-448h-64zM256 64v448h64v-448h-64zM64 576v64h64v-64h-64zM192 576v64h64v-64h-64zM128 704v64h64v-64h-64zM64 768v64h64v-64h-64z" />
    <glyph glyph-name="uni01DC" unicode="&#x1dc;" 
d="M64 0v64h128v-64h-128zM0 64v320h64v-320h-64zM256 0v64h-64v64h64v256h64v-384h-64zM64 448v64h64v-64h-64zM192 448v64h64v-64h-64zM128 576v64h64v-64h-64zM64 640v64h64v-64h-64z" />
    <glyph glyph-name="uni01DD" unicode="&#x1dd;" 
d="M64 0v64h192v-64h-192zM0 64v64h64v-64h-64zM0 256v64h64v-64h-64zM256 64v64h-192v64h192v128h64v-256h-64zM64 320v64h192v-64h-192z" />
    <glyph glyph-name="uni01DE" unicode="&#x1de;" 
d="M0 0v384h64v-128h192v128h64v-384h-64v192h-192v-192h-64zM64 384v64h64v-64h-64zM192 384v64h64v-64h-64zM128 448v64h64v-64h-64zM64 576v64h64v-64h-64zM192 576v64h64v-64h-64zM0 704v64h320v-64h-320z" />
    <glyph glyph-name="uni01DF" unicode="&#x1df;" horiz-adv-x="448" 
d="M64 0v64h192v-64h-192zM320 0v64h64v-64h-64zM0 64v64h64v-64h-64zM0 256v64h64v-64h-64zM256 64v64h-192v64h192v128h64v-256h-64zM64 320v64h192v-64h-192zM64 448v64h64v-64h-64zM192 448v64h64v-64h-64zM0 576v64h320v-64h-320z" />
    <glyph glyph-name="uni01E0" unicode="&#x1e0;" 
d="M0 0v384h64v-128h192v128h64v-384h-64v192h-192v-192h-64zM64 384v64h64v-64h-64zM192 384v64h64v-64h-64zM128 448v64h64v-64h-64zM128 576v64h64v-64h-64zM0 704v64h320v-64h-320z" />
    <glyph glyph-name="uni01E1" unicode="&#x1e1;" horiz-adv-x="448" 
d="M64 0v64h192v-64h-192zM320 0v64h64v-64h-64zM0 64v64h64v-64h-64zM0 256v64h64v-64h-64zM256 64v64h-192v64h192v128h64v-256h-64zM64 320v64h192v-64h-192zM128 448v64h64v-64h-64zM0 576v64h320v-64h-320z" />
    <glyph glyph-name="uni01E3" unicode="&#x1e3;" horiz-adv-x="640" 
d="M64 0v64h192v-64h-192zM320 0v64h192v-64h-192zM0 64v64h64v-64h-64zM512 64v64h64v-64h-64zM0 256v64h64v-64h-64zM256 64v64h-192v64h192v128h64v-64h192v-64h-192v-128h-64zM512 256v64h64v-64h-64zM64 320v64h192v-64h-192zM320 320v64h192v-64h-192zM128 448v64h320
v-64h-320z" />
    <glyph glyph-name="uni01E5" unicode="&#x1e5;" horiz-adv-x="448" 
d="M64 -192v64h192v-64h-192zM0 -128v64h64v-64h-64zM64 0v64h128v-64h-128zM0 64v256h64v-256h-64zM256 -128v192h-64v64h64v64h-128v64h128v64h64v-64h64v-64h-64v-320h-64zM64 320v64h192v-64h-192z" />
    <glyph glyph-name="Gcaron" unicode="&#x1e6;" horiz-adv-x="448" 
d="M64 0v64h256v-64h-256zM320 64v128h-192v64h256v-192h-64zM0 64v384h64v-384h-64zM320 384v64h64v-64h-64zM64 448v64h256v-64h-256zM128 576v64h64v-64h-64zM64 640v64h64v-64h-64zM192 640v64h64v-64h-64z" />
    <glyph glyph-name="gcaron" unicode="&#x1e7;" 
d="M64 -192v64h192v-64h-192zM0 -128v64h64v-64h-64zM64 0v64h128v-64h-128zM0 64v256h64v-256h-64zM64 320v64h128v-64h-128zM256 -128v192h-64v64h64v128h-64v64h64v64h64v-512h-64zM128 448v64h64v-64h-64zM64 512v64h64v-64h-64zM192 512v64h64v-64h-64z" />
    <glyph glyph-name="uni01F0" unicode="&#x1f0;" horiz-adv-x="320" 
d="M0 -64v64h128v-64h-128zM128 0v384h64v-384h-64zM128 448v64h64v-64h-64zM64 512v64h64v-64h-64zM192 512v64h64v-64h-64z" />
    <glyph glyph-name="uni01F5" unicode="&#x1f5;" 
d="M64 -192v64h192v-64h-192zM0 -128v64h64v-64h-64zM64 0v64h128v-64h-128zM0 64v256h64v-256h-64zM64 320v64h128v-64h-128zM256 -128v192h-64v64h64v128h-64v64h64v64h64v-512h-64zM128 448v64h64v-64h-64zM192 512v64h64v-64h-64z" />
    <glyph glyph-name="uni01F6" unicode="&#x1f6;" horiz-adv-x="576" 
d="M320 0v64h128v-64h-128zM448 64v320h64v-320h-64zM0 0v512h64v-192h192v192h64v-448h-64v192h-192v-256h-64z" />
    <glyph glyph-name="uni01F9" unicode="&#x1f9;" 
d="M256 0v320h64v-320h-64zM0 0v384h64v-64h64v-64h-64v-256h-64zM128 320v64h128v-64h-128zM128 448v64h64v-64h-64zM64 512v64h64v-64h-64z" />
    <glyph glyph-name="aringacute" unicode="&#x1fb;" horiz-adv-x="448" 
d="M64 0v64h192v-64h-192zM320 0v64h64v-64h-64zM0 64v64h64v-64h-64zM0 256v64h64v-64h-64zM256 64v64h-192v64h192v128h64v-256h-64zM64 320v128h64v-64h64v64h64v-128h-192zM128 448v64h64v-64h-64zM128 576v64h64v-64h-64zM192 640v64h64v-64h-64z" />
    <glyph glyph-name="aeacute" unicode="&#x1fd;" horiz-adv-x="640" 
d="M64 0v64h192v-64h-192zM320 0v64h192v-64h-192zM0 64v64h64v-64h-64zM512 64v64h64v-64h-64zM0 256v64h64v-64h-64zM256 64v64h-192v64h192v128h64v-64h192v64h64v-128h-256v-128h-64zM64 320v64h192v-64h-192zM320 320v64h192v-64h-192zM192 448v64h64v-64h-64zM256 512
v64h64v-64h-64z" />
    <glyph glyph-name="uni0201" unicode="&#x201;" horiz-adv-x="448" 
d="M64 0v64h192v-64h-192zM320 0v64h64v-64h-64zM0 64v64h64v-64h-64zM0 256v64h64v-64h-64zM256 64v64h-192v64h192v128h64v-256h-64zM64 320v64h192v-64h-192zM64 448v64h64v-64h-64zM256 448v64h64v-64h-64zM0 512v64h64v-64h-64zM192 512v64h64v-64h-64z" />
    <glyph glyph-name="uni0203" unicode="&#x203;" horiz-adv-x="448" 
d="M64 0v64h192v-64h-192zM320 0v64h64v-64h-64zM0 64v64h64v-64h-64zM0 256v64h64v-64h-64zM256 64v64h-192v64h192v128h64v-256h-64zM64 320v64h192v-64h-192zM64 448v128h192v-128h-64v64h-64v-64h-64z" />
    <glyph glyph-name="uni0205" unicode="&#x205;" 
d="M64 0v64h192v-64h-192zM256 64v64h64v-64h-64zM0 64v256h64v-64h192v64h64v-128h-256v-128h-64zM64 320v64h192v-64h-192zM64 448v64h64v-64h-64zM256 448v64h64v-64h-64zM0 512v64h64v-64h-64zM192 512v64h64v-64h-64z" />
    <glyph glyph-name="uni0207" unicode="&#x207;" 
d="M64 0v64h192v-64h-192zM256 64v64h64v-64h-64zM0 64v256h64v-64h192v64h64v-128h-256v-128h-64zM64 320v64h192v-64h-192zM64 448v128h192v-128h-64v64h-64v-64h-64z" />
    <glyph glyph-name="uni0209" unicode="&#x209;" 
d="M128 0v384h64v-384h-64zM64 448v64h64v-64h-64zM256 448v64h64v-64h-64zM0 512v64h64v-64h-64zM192 512v64h64v-64h-64z" />
    <glyph glyph-name="uni020B" unicode="&#x20b;" horiz-adv-x="256" 
d="M64 0v384h64v-384h-64zM0 448v128h192v-128h-64v64h-64v-64h-64z" />
    <glyph glyph-name="uni020D" unicode="&#x20d;" 
d="M64 0v64h192v-64h-192zM0 64v256h64v-256h-64zM256 64v256h64v-256h-64zM64 320v64h192v-64h-192z" />
    <glyph glyph-name="uni020F" unicode="&#x20f;" 
d="M64 0v64h192v-64h-192zM0 64v256h64v-256h-64zM256 64v256h64v-256h-64zM64 320v64h192v-64h-192zM64 448v128h192v-128h-64v64h-64v-64h-64z" />
    <glyph glyph-name="uni0211" unicode="&#x211;" 
d="M256 256v64h64v-64h-64zM0 0v384h64v-64h64v-64h-64v-256h-64zM128 320v64h128v-64h-128zM64 448v64h64v-64h-64zM256 448v64h64v-64h-64zM0 512v64h64v-64h-64zM192 512v64h64v-64h-64z" />
    <glyph glyph-name="uni0213" unicode="&#x213;" 
d="M256 256v64h64v-64h-64zM0 0v384h64v-64h64v-64h-64v-256h-64zM128 320v64h128v-64h-128zM64 448v128h192v-128h-64v64h-64v-64h-64z" />
    <glyph glyph-name="uni0215" unicode="&#x215;" 
d="M64 0v64h128v-64h-128zM0 64v320h64v-320h-64zM256 0v64h-64v64h64v256h64v-384h-64zM64 448v64h64v-64h-64zM256 448v64h64v-64h-64zM0 512v64h64v-64h-64zM192 512v64h64v-64h-64z" />
    <glyph glyph-name="uni0217" unicode="&#x217;" 
d="M64 0v64h128v-64h-128zM0 64v320h64v-320h-64zM256 0v64h-64v64h64v256h64v-384h-64zM64 448v128h192v-128h-64v64h-64v-64h-64z" />
    <glyph glyph-name="uni021C" unicode="&#x21c;" 
d="M0 -64v64h128v-64h-128zM128 0v64h64v-64h-64zM192 64v64h64v-64h-64zM256 128v64h-64v64h128v-128h-64zM0 256v64h192v-64h-192zM192 320v64h64v-64h-64zM0 384v64h64v-64h-64zM64 448v64h64v-64h-64zM256 384v128h64v-128h-64zM128 512v64h128v-64h-128z" />
    <glyph glyph-name="uni0222" unicode="&#x222;" horiz-adv-x="512" 
d="M64 0v64h320v-64h-320zM0 64v128h64v-128h-64zM64 192v64h256v-64h-256zM0 256v128h64v-128h-64zM64 384v64h128v-64h-128zM384 64v384h64v-384h-64zM256 448v64h128v-64h-128z" />
    <glyph glyph-name="uni0223" unicode="&#x223;" 
d="M64 0v64h192v-64h-192zM0 64v128h64v-128h-64zM256 64v128h64v-128h-64zM64 192v64h192v-64h-192zM0 256v128h64v-128h-64zM256 256v128h64v-128h-64zM64 384v64h64v-64h-64zM192 384v64h64v-64h-64z" />
    <glyph glyph-name="uni0227" unicode="&#x227;" horiz-adv-x="448" 
d="M64 0v64h192v-64h-192zM320 0v64h64v-64h-64zM0 64v64h64v-64h-64zM0 256v64h64v-64h-64zM256 64v64h-192v64h192v128h64v-256h-64zM64 320v64h192v-64h-192zM128 448v64h64v-64h-64z" />
    <glyph glyph-name="uni022B" unicode="&#x22b;" 
d="M64 0v64h192v-64h-192zM0 64v256h64v-256h-64zM256 64v256h64v-256h-64zM64 320v64h192v-64h-192zM64 448v64h64v-64h-64zM192 448v64h64v-64h-64zM0 576v64h320v-64h-320z" />
    <glyph glyph-name="uni022F" unicode="&#x22f;" 
d="M64 0v64h192v-64h-192zM0 64v256h64v-256h-64zM256 64v256h64v-256h-64zM64 320v64h192v-64h-192zM128 448v64h64v-64h-64z" />
    <glyph glyph-name="uni0233" unicode="&#x233;" 
d="M64 -128v128h64v-128h-64zM128 0v128h64v-128h-64zM64 128v128h64v-128h-64zM192 128v128h64v-128h-64zM0 256v128h64v-128h-64zM256 256v128h64v-128h-64zM0 448v64h320v-64h-320z" />
    <glyph glyph-name="uni0237" unicode="&#x237;" horiz-adv-x="256" 
d="M0 -64v64h128v-64h-128zM128 0v320h64v-320h-64z" />
    <glyph glyph-name="uni0238" unicode="&#x238;" horiz-adv-x="768" 
d="M64 0v64h192v-64h-192zM448 0v64h192v-64h-192zM0 64v192h64v-192h-64zM640 64v192h64v-192h-64zM64 256v64h192v-64h-192zM448 256v64h192v-64h-192zM320 0v64h-64v64h64v64h-64v64h64v256h64v-256h64v-64h-64v-64h64v-64h-64v-64h-64z" />
    <glyph glyph-name="uni0240" unicode="&#x240;" horiz-adv-x="320" 
d="M192 -128v64h64v-64h-64zM128 -64v64h64v-64h-64zM0 0v128h64v-64h64v-64h-128zM64 128v64h64v-64h-64zM128 192v64h64v-64h-64zM192 256v64h-192v64h256v-128h-64z" />
    <glyph glyph-name="uni0242" unicode="&#x242;" 
d="M128 0v128h128v-64h-64v-64h-64zM256 128v192h64v-192h-64zM0 320v64h256v-64h-256z" />
    <glyph glyph-name="uni0245" unicode="&#x245;" horiz-adv-x="512" 
d="M0 0v128h64v-128h-64zM384 0v128h64v-128h-64zM64 128v128h64v-128h-64zM320 128v128h64v-128h-64zM128 256v128h64v-128h-64zM256 256v128h64v-128h-64zM192 384v128h64v-128h-64z" />
    <glyph glyph-name="uni024C" unicode="&#x24c;" horiz-adv-x="448" 
d="M320 0v64h64v-64h-64zM256 64v64h64v-64h-64zM320 256v192h64v-192h-64zM64 0v192h-64v64h64v256h256v-64h-192v-192h192v-64h-64v-64h-64v64h-64v-192h-64z" />
    <glyph glyph-name="uni024D" unicode="&#x24d;" horiz-adv-x="448" 
d="M320 256v64h64v-64h-64zM64 0v128h-64v64h64v192h64v-64h64v-64h-64v-64h64v-64h-64v-128h-64zM192 320v64h128v-64h-128z" />
    <glyph glyph-name="uni0250" unicode="&#x250;" 
d="M64 0v64h192v-64h-192zM256 64v64h64v-64h-64zM256 256v64h64v-64h-64zM0 64v320h256v-64h-192v-64h192v-64h-192v-128h-64z" />
    <glyph glyph-name="uni0251" unicode="&#x251;" 
d="M64 0v64h128v-64h-128zM0 64v256h64v-256h-64zM64 320v64h128v-64h-128zM256 0v64h-64v64h64v128h-64v64h64v64h64v-384h-64z" />
    <glyph glyph-name="uni0252" unicode="&#x252;" 
d="M128 0v64h128v-64h-128zM256 64v256h64v-256h-64zM0 0v384h64v-64h64v-64h-64v-128h64v-64h-64v-64h-64zM128 320v64h128v-64h-128z" />
    <glyph glyph-name="uni0253" unicode="&#x253;" 
d="M128 0v64h128v-64h-128zM256 64v256h64v-256h-64zM128 320v64h128v-64h-128zM0 0v448h64v-128h64v-64h-64v-128h64v-64h-64v-64h-64zM64 448v64h192v-64h-192z" />
    <glyph glyph-name="uni0254" unicode="&#x254;" 
d="M64 0v64h192v-64h-192zM0 64v64h64v-64h-64zM0 256v64h64v-64h-64zM256 64v256h64v-256h-64zM64 320v64h192v-64h-192z" />
    <glyph glyph-name="uni0255" unicode="&#x255;" 
d="M64 -64v128h64v64h64v-64h64v-64h-128v-64h-64zM256 64v64h64v-64h-64zM192 128v64h64v-64h-64zM0 64v256h64v-256h-64zM256 256v64h64v-64h-64zM64 320v64h192v-64h-192z" />
    <glyph glyph-name="uni0256" unicode="&#x256;" horiz-adv-x="448" 
d="M320 -64v64h64v-64h-64zM64 0v64h128v-64h-128zM0 64v256h64v-256h-64zM64 320v64h128v-64h-128zM256 0v64h-64v64h64v128h-64v64h64v192h64v-512h-64z" />
    <glyph glyph-name="uni0257" unicode="&#x257;" horiz-adv-x="576" 
d="M64 0v64h192v-64h-192zM0 64v256h64v-256h-64zM64 320v64h192v-64h-192zM320 0v64h-64v64h64v128h-64v64h64v128h64v-448h-64zM384 448v64h128v-64h-128z" />
    <glyph glyph-name="uni0258" unicode="&#x258;" 
d="M64 0v64h192v-64h-192zM0 64v64h64v-64h-64zM256 64v128h-256v128h64v-64h192v64h64v-256h-64zM64 320v64h192v-64h-192z" />
    <glyph glyph-name="uni0259" unicode="&#x259;" 
d="M64 0v64h192v-64h-192zM0 256v64h64v-64h-64zM0 64v128h256v128h64v-256h-64v64h-192v-64h-64zM64 320v64h192v-64h-192z" />
    <glyph glyph-name="uni025A" unicode="&#x25a;" horiz-adv-x="576" 
d="M64 0v64h192v-64h-192zM448 0v64h64v-64h-64zM0 256v64h64v-64h-64zM0 64v128h256v128h64v-128h128v-128h-64v64h-64v-64h-64v64h-192v-64h-64zM64 320v64h192v-64h-192z" />
    <glyph glyph-name="uni025B" unicode="&#x25b;" horiz-adv-x="320" 
d="M64 0v64h128v-64h-128zM0 64v64h64v-64h-64zM192 64v64h64v-64h-64zM64 128v64h64v-64h-64zM0 192v128h64v-128h-64zM192 256v64h64v-64h-64zM64 320v64h128v-64h-128z" />
    <glyph glyph-name="uni025C" unicode="&#x25c;" horiz-adv-x="320" 
d="M64 0v64h128v-64h-128zM0 64v64h64v-64h-64zM192 64v64h64v-64h-64zM128 128v64h64v-64h-64zM0 256v64h64v-64h-64zM192 192v128h64v-128h-64zM64 320v64h128v-64h-128z" />
    <glyph glyph-name="uni025D" unicode="&#x25d;" horiz-adv-x="512" 
d="M64 0v64h128v-64h-128zM0 64v64h64v-64h-64zM192 64v128h128v-64h-64v-64h-64zM384 64v128h64v-128h-64zM128 192v64h64v-64h-64zM320 192v64h64v-64h-64zM0 256v64h64v-64h-64zM192 256v64h64v-64h-64zM64 320v64h128v-64h-128z" />
    <glyph glyph-name="uni025E" unicode="&#x25e;" horiz-adv-x="320" 
d="M64 0v64h128v-64h-128zM192 64v64h64v-64h-64zM128 128v64h64v-64h-64zM0 64v192h64v-192h-64zM192 192v64h64v-64h-64zM64 256v64h128v-64h-128z" />
    <glyph glyph-name="uni025F" unicode="&#x25f;" horiz-adv-x="320" 
d="M0 -64v64h128v-64h-128zM128 0v256h-128v64h128v192h64v-192h64v-64h-64v-256h-64z" />
    <glyph glyph-name="uni0260" unicode="&#x260;" horiz-adv-x="512" 
d="M64 -192v64h256v-64h-256zM0 -128v64h64v-64h-64zM64 0v64h192v-64h-192zM0 64v256h64v-256h-64zM64 320v64h192v-64h-192zM320 -128v192h-64v64h64v128h-64v64h64v64h64v-512h-64zM384 384v64h64v-64h-64z" />
    <glyph glyph-name="uni0261" unicode="&#x261;" horiz-adv-x="448" 
d="M64 -192v64h256v-64h-256zM0 -128v64h64v-64h-64zM64 0v64h192v-64h-192zM0 64v256h64v-256h-64zM64 320v64h192v-64h-192zM320 -128v192h-64v64h64v128h-64v64h64v64h64v-512h-64z" />
    <glyph glyph-name="uni0262" unicode="&#x262;" 
d="M64 0v64h192v-64h-192zM256 64v64h-128v64h192v-128h-64zM0 64v256h64v-256h-64zM256 256v64h64v-64h-64zM64 320v64h192v-64h-192z" />
    <glyph glyph-name="uni0263" unicode="&#x263;" 
d="M128 -128v64h64v-64h-64zM64 -64v64h64v-64h-64zM192 -64v64h64v-64h-64zM128 0v128h64v-128h-64zM64 128v128h64v-128h-64zM192 128v128h64v-128h-64zM0 256v128h64v-128h-64zM256 256v128h64v-128h-64z" />
    <glyph glyph-name="uni0264" unicode="&#x264;" horiz-adv-x="640" 
d="M256 0v64h64v-64h-64zM0 192v128h64v-128h-64zM192 64v128h-64v128h64v-64h64v-64h64v64h64v64h64v-128h-64v-128h-64v64h-64v-64h-64zM512 192v128h64v-128h-64zM64 320v64h64v-64h-64zM448 320v64h64v-64h-64z" />
    <glyph glyph-name="uni0265" unicode="&#x265;" horiz-adv-x="448" 
d="M64 0v64h192v-64h-192zM0 64v320h64v-320h-64zM320 -256v320h-64v64h64v256h64v-640h-64z" />
    <glyph glyph-name="uni0266" unicode="&#x266;" 
d="M256 0v256h64v-256h-64zM128 256v64h128v-64h-128zM0 0v448h64v-192h64v-64h-64v-192h-64zM64 448v64h128v-64h-128z" />
    <glyph glyph-name="uni0267" unicode="&#x267;" 
d="M192 -64v64h64v-64h-64zM256 0v256h64v-256h-64zM128 256v64h128v-64h-128zM0 0v448h64v-192h64v-64h-64v-192h-64zM64 448v64h128v-64h-128z" />
    <glyph glyph-name="uni0268" unicode="&#x268;" horiz-adv-x="256" 
d="M64 0v192h-64v64h64v128h64v-128h64v-64h-64v-192h-64zM64 448v64h64v-64h-64z" />
    <glyph glyph-name="uni0269" unicode="&#x269;" horiz-adv-x="192" 
d="M64 0v64h64v-64h-64zM0 64v320h64v-320h-64z" />
    <glyph glyph-name="uni026A" unicode="&#x26a;" horiz-adv-x="256" 
d="M0 0v64h64v256h-64v64h192v-64h-64v-256h64v-64h-192z" />
    <glyph glyph-name="uni026B" unicode="&#x26b;" 
d="M0 192v64h64v-64h-64zM256 256v64h64v-64h-64zM128 0v256h-64v64h64v192h64v-256h64v-64h-64v-192h-64z" />
    <glyph glyph-name="uni026C" unicode="&#x26c;" horiz-adv-x="320" 
d="M0 256v64h64v-64h-64zM128 0v192h-64v64h64v64h-64v64h64v128h64v-256h64v-64h-64v-192h-64z" />
    <glyph glyph-name="uni026D" unicode="&#x26d;" horiz-adv-x="256" 
d="M64 -64v64h128v-64h-128zM0 0v512h64v-512h-64z" />
    <glyph glyph-name="uni026E" unicode="&#x26e;" horiz-adv-x="448" 
d="M128 -192v64h192v-64h-192zM64 -128v64h64v-64h-64zM320 -128v128h-192v128h64v-64h192v-192h-64zM192 128v64h64v-64h-64zM0 0v512h64v-192h256v-128h-64v64h-192v-256h-64z" />
    <glyph glyph-name="uni026F" unicode="&#x26f;" horiz-adv-x="512" 
d="M64 0v64h128v-64h-128zM256 0v64h64v-64h-64zM0 64v320h64v-320h-64zM192 64v320h64v-320h-64zM384 0v64h-64v64h64v256h64v-384h-64z" />
    <glyph glyph-name="uni0270" unicode="&#x270;" horiz-adv-x="512" 
d="M64 0v64h128v-64h-128zM256 0v64h64v-64h-64zM0 64v320h64v-320h-64zM192 64v320h64v-320h-64zM384 -128v192h-64v64h64v256h64v-512h-64z" />
    <glyph glyph-name="uni0271" unicode="&#x271;" horiz-adv-x="576" 
d="M320 -128v64h128v-64h-128zM256 0v320h64v-320h-64zM448 -64v384h64v-384h-64zM0 0v384h64v-64h64v-64h-64v-256h-64zM128 320v64h128v-64h-128zM320 320v64h128v-64h-128z" />
    <glyph glyph-name="uni0272" unicode="&#x272;" horiz-adv-x="512" 
d="M0 -128v64h128v-64h-128zM384 0v320h64v-320h-64zM128 -64v448h64v-64h64v-64h-64v-320h-64zM256 320v64h128v-64h-128z" />
    <glyph glyph-name="uni0273" unicode="&#x273;" horiz-adv-x="448" 
d="M320 -64v64h64v-64h-64zM256 0v320h64v-320h-64zM0 0v384h64v-64h64v-64h-64v-256h-64zM128 320v64h128v-64h-128z" />
    <glyph glyph-name="uni0274" unicode="&#x274;" 
d="M128 128v128h64v-128h-64zM0 0v384h64v-64h64v-64h-64v-256h-64zM256 0v64h-64v64h64v256h64v-384h-64z" />
    <glyph glyph-name="uni0275" unicode="&#x275;" 
d="M64 0v64h192v-64h-192zM0 64v256h64v-64h192v64h64v-256h-64v128h-192v-128h-64zM64 320v64h192v-64h-192z" />
    <glyph glyph-name="uni0276" unicode="&#x276;" horiz-adv-x="576" 
d="M0 64v256h64v-256h-64zM64 0v64h192v256h-192v64h448v-64h-192v-64h128v-64h-128v-128h192v-64h-448z" />
    <glyph glyph-name="uni0277" unicode="&#x277;" horiz-adv-x="512" 
d="M64 0v64h128v-64h-128zM256 0v64h128v-64h-128zM192 64v128h64v-128h-64zM0 64v256h64v-256h-64zM384 64v256h64v-256h-64zM64 320v64h320v-64h-320z" />
    <glyph glyph-name="uni0278" unicode="&#x278;" 
d="M0 64v256h64v-256h-64zM256 64v256h64v-256h-64zM128 -128v128h-64v64h64v256h-64v64h64v128h64v-128h64v-64h-64v-256h64v-64h-64v-128h-64z" />
    <glyph glyph-name="uni0279" unicode="&#x279;" horiz-adv-x="320" 
d="M64 0v64h64v-64h-64zM0 64v64h64v-64h-64zM192 0v64h-64v64h64v192h64v-320h-64z" />
    <glyph glyph-name="uni027A" unicode="&#x27a;" horiz-adv-x="320" 
d="M64 0v64h64v-64h-64zM0 64v64h64v-64h-64zM192 0v64h-64v64h64v384h64v-512h-64z" />
    <glyph glyph-name="uni027B" unicode="&#x27b;" 
d="M256 -64v64h64v-64h-64zM64 0v64h64v-64h-64zM0 64v64h64v-64h-64zM192 0v64h-64v64h64v192h64v-320h-64z" />
    <glyph glyph-name="uni027C" unicode="&#x27c;" horiz-adv-x="320" 
d="M0 -128v448h64v-64h64v-64h-64v-320h-64zM128 256v64h128v-64h-128z" />
    <glyph glyph-name="uni027D" unicode="&#x27d;" 
d="M64 -128v64h128v-64h-128zM256 192v64h64v-64h-64zM0 -64v384h64v-64h64v-64h-64v-256h-64zM128 256v64h128v-64h-128z" />
    <glyph glyph-name="uni027E" unicode="&#x27e;" horiz-adv-x="256" 
d="M0 0v320h64v-320h-64zM64 320v64h128v-64h-128z" />
    <glyph glyph-name="uni027F" unicode="&#x27f;" horiz-adv-x="256" 
d="M128 -128v448h64v-448h-64zM0 320v64h128v-64h-128z" />
    <glyph glyph-name="uni0280" unicode="&#x280;" 
d="M256 0v64h64v-64h-64zM192 64v64h64v-64h-64zM256 256v64h64v-64h-64zM0 0v384h256v-64h-192v-64h192v-64h-64v-64h-64v64h-64v-192h-64z" />
    <glyph glyph-name="uni0281" unicode="&#x281;" 
d="M256 64v64h64v-64h-64zM192 256v64h64v-64h-64zM0 0v384h64v-192h64v64h64v-64h64v-64h-192v-64h192v-64h-256zM256 320v64h64v-64h-64z" />
    <glyph glyph-name="uni0282" unicode="&#x282;" 
d="M64 -128v64h64v-64h-64zM0 -64v128h256v-64h-192v-64h-64zM256 64v128h64v-128h-64zM64 192v64h192v-64h-192zM0 256v64h64v-64h-64zM64 320v64h256v-64h-256z" />
    <glyph glyph-name="uni0283" unicode="&#x283;" 
d="M0 -64v64h128v-64h-128zM128 0v448h64v-448h-64zM192 448v64h128v-64h-128z" />
    <glyph glyph-name="uni0284" unicode="&#x284;" 
d="M0 -64v64h128v-64h-128zM128 0v64h-64v64h64v320h64v-320h64v-64h-64v-64h-64zM192 448v64h128v-64h-128z" />
    <glyph glyph-name="uni0285" unicode="&#x285;" horiz-adv-x="256" 
d="M128 -64v64h64v-64h-64zM64 0v320h64v-320h-64zM0 320v64h64v-64h-64z" />
    <glyph glyph-name="uni0286" unicode="&#x286;" 
d="M256 -64v64h64v-64h-64zM0 -64v128h64v-64h64v-64h-128zM128 0v64h-64v64h64v320h64v-384h64v-64h-128zM192 448v64h128v-64h-128z" />
    <glyph glyph-name="uni0287" unicode="&#x287;" horiz-adv-x="320" 
d="M128 0v64h-128v64h128v320h64v-320h64v-64h-64v-64h-64zM0 448v64h128v-64h-128z" />
    <glyph glyph-name="uni0288" unicode="&#x288;" horiz-adv-x="320" 
d="M128 -192v64h128v-64h-128zM64 -128v512h-64v64h64v64h64v-64h128v-64h-128v-512h-64z" />
    <glyph glyph-name="uni0289" unicode="&#x289;" horiz-adv-x="512" 
d="M128 0v64h128v-64h-128zM320 0v64h-64v64h64v64h-192v-128h-64v128h-64v64h64v128h64v-128h192v128h64v-128h64v-64h-64v-192h-64z" />
    <glyph glyph-name="uni028A" unicode="&#x28a;" horiz-adv-x="448" 
d="M64 0v64h256v-64h-256zM0 64v192h64v-192h-64zM320 64v192h64v-192h-64zM64 256v64h-64v64h128v-128h-64zM256 256v128h128v-64h-64v-64h-64z" />
    <glyph glyph-name="uni028B" unicode="&#x28b;" 
d="M64 0v64h192v-64h-192zM256 64v256h64v-256h-64zM0 64v320h64v-320h-64zM128 320v64h128v-64h-128z" />
    <glyph glyph-name="uni028C" unicode="&#x28c;" 
d="M0 0v128h64v-128h-64zM256 0v128h64v-128h-64zM64 128v128h64v-128h-64zM192 128v128h64v-128h-64zM128 256v128h64v-128h-64z" />
    <glyph glyph-name="uni028D" unicode="&#x28d;" horiz-adv-x="640" 
d="M0 0v128h64v-128h-64zM256 0v128h64v-128h-64zM512 0v128h64v-128h-64zM64 128v128h64v-128h-64zM192 128v128h64v-128h-64zM320 128v128h64v-128h-64zM448 128v128h64v-128h-64zM128 256v128h64v-128h-64zM384 256v128h64v-128h-64z" />
    <glyph glyph-name="uni028E" unicode="&#x28e;" 
d="M0 0v128h64v-128h-64zM256 0v128h64v-128h-64zM64 128v128h64v-128h-64zM192 128v128h64v-128h-64zM128 256v128h64v-128h-64zM192 384v128h64v-128h-64z" />
    <glyph glyph-name="uni028F" unicode="&#x28f;" 
d="M128 0v256h64v-256h-64zM64 256v64h64v-64h-64zM192 256v64h64v-64h-64zM0 320v64h64v-64h-64zM256 320v64h64v-64h-64z" />
    <glyph glyph-name="uni0290" unicode="&#x290;" horiz-adv-x="448" 
d="M320 -64v64h-320v64h64v64h64v-64h256v-128h-64zM128 128v64h64v-64h-64zM192 192v64h64v-64h-64zM256 256v64h-256v64h320v-128h-64z" />
    <glyph glyph-name="uni0291" unicode="&#x291;" horiz-adv-x="576" 
d="M192 -64v64h-192v64h64v64h64v-64h128v64h64v-64h128v-64h-192v-64h-64zM128 128v64h64v-64h-64zM320 128v64h64v-64h-64zM448 64v128h64v-128h-64zM192 192v64h64v-64h-64zM384 192v64h64v-64h-64zM256 256v64h-256v64h320v-128h-64z" />
    <glyph glyph-name="uni0292" unicode="&#x292;" 
d="M64 -192v64h192v-64h-192zM0 -128v64h64v-64h-64zM256 -128v64h64v-64h-64zM192 -64v64h64v-64h-64zM0 0v64h64v64h64v-64h64v-64h-192zM128 128v64h64v-64h-64zM192 192v64h64v-64h-64zM256 256v64h-256v64h320v-128h-64z" />
    <glyph glyph-name="uni0293" unicode="&#x293;" 
d="M128 -320v64h-128v128h64v-64h64v64h64v-64h64v-64h-64v-64h-64zM64 -128v64h64v-64h-64zM256 -192v128h64v-128h-64zM192 -64v64h64v-64h-64zM0 0v64h64v64h64v-64h64v-64h-192zM128 128v64h64v-64h-64zM192 192v64h64v-64h-64zM256 256v64h-256v64h320v-128h-64z" />
    <glyph glyph-name="uni0294" unicode="&#x294;" horiz-adv-x="448" 
d="M128 0v256h192v-64h-128v-192h-64zM0 384v64h64v-64h-64zM320 256v192h64v-192h-64zM64 448v64h256v-64h-256z" />
    <glyph glyph-name="uni0295" unicode="&#x295;" 
d="M128 0v192h-64v64h128v-256h-64zM0 256v192h64v-192h-64zM256 384v64h64v-64h-64zM64 448v64h192v-64h-192z" />
    <glyph glyph-name="uni0296" unicode="&#x296;" 
d="M64 0v64h192v-64h-192zM0 64v64h64v-64h-64zM256 64v192h64v-192h-64zM64 256v256h64v-192h128v-64h-192z" />
    <glyph glyph-name="uni0297" unicode="&#x297;" 
d="M64 -192v64h192v-64h-192zM256 -128v64h64v-64h-64zM0 -128v448h64v-448h-64zM256 256v64h64v-64h-64zM64 320v64h192v-64h-192z" />
    <glyph glyph-name="uni0298" unicode="&#x298;" horiz-adv-x="448" 
d="M64 0v64h256v-64h-256zM128 192v128h128v-128h-128zM0 64v384h64v-384h-64zM320 64v384h64v-384h-64zM64 448v64h256v-64h-256z" />
    <glyph glyph-name="uni0299" unicode="&#x299;" 
d="M256 64v128h64v-128h-64zM256 256v64h64v-64h-64zM0 0v384h256v-64h-192v-64h192v-64h-192v-128h192v-64h-256z" />
    <glyph glyph-name="uni029A" unicode="&#x29a;" 
d="M64 0v64h192v-64h-192zM0 64v64h64v-64h-64zM64 128v64h64v-64h-64zM0 192v128h64v-128h-64zM256 64v256h64v-256h-64zM64 320v64h192v-64h-192z" />
    <glyph glyph-name="uni029B" unicode="&#x29b;" horiz-adv-x="448" 
d="M64 0v64h192v-64h-192zM256 64v64h64v-64h-64zM128 128v64h128v-64h-128zM0 64v256h64v-256h-64zM256 256v64h-192v64h256v-128h-64zM320 384v128h64v-128h-64z" />
    <glyph glyph-name="uni029C" unicode="&#x29c;" horiz-adv-x="320" 
d="M0 0v384h64v-128h128v128h64v-384h-64v192h-128v-192h-64z" />
    <glyph glyph-name="uni029D" unicode="&#x29d;" horiz-adv-x="320" 
d="M64 -128v64h64v-64h-64zM0 -64v64h64v-64h-64zM64 0v64h64v-64h-64zM128 -64v64h64v384h64v-448h-128zM192 448v64h64v-64h-64z" />
    <glyph glyph-name="uni029E" unicode="&#x29e;" horiz-adv-x="320" 
d="M0 0v64h64v-64h-64zM64 64v64h64v-64h-64zM64 192v64h64v-64h-64zM0 256v64h64v-64h-64zM192 -192v320h-64v64h64v128h64v-512h-64z" />
    <glyph glyph-name="uni029F" unicode="&#x29f;" horiz-adv-x="256" 
d="M0 0v384h64v-320h128v-64h-192z" />
    <glyph glyph-name="uni02A0" unicode="&#x2a0;" horiz-adv-x="512" 
d="M64 0v64h192v-64h-192zM0 64v256h64v-256h-64zM64 320v64h192v-64h-192zM320 -192v256h-64v64h64v128h-64v64h64v64h64v-576h-64zM384 384v64h64v-64h-64z" />
    <glyph glyph-name="uni02A1" unicode="&#x2a1;" horiz-adv-x="448" 
d="M128 0v64h-128v64h128v128h192v-64h-128v-64h128v-64h-128v-64h-64zM0 384v64h64v-64h-64zM320 256v192h64v-192h-64zM64 448v64h256v-64h-256z" />
    <glyph glyph-name="uni02A2" unicode="&#x2a2;" horiz-adv-x="448" 
d="M192 0v64h-128v64h128v64h-128v64h192v-128h128v-64h-128v-64h-64zM0 256v192h64v-192h-64zM320 384v64h64v-64h-64zM64 448v64h256v-64h-256z" />
    <glyph glyph-name="uni02A3" unicode="&#x2a3;" horiz-adv-x="704" 
d="M64 0v64h128v-64h-128zM384 128v64h64v-64h-64zM448 192v64h64v-64h-64zM0 64v256h64v-256h-64zM64 320v64h128v-64h-128zM256 0v64h-64v64h64v128h-64v64h64v192h64v-128h320v-64h-64v-64h-64v64h-192v-192h64v-64h256v-64h-384z" />
    <glyph glyph-name="uni02A4" unicode="&#x2a4;" horiz-adv-x="640" 
d="M320 -192v64h192v-64h-192zM256 -128v64h64v-64h-64zM512 -128v128h64v-128h-64zM64 0v64h128v-64h-128zM448 128v64h64v-64h-64zM0 64v192h64v-192h-64zM64 256v64h128v-64h-128zM256 0v64h-64v64h64v64h-64v64h64v256h64v-192h256v-128h-64v64h-192v-192h64v64h64v-64
h64v-64h-256z" />
    <glyph glyph-name="uni02A5" unicode="&#x2a5;" horiz-adv-x="832" 
d="M64 0v64h128v-64h-128zM704 64v64h64v-64h-64zM384 128v64h64v-64h-64zM640 128v64h64v-64h-64zM0 64v192h64v-192h-64zM64 256v64h128v-64h-128zM512 -64v64h-256v64h-64v64h64v64h-64v64h64v256h64v-192h256v-64h-64v-64h-64v64h-128v-128h64v-64h192v64h64v-64h64v-64
h-128v-64h-64z" />
    <glyph glyph-name="uni02A6" unicode="&#x2a6;" horiz-adv-x="640" 
d="M128 0v64h384v-64h-384zM512 64v64h64v-64h-64zM320 128v64h192v-64h-192zM512 256v64h64v-64h-64zM64 64v256h-64v64h64v128h64v-128h384v-64h-192v-128h-64v128h-128v-256h-64z" />
    <glyph glyph-name="uni02A7" unicode="&#x2a7;" horiz-adv-x="512" 
d="M192 -64v64h-64v64h128v256h-128v-256h-64v256h-64v64h64v128h64v-128h128v64h64v-448h-64v-64h-64zM320 448v64h128v-64h-128z" />
    <glyph glyph-name="uni02A8" unicode="&#x2a8;" horiz-adv-x="704" 
d="M128 0v64h192v-64h-192zM384 -64v128h64v64h64v-64h64v-64h-128v-64h-64zM576 64v64h64v-64h-64zM512 128v64h64v-64h-64zM320 64v256h64v-256h-64zM576 256v64h64v-64h-64zM384 320v64h192v-64h-192zM64 64v256h-64v64h64v128h64v-128h192v-64h-192v-256h-64z" />
    <glyph glyph-name="uni02A9" unicode="&#x2a9;" horiz-adv-x="640" 
d="M448 -128v64h64v-64h-64zM512 -64v320h64v-320h-64zM384 256v64h128v-64h-128zM64 0v256h-64v64h64v128h64v-128h192v-64h64v-64h-64v-192h-64v256h-128v-256h-64zM128 448v64h128v-64h-128z" />
    <glyph glyph-name="uni02AA" unicode="&#x2aa;" horiz-adv-x="448" 
d="M128 0v64h192v-64h-192zM320 64v128h64v-128h-64zM128 192v64h192v-64h-192zM128 320v64h256v-64h-256zM0 0v512h64v-192h64v-64h-64v-128h64v-64h-64v-64h-64z" />
    <glyph glyph-name="uni02AB" unicode="&#x2ab;" 
d="M128 128v64h64v-64h-64zM192 192v64h64v-64h-64zM0 0v512h64v-128h256v-128h-64v64h-192v-192h64v-64h192v-64h-320z" />
    <glyph glyph-name="uni02AC" unicode="&#x2ac;" 
d="M64 64v64h64v-64h-64zM192 64v64h64v-64h-64zM0 128v128h64v-128h-64zM128 128v128h64v-128h-64zM256 128v128h64v-128h-64zM64 320v64h64v-64h-64zM192 320v64h64v-64h-64zM0 384v128h64v-128h-64zM128 384v128h64v-128h-64zM256 384v128h64v-128h-64z" />
    <glyph glyph-name="uni02AD" unicode="&#x2ad;" horiz-adv-x="320" 
d="M0 128v128h256v-128h-64v64h-128v-64h-64zM0 384v128h256v-128h-64v64h-128v-64h-64z" />
    <glyph glyph-name="uni02AE" unicode="&#x2ae;" horiz-adv-x="512" 
d="M192 0v64h128v-64h-128zM128 64v256h64v-256h-64zM0 320v64h128v-64h-128zM384 -128v192h-64v64h64v256h64v-512h-64z" />
    <glyph glyph-name="uni02AF" unicode="&#x2af;" horiz-adv-x="640" 
d="M448 -128v64h128v-64h-128zM192 0v64h128v-64h-128zM128 64v256h64v-256h-64zM0 320v64h128v-64h-128zM384 -64v128h-64v64h64v256h64v-448h-64z" />
    <glyph glyph-name="gravecomb" unicode="&#x300;" horiz-adv-x="0" 
d="M-192 448v64h64v-64h-64zM-256 512v64h64v-64h-64z" />
    <glyph glyph-name="acutecomb" unicode="&#x301;" horiz-adv-x="0" 
d="M-256 448v64h64v-64h-64zM-192 512v64h64v-64h-64z" />
    <glyph glyph-name="uni0302" unicode="&#x302;" horiz-adv-x="0" 
d="M-320 448v64h64v-64h-64zM-192 448v64h64v-64h-64zM-256 512v64h64v-64h-64z" />
    <glyph glyph-name="tildecomb" unicode="&#x303;" horiz-adv-x="0" 
d="M-320 448v64h64v-64h-64zM-192 448v64h64v-64h-64zM-256 512v64h64v-64h-64zM-128 512v64h64v-64h-64z" />
    <glyph glyph-name="uni0304" unicode="&#x304;" horiz-adv-x="0" 
d="M-320 448v64h192v-64h-192z" />
    <glyph glyph-name="uni0305" unicode="&#x305;" horiz-adv-x="0" 
d="M-320 448v64h256v-64h-256z" />
    <glyph glyph-name="uni0306" unicode="&#x306;" horiz-adv-x="0" 
d="M-256 448v64h128v-64h-128zM-320 512v64h64v-64h-64zM-128 512v64h64v-64h-64z" />
    <glyph glyph-name="uni0307" unicode="&#x307;" horiz-adv-x="-128" 
d="M-256 448v64h64v-64h-64z" />
    <glyph glyph-name="uni0308" unicode="&#x308;" horiz-adv-x="-64" 
d="M-320 448v64h64v-64h-64zM-192 448v64h64v-64h-64z" />
    <glyph glyph-name="hookabovecomb" unicode="&#x309;" horiz-adv-x="-64" 
d="M-256 384v64h64v-64h-64zM-192 448v64h64v-64h-64zM-256 512v64h64v-64h-64z" />
    <glyph glyph-name="uni030A" unicode="&#x30a;" horiz-adv-x="-64" 
d="M-256 384v64h64v-64h-64zM-320 448v64h64v-64h-64zM-192 448v64h64v-64h-64zM-256 512v64h64v-64h-64z" />
    <glyph glyph-name="uni030B" unicode="&#x30b;" horiz-adv-x="0" 
d="M-384 448v64h64v-64h-64zM-192 448v64h64v-64h-64zM-320 512v64h64v-64h-64zM-128 512v64h64v-64h-64z" />
    <glyph glyph-name="uni030C" unicode="&#x30c;" horiz-adv-x="-64" 
d="M-256 448v64h64v-64h-64zM-320 512v64h64v-64h-64zM-192 512v64h64v-64h-64z" />
    <glyph glyph-name="uni030D" unicode="&#x30d;" horiz-adv-x="-128" 
d="M-256 448v128h64v-128h-64z" />
    <glyph glyph-name="uni030E" unicode="&#x30e;" horiz-adv-x="-64" 
d="M-320 448v128h64v-128h-64zM-192 448v128h64v-128h-64z" />
    <glyph glyph-name="uni030F" unicode="&#x30f;" horiz-adv-x="0" 
d="M-320 448v64h64v-64h-64zM-128 448v64h64v-64h-64zM-384 512v64h64v-64h-64zM-192 512v64h64v-64h-64z" />
    <glyph glyph-name="uni0310" unicode="&#x310;" horiz-adv-x="0" 
d="M-256 384v64h128v-64h-128zM-320 448v64h64v-64h-64zM-128 448v64h64v-64h-64zM-256 576v64h128v-64h-128z" />
    <glyph glyph-name="uni0311" unicode="&#x311;" horiz-adv-x="0" 
d="M-320 448v64h64v-64h-64zM-128 448v64h64v-64h-64zM-256 512v64h128v-64h-128z" />
    <glyph glyph-name="uni0312" unicode="&#x312;" horiz-adv-x="0" 
d="M-256 384v64h64v-64h-64zM-192 448v64h64v-64h-64z" />
    <glyph glyph-name="uni0313" unicode="&#x313;" horiz-adv-x="0" 
d="M-256 384v64h64v-64h-64zM-192 448v64h64v-64h-64z" />
    <glyph glyph-name="uni0314" unicode="&#x314;" horiz-adv-x="-64" 
d="M-192 448v64h64v-64h-64zM-256 512v64h64v-64h-64z" />
    <glyph glyph-name="uni0315" unicode="&#x315;" horiz-adv-x="-64" 
d="M-256 448v64h64v-64h-64zM-192 512v64h64v-64h-64z" />
    <glyph glyph-name="uni0316" unicode="&#x316;" horiz-adv-x="0" 
d="M-192 -192v64h64v-64h-64zM-256 -128v64h64v-64h-64z" />
    <glyph glyph-name="uni0317" unicode="&#x317;" horiz-adv-x="-64" 
d="M-256 -192v64h64v-64h-64zM-192 -128v64h64v-64h-64z" />
    <glyph glyph-name="uni0318" unicode="&#x318;" horiz-adv-x="-64" 
d="M-192 -256v64h-128v64h128v64h64v-192h-64z" />
    <glyph glyph-name="uni0319" unicode="&#x319;" horiz-adv-x="-64" 
d="M-320 -256v192h64v-64h128v-64h-128v-64h-64z" />
    <glyph glyph-name="uni031A" unicode="&#x31a;" horiz-adv-x="0" 
d="M-128 448v64h-128v64h192v-128h-64z" />
    <glyph glyph-name="uni031B" unicode="&#x31b;" horiz-adv-x="0" 
d="M-256 384v64h128v-64h-128zM-128 448v128h64v-128h-64z" />
    <glyph glyph-name="uni031C" unicode="&#x31c;" horiz-adv-x="-64" 
d="M-192 -256v64h64v-64h-64zM-256 -192v64h64v-64h-64zM-192 -128v64h64v-64h-64z" />
    <glyph glyph-name="uni031D" unicode="&#x31d;" horiz-adv-x="-64" 
d="M-320 -256v64h64v128h64v-128h64v-64h-192z" />
    <glyph glyph-name="uni031E" unicode="&#x31e;" horiz-adv-x="-64" 
d="M-256 -256v128h-64v64h192v-64h-64v-128h-64z" />
    <glyph glyph-name="uni0374" unicode="&#x374;" horiz-adv-x="192" 
d="M0 320v64h64v-64h-64zM64 384v128h64v-128h-64z" />
    <glyph glyph-name="uni0375" unicode="&#x375;" horiz-adv-x="192" 
d="M0 0v64h64v-64h-64zM64 64v128h64v-128h-64z" />
    <glyph glyph-name="uni037A" unicode="&#x37a;" horiz-adv-x="320" 
d="M64 -64v128h64v-64h64v-64h-128zM192 0v64h64v-64h-64z" />
    <glyph glyph-name="uni037B" unicode="&#x37b;" 
d="M0 0v64h256v-64h-256zM0 256v64h64v-64h-64zM256 64v256h64v-256h-64zM64 320v64h192v-64h-192z" />
    <glyph glyph-name="uni037C" unicode="&#x37c;" 
d="M64 0v64h192v-64h-192zM256 64v64h64v-64h-64zM128 192v64h64v-64h-64zM0 64v256h64v-256h-64zM256 256v64h64v-64h-64zM64 320v64h192v-64h-192z" />
    <glyph glyph-name="uni037D" unicode="&#x37d;" 
d="M64 0v64h192v-64h-192zM0 64v64h64v-64h-64zM128 192v64h64v-64h-64zM0 256v64h64v-64h-64zM256 64v256h64v-256h-64zM64 320v64h192v-64h-192z" />
    <glyph glyph-name="uni037E" unicode="&#x37e;" horiz-adv-x="192" 
d="M0 -64v64h64v-64h-64zM64 0v64h64v-64h-64zM64 320v64h64v-64h-64z" />
    <glyph glyph-name="tonos" unicode="&#x384;" horiz-adv-x="128" 
d="M0 384v128h64v-128h-64z" />
    <glyph glyph-name="dieresistonos" unicode="&#x385;" 
d="M0 384v64h64v-64h-64zM256 384v64h64v-64h-64zM128 384v128h64v-128h-64z" />
    <glyph glyph-name="Alphatonos" unicode="&#x386;" horiz-adv-x="512" 
d="M0 0v128h64v-128h-64zM384 0v128h64v-128h-64zM64 128v128h64v128h64v-128h64v128h64v-128h64v-128h-64v64h-192v-64h-64zM0 384v128h64v-128h-64zM192 384v128h64v-128h-64z" />
    <glyph glyph-name="anoteleia" unicode="&#x387;" horiz-adv-x="128" 
d="M0 448v64h64v-64h-64z" />
    <glyph glyph-name="Epsilontonos" unicode="&#x388;" horiz-adv-x="576" 
d="M0 384v128h64v-128h-64zM128 0v512h384v-64h-320v-128h192v-64h-192v-192h320v-64h-384z" />
    <glyph glyph-name="Etatonos" unicode="&#x389;" horiz-adv-x="512" 
d="M0 384v128h64v-128h-64zM128 0v512h64v-192h192v192h64v-512h-64v256h-192v-256h-64z" />
    <glyph glyph-name="Iotatonos" unicode="&#x38a;" 
d="M0 384v128h64v-128h-64zM128 0v64h64v384h-64v64h192v-64h-64v-384h64v-64h-192z" />
    <glyph glyph-name="Omicrontonos" unicode="&#x38c;" horiz-adv-x="576" 
d="M192 0v64h256v-64h-256zM128 64v384h64v-384h-64zM448 64v384h64v-384h-64zM0 384v128h64v-128h-64zM192 448v64h256v-64h-256z" />
    <glyph glyph-name="Upsilontonos" unicode="&#x38e;" horiz-adv-x="512" 
d="M256 0v320h64v-320h-64zM192 320v64h64v-64h-64zM320 320v64h64v-64h-64zM0 384v128h64v-128h-64zM128 384v128h64v-128h-64zM384 384v128h64v-128h-64z" />
    <glyph glyph-name="Omegatonos" unicode="&#x38f;" horiz-adv-x="640" 
d="M0 0v64h192v64h64v-128h-256zM384 0v128h64v-64h128v-64h-192zM448 128v320h64v-320h-64zM0 384v128h64v-128h-64zM128 128v320h64v64h256v-64h-192v-64h-64v-256h-64z" />
    <glyph glyph-name="iotadieresistonos" unicode="&#x390;" 
d="M192 0v64h64v-64h-64zM128 64v256h64v-256h-64zM0 384v64h64v-64h-64zM256 384v64h64v-64h-64zM128 384v128h64v-128h-64z" />
    <glyph glyph-name="Alpha" unicode="&#x391;" horiz-adv-x="512" 
d="M0 0v128h64v-128h-64zM384 0v128h64v-128h-64zM64 128v128h64v128h64v-128h64v128h64v-128h64v-128h-64v64h-192v-64h-64zM192 384v128h64v-128h-64z" />
    <glyph glyph-name="Beta" unicode="&#x392;" 
d="M256 64v192h64v-192h-64zM256 320v128h64v-128h-64zM0 0v512h256v-64h-192v-128h192v-64h-192v-192h192v-64h-256z" />
    <glyph glyph-name="Gamma" unicode="&#x393;" horiz-adv-x="320" 
d="M0 0v512h256v-64h-192v-448h-64z" />
    <glyph glyph-name="Delta" unicode="&#x394;" horiz-adv-x="512" 
d="M0 0v128h64v-64h320v64h64v-128h-448zM64 128v128h64v-128h-64zM320 128v128h64v-128h-64zM128 256v128h64v-128h-64zM256 256v128h64v-128h-64zM192 384v128h64v-128h-64z" />
    <glyph glyph-name="Epsilon" unicode="&#x395;" 
d="M0 0v512h320v-64h-256v-128h192v-64h-192v-192h256v-64h-320z" />
    <glyph glyph-name="Zeta" unicode="&#x396;" horiz-adv-x="448" 
d="M0 0v128h64v-64h320v-64h-384zM64 128v64h64v-64h-64zM128 192v64h64v-64h-64zM192 256v64h64v-64h-64zM256 320v64h64v-64h-64zM320 384v64h-320v64h384v-128h-64z" />
    <glyph glyph-name="Eta" unicode="&#x397;" 
d="M0 0v512h64v-192h192v192h64v-512h-64v256h-192v-256h-64z" />
    <glyph glyph-name="Theta" unicode="&#x398;" horiz-adv-x="448" 
d="M64 0v64h256v-64h-256zM128 256v64h128v-64h-128zM0 64v384h64v-384h-64zM320 64v384h64v-384h-64zM64 448v64h256v-64h-256z" />
    <glyph glyph-name="Iota" unicode="&#x399;" horiz-adv-x="256" 
d="M0 0v64h64v384h-64v64h192v-64h-64v-384h64v-64h-192z" />
    <glyph glyph-name="Kappa" unicode="&#x39a;" 
d="M256 0v64h64v-64h-64zM192 64v64h64v-64h-64zM128 128v128h64v-128h-64zM128 320v64h64v-64h-64zM192 384v64h64v-64h-64zM0 0v512h64v-192h64v-64h-64v-256h-64zM256 448v64h64v-64h-64z" />
    <glyph glyph-name="Lambda" unicode="&#x39b;" horiz-adv-x="512" 
d="M0 0v128h64v-128h-64zM384 0v128h64v-128h-64zM64 128v128h64v-128h-64zM320 128v128h64v-128h-64zM128 256v128h64v-128h-64zM256 256v128h64v-128h-64zM192 384v128h64v-128h-64z" />
    <glyph glyph-name="Mu" unicode="&#x39c;" horiz-adv-x="640" 
d="M256 0v192h64v-192h-64zM192 192v128h64v-128h-64zM320 192v128h64v-128h-64zM128 320v128h64v-128h-64zM384 320v128h64v-128h-64zM0 0v512h128v-64h-64v-448h-64zM512 0v448h-64v64h128v-512h-64z" />
    <glyph glyph-name="Nu" unicode="&#x39d;" horiz-adv-x="576" 
d="M320 64v128h64v-128h-64zM256 192v64h64v-64h-64zM192 256v128h64v-128h-64zM128 384v64h64v-64h-64zM0 0v512h128v-64h-64v-448h-64zM384 0v64h64v448h64v-512h-128z" />
    <glyph glyph-name="Xi" unicode="&#x39e;" 
d="M0 0v64h320v-64h-320zM64 256v64h192v-64h-192zM0 448v64h320v-64h-320z" />
    <glyph glyph-name="Omicron" unicode="&#x39f;" horiz-adv-x="448" 
d="M64 0v64h256v-64h-256zM0 64v384h64v-384h-64zM320 64v384h64v-384h-64zM64 448v64h256v-64h-256z" />
    <glyph glyph-name="Pi" unicode="&#x3a0;" horiz-adv-x="512" 
d="M64 0v448h-64v64h448v-64h-64v-448h-64v448h-192v-448h-64z" />
    <glyph glyph-name="Rho" unicode="&#x3a1;" 
d="M256 320v128h64v-128h-64zM0 0v512h256v-64h-192v-128h192v-64h-192v-256h-64z" />
    <glyph glyph-name="Sigma" unicode="&#x3a3;" 
d="M0 0v128h64v-64h256v-64h-320zM64 128v64h64v-64h-64zM128 192v128h64v-128h-64zM64 320v64h64v-64h-64zM0 384v128h320v-64h-256v-64h-64z" />
    <glyph glyph-name="Tau" unicode="&#x3a4;" 
d="M128 0v448h-128v64h320v-64h-128v-448h-64z" />
    <glyph glyph-name="Upsilon" unicode="&#x3a5;" 
d="M128 0v320h64v-320h-64zM64 320v128h64v-128h-64zM192 320v128h64v-128h-64zM0 448v64h64v-64h-64zM256 448v64h64v-64h-64z" />
    <glyph glyph-name="Phi" unicode="&#x3a6;" 
d="M0 128v256h64v-256h-64zM256 128v256h64v-256h-64zM128 0v64h-64v64h64v256h-64v64h64v64h64v-64h64v-64h-64v-256h64v-64h-64v-64h-64z" />
    <glyph glyph-name="Chi" unicode="&#x3a7;" horiz-adv-x="512" 
d="M0 0v64h64v-64h-64zM384 0v64h64v-64h-64zM64 64v64h64v-64h-64zM320 64v64h64v-64h-64zM128 128v64h64v-64h-64zM256 128v64h64v-64h-64zM192 192v128h64v-128h-64zM128 320v64h64v-64h-64zM256 320v64h64v-64h-64zM64 384v64h64v-64h-64zM320 384v64h64v-64h-64zM0 448
v64h64v-64h-64zM384 448v64h64v-64h-64z" />
    <glyph glyph-name="Psi" unicode="&#x3a8;" horiz-adv-x="512" 
d="M64 320v128h64v-128h-64zM320 320v128h64v-128h-64zM0 448v64h64v-64h-64zM192 0v256h-64v64h64v192h64v-192h64v-64h-64v-256h-64zM384 448v64h64v-64h-64z" />
    <glyph glyph-name="Omega" unicode="&#x3a9;" horiz-adv-x="512" 
d="M0 0v64h128v64h64v-128h-192zM256 0v128h64v-64h128v-64h-192zM64 128v64h64v-64h-64zM320 128v64h64v-64h-64zM0 192v256h64v-256h-64zM384 192v256h64v-256h-64zM64 448v64h320v-64h-320z" />
    <glyph glyph-name="Iotadieresis" unicode="&#x3aa;" horiz-adv-x="256" 
d="M64 0v512h64v-512h-64zM0 576v64h64v-64h-64zM128 576v64h64v-64h-64z" />
    <glyph glyph-name="Upsilondieresis" unicode="&#x3ab;" 
d="M128 0v384h64v-384h-64zM64 384v64h64v-64h-64zM192 384v64h64v-64h-64zM0 448v64h64v-64h-64zM256 448v64h64v-64h-64zM64 576v64h64v-64h-64zM192 576v64h64v-64h-64z" />
    <glyph glyph-name="alphatonos" unicode="&#x3ac;" horiz-adv-x="576" 
d="M64 0v64h192v-64h-192zM256 64v64h64v-64h-64zM448 0v128h64v-128h-64zM320 128v128h128v-128h-128zM0 64v256h64v-256h-64zM256 256v64h64v-64h-64zM64 320v64h192v-64h-192zM448 256v128h64v-128h-64zM256 448v128h64v-128h-64z" />
    <glyph glyph-name="epsilontonos" unicode="&#x3ad;" 
d="M64 0v64h256v-64h-256zM0 64v256h64v-64h192v-64h-192v-128h-64zM64 320v64h256v-64h-256zM128 448v128h64v-128h-64z" />
    <glyph glyph-name="etatonos" unicode="&#x3ae;" horiz-adv-x="448" 
d="M64 0v320h64v-320h-64zM320 -128v448h64v-448h-64zM0 320v64h64v-64h-64zM128 320v64h192v-64h-192zM192 448v128h64v-128h-64z" />
    <glyph glyph-name="iotatonos" unicode="&#x3af;" horiz-adv-x="192" 
d="M64 0v64h64v-64h-64zM0 64v320h64v-320h-64zM0 448v128h64v-128h-64z" />
    <glyph glyph-name="upsilondieresistonos" unicode="&#x3b0;" horiz-adv-x="448" 
d="M64 0v64h256v-64h-256zM320 64v192h64v-192h-64zM256 256v64h64v-64h-64zM0 64v320h64v-320h-64zM192 320v64h64v-64h-64zM0 448v64h64v-64h-64zM256 448v64h64v-64h-64zM128 448v128h64v-128h-64z" />
    <glyph glyph-name="alpha" unicode="&#x3b1;" horiz-adv-x="576" 
d="M64 0v64h192v-64h-192zM256 64v64h64v-64h-64zM448 0v128h64v-128h-64zM320 128v128h128v-128h-128zM0 64v256h64v-256h-64zM256 256v64h64v-64h-64zM64 320v64h192v-64h-192zM448 256v128h64v-128h-64z" />
    <glyph glyph-name="beta" unicode="&#x3b2;" 
d="M128 0v64h128v-64h-128zM256 64v128h64v-128h-64zM128 192v64h128v-64h-128zM0 -128v576h64v-320h64v-64h-64v-192h-64zM256 256v192h64v-192h-64zM64 448v64h192v-64h-192z" />
    <glyph glyph-name="gamma" unicode="&#x3b3;" horiz-adv-x="512" 
d="M192 -128v256h64v-256h-64zM128 128v64h64v-64h-64zM256 128v64h64v-64h-64zM64 192v128h64v-128h-64zM320 192v128h64v-128h-64zM0 320v64h64v-64h-64zM384 320v64h64v-64h-64z" />
    <glyph glyph-name="delta" unicode="&#x3b4;" 
d="M64 0v64h192v-64h-192zM0 64v128h64v-128h-64zM64 192v64h128v-64h-128zM256 64v192h64v-192h-64zM192 256v128h64v-128h-64zM128 384v64h64v-64h-64zM0 448v64h128v-64h-128z" />
    <glyph glyph-name="epsilon" unicode="&#x3b5;" horiz-adv-x="320" 
d="M64 0v64h192v-64h-192zM0 64v256h64v-64h128v-64h-128v-128h-64zM64 320v64h192v-64h-192z" />
    <glyph glyph-name="zeta" unicode="&#x3b6;" horiz-adv-x="448" 
d="M192 -128v64h128v-64h-128zM320 -64v64h64v-64h-64zM64 0v64h256v-64h-256zM0 64v256h64v-256h-64zM64 320v64h-64v64h128v64h64v-64h128v-64h-192v-64h-64zM320 448v64h64v-64h-64zM192 512v64h128v-64h-128z" />
    <glyph glyph-name="eta" unicode="&#x3b7;" horiz-adv-x="448" 
d="M64 0v320h64v-320h-64zM320 -128v448h64v-448h-64zM0 320v64h64v-64h-64zM128 320v64h192v-64h-192z" />
    <glyph glyph-name="theta" unicode="&#x3b8;" horiz-adv-x="448" 
d="M128 0v64h128v-64h-128zM64 64v64h64v-64h-64zM256 64v64h64v-64h-64zM0 128v256h64v-64h256v64h64v-256h-64v128h-256v-128h-64zM64 384v64h64v-64h-64zM256 384v64h64v-64h-64zM128 448v64h128v-64h-128z" />
    <glyph glyph-name="iota" unicode="&#x3b9;" horiz-adv-x="192" 
d="M64 0v64h64v-64h-64zM0 64v320h64v-320h-64z" />
    <glyph glyph-name="kappa" unicode="&#x3ba;" 
d="M256 0v128h64v-128h-64zM192 128v64h64v-64h-64zM128 192v64h64v-64h-64zM192 256v64h64v-64h-64zM0 0v384h64v-192h64v-64h-64v-128h-64zM256 320v64h64v-64h-64z" />
    <glyph glyph-name="lambda" unicode="&#x3bb;" 
d="M0 0v128h64v-128h-64zM256 0v128h64v-128h-64zM64 128v128h64v-128h-64zM192 128v128h64v-128h-64zM128 256v128h64v-128h-64zM64 384v64h64v-64h-64zM0 448v64h64v-64h-64z" />
    <glyph glyph-name="mu" unicode="&#x3bc;" horiz-adv-x="448" 
d="M128 0v64h128v-64h-128zM0 -128v512h64v-256h64v-64h-64v-192h-64zM320 0v64h-64v64h64v256h64v-384h-64z" />
    <glyph glyph-name="nu" unicode="&#x3bd;" horiz-adv-x="512" 
d="M192 0v64h64v-64h-64zM128 64v128h64v-128h-64zM256 64v128h64v-128h-64zM64 192v64h64v-64h-64zM320 192v64h64v-64h-64zM0 256v128h64v-128h-64zM384 256v128h64v-128h-64z" />
    <glyph glyph-name="xi" unicode="&#x3be;" horiz-adv-x="448" 
d="M192 -128v64h128v-64h-128zM320 -64v64h64v-64h-64zM128 0v64h192v-64h-192zM64 64v128h64v-128h-64zM128 192v64h192v-64h-192zM64 256v64h64v-64h-64zM128 320v64h-128v64h192v64h192v-128h-192v-64h-64z" />
    <glyph glyph-name="omicron" unicode="&#x3bf;" 
d="M64 0v64h192v-64h-192zM0 64v256h64v-256h-64zM256 64v256h64v-256h-64zM64 320v64h192v-64h-192z" />
    <glyph glyph-name="pi" unicode="&#x3c0;" horiz-adv-x="512" 
d="M384 0v64h64v-64h-64zM0 256v64h64v-64h-64zM128 0v320h-64v64h384v-64h-64v-256h-64v256h-128v-320h-64z" />
    <glyph glyph-name="rho" unicode="&#x3c1;" 
d="M0 -128v448h64v-256h192v-64h-192v-128h-64zM256 64v256h64v-256h-64zM64 320v64h192v-64h-192z" />
    <glyph glyph-name="sigma1" unicode="&#x3c2;" 
d="M128 -128v64h128v-64h-128zM256 -64v64h64v-64h-64zM64 0v64h192v-64h-192zM0 64v256h64v-256h-64zM64 320v64h256v-64h-256z" />
    <glyph glyph-name="sigma" unicode="&#x3c3;" horiz-adv-x="512" 
d="M64 0v64h192v-64h-192zM0 64v256h64v-256h-64zM256 64v256h-192v64h384v-64h-128v-256h-64z" />
    <glyph glyph-name="tau" unicode="&#x3c4;" horiz-adv-x="448" 
d="M256 0v64h64v-64h-64zM0 256v64h64v-64h-64zM192 64v256h-128v64h320v-64h-128v-256h-64z" />
    <glyph glyph-name="upsilon" unicode="&#x3c5;" horiz-adv-x="448" 
d="M64 0v64h256v-64h-256zM320 64v256h64v-256h-64zM0 64v320h64v-320h-64zM256 320v64h64v-64h-64z" />
    <glyph glyph-name="phi" unicode="&#x3c6;" horiz-adv-x="512" 
d="M0 64v256h64v-256h-64zM384 64v256h64v-256h-64zM192 -128v128h-128v64h128v256h-128v64h128v128h64v-128h128v-64h-128v-256h128v-64h-128v-128h-64z" />
    <glyph glyph-name="chi" unicode="&#x3c7;" horiz-adv-x="512" 
d="M0 -128v64h64v-64h-64zM384 -128v64h64v-64h-64zM64 -64v64h64v-64h-64zM320 -64v64h64v-64h-64zM128 0v64h64v-64h-64zM256 0v64h64v-64h-64zM192 64v64h64v-64h-64zM128 128v64h64v-64h-64zM256 128v64h64v-64h-64zM64 192v64h64v-64h-64zM320 192v64h64v-64h-64z
M0 256v128h64v-128h-64zM384 256v128h64v-128h-64z" />
    <glyph glyph-name="psi" unicode="&#x3c8;" horiz-adv-x="576" 
d="M64 64v192h64v-192h-64zM448 64v192h64v-192h-64zM0 256v64h64v-64h-64zM384 256v64h64v-64h-64zM256 -128v128h-128v64h128v320h64v-320h128v-64h-128v-128h-64z" />
    <glyph glyph-name="omega" unicode="&#x3c9;" horiz-adv-x="704" 
d="M64 0v64h192v-64h-192zM384 0v64h192v-64h-192zM256 64v192h128v-192h-128zM0 64v256h64v-256h-64zM576 64v256h64v-256h-64zM64 320v64h64v-64h-64zM512 320v64h64v-64h-64z" />
    <glyph glyph-name="iotadieresis" unicode="&#x3ca;" horiz-adv-x="256" 
d="M128 0v64h64v-64h-64zM64 64v320h64v-320h-64zM0 448v64h64v-64h-64zM128 448v64h64v-64h-64z" />
    <glyph glyph-name="upsilondieresis" unicode="&#x3cb;" horiz-adv-x="448" 
d="M64 0v64h256v-64h-256zM320 64v256h64v-256h-64zM0 64v320h64v-320h-64zM256 320v64h64v-64h-64zM64 448v64h64v-64h-64zM192 448v64h64v-64h-64z" />
    <glyph glyph-name="omicrontonos" unicode="&#x3cc;" 
d="M64 0v64h192v-64h-192zM0 64v256h64v-256h-64zM256 64v256h64v-256h-64zM64 320v64h192v-64h-192zM128 448v128h64v-128h-64z" />
    <glyph glyph-name="upsilontonos" unicode="&#x3cd;" 
d="M64 0v64h192v-64h-192zM256 64v256h64v-256h-64zM0 64v320h64v-320h-64zM192 320v64h64v-64h-64zM128 448v128h64v-128h-64z" />
    <glyph glyph-name="omegatonos" unicode="&#x3ce;" horiz-adv-x="704" 
d="M64 0v64h192v-64h-192zM384 0v64h192v-64h-192zM256 64v192h128v-192h-128zM0 64v256h64v-256h-64zM576 64v256h64v-256h-64zM64 320v64h64v-64h-64zM512 320v64h64v-64h-64zM256 384v128h64v-128h-64z" />
    <glyph glyph-name="uni03D0" unicode="&#x3d0;" horiz-adv-x="256" 
d="M64 0v64h64v-64h-64zM128 64v64h64v-64h-64zM0 64v384h64v-64h64v-64h-64v-128h64v-64h-64v-64h-64zM128 384v64h64v-64h-64zM64 448v64h64v-64h-64z" />
    <glyph glyph-name="theta1" unicode="&#x3d1;" horiz-adv-x="448" 
d="M128 0v64h128v-64h-128zM64 64v64h64v-64h-64zM0 128v64h64v-64h-64zM64 320v128h64v-128h-64zM256 64v192h-128v64h128v128h64v-128h64v-64h-64v-192h-64zM128 448v64h128v-64h-128z" />
    <glyph glyph-name="phi1" unicode="&#x3d5;" horiz-adv-x="512" 
d="M0 64v256h64v-256h-64zM192 -128v128h-128v64h128v256h64v-256h128v-64h-128v-128h-64zM384 64v256h64v-256h-64zM64 320v64h128v-64h-128zM256 320v64h128v-64h-128z" />
    <glyph glyph-name="omega1" unicode="&#x3d6;" horiz-adv-x="704" 
d="M64 0v64h192v-64h-192zM384 0v64h192v-64h-192zM0 64v128h64v-128h-64zM576 64v128h64v-128h-64zM64 192v64h64v-64h-64zM256 64v192h128v-192h-128zM512 192v64h64v-64h-64zM128 256v64h-128v64h640v-64h-128v-64h-64v64h-256v-64h-64z" />
    <glyph glyph-name="uni03D7" unicode="&#x3d7;" horiz-adv-x="512" 
d="M320 -128v64h64v-64h-64zM384 -64v128h64v-128h-64zM320 64v64h64v-64h-64zM0 320v64h128v-64h-128zM0 0v64h64v64h64v192h64v-128h64v128h64v64h128v-64h-64v-64h-64v-128h-128v-64h-64v-64h-128z" />
    <glyph glyph-name="uni03DA" unicode="&#x3da;" 
d="M128 -128v64h128v-64h-128zM256 -64v64h64v-64h-64zM64 0v64h192v-64h-192zM0 64v384h64v-384h-64zM64 448v64h256v-64h-256z" />
    <glyph glyph-name="uni03DB" unicode="&#x3db;" 
d="M128 -128v64h128v-64h-128zM256 -64v64h64v-64h-64zM64 0v64h192v-64h-192zM0 64v256h64v-256h-64zM64 320v64h256v-64h-256z" />
    <glyph glyph-name="uni03DC" unicode="&#x3dc;" 
d="M0 0v512h320v-64h-256v-128h192v-64h-192v-256h-64z" />
    <glyph glyph-name="uni03DD" unicode="&#x3dd;" horiz-adv-x="448" 
d="M64 -64v64h128v-64h-128zM0 0v64h64v-64h-64zM192 0v448h64v-128h128v-64h-128v-256h-64zM256 448v64h128v-64h-128z" />
    <glyph glyph-name="uni03DE" unicode="&#x3de;" 
d="M128 0v64h64v-64h-64zM192 64v64h64v-64h-64zM256 128v64h-256v64h64v64h64v-64h192v-128h-64zM128 320v64h64v-64h-64z" />
    <glyph glyph-name="uni03DF" unicode="&#x3df;" 
d="M64 0v64h64v-64h-64zM128 64v64h128v-64h-128zM256 128v64h-256v192h64v-128h256v-128h-64zM64 384v64h128v-64h-128zM192 448v64h64v-64h-64z" />
    <glyph glyph-name="uni0400" unicode="&#x400;" 
d="M0 0v512h320v-64h-256v-128h192v-64h-192v-192h256v-64h-320zM128 576v64h64v-64h-64zM64 640v64h64v-64h-64z" />
    <glyph glyph-name="afii10023" unicode="&#x401;" 
d="M0 0v512h320v-64h-256v-128h192v-64h-192v-192h256v-64h-320zM64 576v64h64v-64h-64zM192 576v64h64v-64h-64z" />
    <glyph glyph-name="afii10051" unicode="&#x402;" horiz-adv-x="512" 
d="M256 0v64h128v-64h-128zM384 64v192h64v-192h-64zM256 256v64h128v-64h-128zM128 0v448h-128v64h320v-64h-128v-192h64v-64h-64v-192h-64z" />
    <glyph glyph-name="afii10052" unicode="&#x403;" 
d="M0 0v512h320v-64h-256v-448h-64zM128 576v64h64v-64h-64zM192 640v64h64v-64h-64z" />
    <glyph glyph-name="afii10053" unicode="&#x404;" horiz-adv-x="448" 
d="M128 0v64h256v-64h-256zM64 64v64h64v-64h-64zM0 128v256h64v-64h256v-64h-256v-128h-64zM64 384v64h64v-64h-64zM128 448v64h256v-64h-256z" />
    <glyph glyph-name="afii10054" unicode="&#x405;" 
d="M64 0v64h192v-64h-192zM0 64v64h64v-64h-64zM256 64v192h64v-192h-64zM64 256v64h192v-64h-192zM0 320v128h64v-128h-64zM256 384v64h64v-64h-64zM64 448v64h192v-64h-192z" />
    <glyph glyph-name="afii10055" unicode="&#x406;" horiz-adv-x="128" 
d="M0 0v512h64v-512h-64z" />
    <glyph glyph-name="afii10056" unicode="&#x407;" horiz-adv-x="256" 
d="M64 0v512h64v-512h-64zM0 576v64h64v-64h-64zM128 576v64h64v-64h-64z" />
    <glyph glyph-name="afii10057" unicode="&#x408;" horiz-adv-x="256" 
d="M0 0v64h128v-64h-128zM128 64v448h64v-448h-64z" />
    <glyph glyph-name="afii10058" unicode="&#x409;" horiz-adv-x="640" 
d="M0 0v64h128v-64h-128zM512 64v128h64v-128h-64zM256 0v448h-64v-384h-64v448h192v-256h192v-64h-192v-128h192v-64h-256z" />
    <glyph glyph-name="afii10059" unicode="&#x40a;" horiz-adv-x="512" 
d="M384 64v128h64v-128h-64zM0 0v512h64v-192h128v192h64v-256h128v-64h-128v-128h128v-64h-192v256h-128v-256h-64z" />
    <glyph glyph-name="afii10060" unicode="&#x40b;" horiz-adv-x="512" 
d="M384 0v256h64v-256h-64zM256 256v64h128v-64h-128zM128 0v448h-128v64h320v-64h-128v-192h64v-64h-64v-192h-64z" />
    <glyph glyph-name="afii10061" unicode="&#x40c;" 
d="M256 0v128h64v-128h-64zM192 128v64h64v-64h-64zM128 192v64h64v-64h-64zM128 320v64h64v-64h-64zM192 384v64h64v-64h-64zM0 0v512h64v-192h64v-64h-64v-256h-64zM256 448v64h64v-64h-64zM128 576v64h64v-64h-64zM192 640v64h64v-64h-64z" />
    <glyph glyph-name="uni040D" unicode="&#x40d;" horiz-adv-x="448" 
d="M128 128v128h64v-128h-64zM192 256v128h64v-128h-64zM0 0v512h64v-384h64v-64h-64v-64h-64zM320 0v384h-64v64h64v64h64v-512h-64zM192 576v64h64v-64h-64zM128 640v64h64v-64h-64z" />
    <glyph glyph-name="afii10062" unicode="&#x40e;" horiz-adv-x="512" 
d="M0 0v64h128v-64h-128zM128 64v128h64v-128h-64zM192 192v64h64v-64h-64zM128 256v64h64v-64h-64zM256 256v64h64v-64h-64zM64 320v128h64v-128h-64zM320 320v128h64v-128h-64zM0 448v64h64v-64h-64zM384 448v64h64v-64h-64zM128 512v128h64v-64h64v64h64v-128h-192z" />
    <glyph glyph-name="afii10145" unicode="&#x40f;" horiz-adv-x="448" 
d="M128 -128v128h-128v512h64v-448h256v448h64v-512h-192v-128h-64z" />
    <glyph glyph-name="afii10017" unicode="&#x410;" horiz-adv-x="512" 
d="M0 0v128h64v-128h-64zM384 0v128h64v-128h-64zM64 128v128h64v128h64v-128h64v128h64v-128h64v-128h-64v64h-192v-64h-64zM192 384v128h64v-128h-64z" />
    <glyph glyph-name="afii10018" unicode="&#x411;" 
d="M256 64v128h64v-128h-64zM0 0v512h320v-64h-256v-192h192v-64h-192v-128h192v-64h-256z" />
    <glyph glyph-name="afii10019" unicode="&#x412;" horiz-adv-x="448" 
d="M320 64v192h64v-192h-64zM320 320v128h64v-128h-64zM0 0v512h320v-64h-256v-128h256v-64h-256v-192h256v-64h-320z" />
    <glyph glyph-name="afii10020" unicode="&#x413;" 
d="M0 0v512h320v-64h-256v-448h-64z" />
    <glyph glyph-name="afii10021" unicode="&#x414;" horiz-adv-x="576" 
d="M0 -64v128h64v128h64v-128h256v384h-192v-256h-64v320h320v-448h64v-128h-64v64h-384v-64h-64z" />
    <glyph glyph-name="afii10022" unicode="&#x415;" 
d="M0 0v512h320v-64h-256v-128h128v-64h-128v-192h256v-64h-320z" />
    <glyph glyph-name="afii10024" unicode="&#x416;" horiz-adv-x="640" 
d="M0 0v64h128v-64h-128zM448 0v64h128v-64h-128zM128 64v192h64v-192h-64zM384 64v192h64v-192h-64zM128 320v128h64v-128h-64zM384 320v128h64v-128h-64zM0 448v64h128v-64h-128zM256 0v256h-64v64h64v192h64v-192h64v-64h-64v-256h-64zM448 448v64h128v-64h-128z" />
    <glyph glyph-name="afii10025" unicode="&#x417;" horiz-adv-x="448" 
d="M64 0v64h256v-64h-256zM0 64v64h64v-64h-64zM320 64v192h64v-192h-64zM192 256v64h128v-64h-128zM0 384v64h64v-64h-64zM320 320v128h64v-128h-64zM64 448v64h256v-64h-256z" />
    <glyph glyph-name="afii10026" unicode="&#x418;" horiz-adv-x="448" 
d="M128 128v128h64v-128h-64zM192 256v128h64v-128h-64zM0 0v512h64v-384h64v-64h-64v-64h-64zM320 0v384h-64v64h64v64h64v-512h-64z" />
    <glyph glyph-name="afii10027" unicode="&#x419;" horiz-adv-x="448" 
d="M128 128v128h64v-128h-64zM192 256v128h64v-128h-64zM0 0v512h64v-384h64v-64h-64v-64h-64zM320 0v384h-64v64h64v64h64v-512h-64zM64 576v128h64v-64h64v64h64v-128h-192z" />
    <glyph glyph-name="afii10028" unicode="&#x41a;" 
d="M256 0v128h64v-128h-64zM192 128v64h64v-64h-64zM128 192v64h64v-64h-64zM128 320v64h64v-64h-64zM192 384v64h64v-64h-64zM0 0v512h64v-192h64v-64h-64v-256h-64zM256 448v64h64v-64h-64z" />
    <glyph glyph-name="afii10029" unicode="&#x41b;" horiz-adv-x="448" 
d="M0 0v64h128v-64h-128zM320 0v448h-128v-384h-64v448h256v-512h-64z" />
    <glyph glyph-name="afii10030" unicode="&#x41c;" horiz-adv-x="512" 
d="M192 192v192h64v-192h-64zM128 384v64h64v-64h-64zM256 384v64h64v-64h-64zM0 0v512h128v-64h-64v-448h-64zM384 0v448h-64v64h128v-512h-64z" />
    <glyph glyph-name="afii10031" unicode="&#x41d;" horiz-adv-x="448" 
d="M0 0v512h64v-192h256v192h64v-512h-64v256h-256v-256h-64z" />
    <glyph glyph-name="afii10032" unicode="&#x41e;" 
d="M64 0v64h192v-64h-192zM0 64v384h64v-384h-64zM256 64v384h64v-384h-64zM64 448v64h192v-64h-192z" />
    <glyph glyph-name="afii10033" unicode="&#x41f;" 
d="M0 0v512h320v-512h-64v448h-192v-448h-64z" />
    <glyph glyph-name="afii10034" unicode="&#x420;" 
d="M256 320v128h64v-128h-64zM0 0v512h256v-64h-192v-128h192v-64h-192v-256h-64z" />
    <glyph glyph-name="afii10035" unicode="&#x421;" 
d="M64 0v64h192v-64h-192zM256 64v64h64v-64h-64zM0 64v384h64v-384h-64zM256 384v64h64v-64h-64zM64 448v64h192v-64h-192z" />
    <glyph glyph-name="afii10036" unicode="&#x422;" 
d="M128 0v448h-128v64h320v-64h-128v-448h-64z" />
    <glyph glyph-name="afii10037" unicode="&#x423;" 
d="M0 0v128h64v-128h-64zM64 128v128h64v-128h-64zM128 256v64h64v-64h-64zM64 320v64h64v-64h-64zM192 320v64h64v-64h-64zM0 384v128h64v-128h-64zM256 384v128h64v-128h-64z" />
    <glyph glyph-name="afii10038" unicode="&#x424;" 
d="M0 128v256h64v-256h-64zM256 128v256h64v-256h-64zM128 0v64h-64v64h64v256h-64v64h64v64h64v-64h64v-64h-64v-256h64v-64h-64v-64h-64z" />
    <glyph glyph-name="afii10039" unicode="&#x425;" horiz-adv-x="448" 
d="M0 0v128h64v-128h-64zM320 0v128h64v-128h-64zM64 128v64h64v-64h-64zM256 128v64h64v-64h-64zM128 192v128h128v-128h-128zM64 320v64h64v-64h-64zM256 320v64h64v-64h-64zM0 384v128h64v-128h-64zM320 384v128h64v-128h-64z" />
    <glyph glyph-name="afii10040" unicode="&#x426;" horiz-adv-x="512" 
d="M384 -64v64h-384v512h64v-448h256v448h64v-448h64v-128h-64z" />
    <glyph glyph-name="afii10041" unicode="&#x427;" 
d="M64 256v64h64v-64h-64zM0 320v192h64v-192h-64zM256 0v192h-128v64h128v256h64v-512h-64z" />
    <glyph glyph-name="afii10042" unicode="&#x428;" horiz-adv-x="512" 
d="M0 0v512h64v-448h128v448h64v-448h128v448h64v-512h-448z" />
    <glyph glyph-name="afii10043" unicode="&#x429;" horiz-adv-x="576" 
d="M448 -64v64h-448v512h64v-448h128v448h64v-448h128v448h64v-448h64v-128h-64z" />
    <glyph glyph-name="afii10044" unicode="&#x42a;" horiz-adv-x="576" 
d="M448 64v128h64v-128h-64zM192 0v448h-192v64h256v-256h192v-64h-192v-128h192v-64h-256z" />
    <glyph glyph-name="afii10045" unicode="&#x42b;" horiz-adv-x="576" 
d="M320 64v192h64v-192h-64zM0 0v512h64v-192h256v-64h-256v-192h256v-64h-320zM448 0v512h64v-512h-64z" />
    <glyph glyph-name="afii10046" unicode="&#x42c;" 
d="M256 64v192h64v-192h-64zM0 0v512h64v-192h192v-64h-192v-192h192v-64h-256z" />
    <glyph glyph-name="afii10047" unicode="&#x42d;" horiz-adv-x="448" 
d="M64 0v64h256v-64h-256zM0 64v64h64v-64h-64zM0 384v64h64v-64h-64zM320 64v192h-192v64h192v128h64v-384h-64zM64 448v64h256v-64h-256z" />
    <glyph glyph-name="afii10048" unicode="&#x42e;" horiz-adv-x="576" 
d="M192 0v64h256v-64h-256zM448 64v384h64v-384h-64zM0 0v512h64v-192h64v128h64v-384h-64v192h-64v-256h-64zM192 448v64h256v-64h-256z" />
    <glyph glyph-name="afii10049" unicode="&#x42f;" 
d="M0 0v64h64v-64h-64zM64 64v128h64v-128h-64zM0 320v128h64v-128h-64zM256 0v256h-64v-64h-64v64h-64v64h192v128h-192v64h256v-512h-64z" />
    <glyph glyph-name="afii10065" unicode="&#x430;" horiz-adv-x="448" 
d="M64 0v64h192v-64h-192zM320 0v64h64v-64h-64zM0 64v64h64v-64h-64zM0 256v64h64v-64h-64zM256 64v64h-192v64h192v128h64v-256h-64zM64 320v64h192v-64h-192z" />
    <glyph glyph-name="afii10066" unicode="&#x431;" horiz-adv-x="320" 
d="M64 0v64h128v-64h-128zM192 64v192h64v-192h-64zM0 64v384h64v-128h128v-64h-128v-192h-64zM64 448v64h192v-64h-192z" />
    <glyph glyph-name="afii10067" unicode="&#x432;" 
d="M256 64v128h64v-128h-64zM256 256v64h64v-64h-64zM0 0v384h256v-64h-192v-64h192v-64h-192v-128h192v-64h-256z" />
    <glyph glyph-name="afii10068" unicode="&#x433;" horiz-adv-x="320" 
d="M0 0v384h256v-64h-192v-320h-64z" />
    <glyph glyph-name="afii10069" unicode="&#x434;" horiz-adv-x="448" 
d="M128 128v192h64v-192h-64zM0 -64v128h64v64h64v-64h192v256h-128v64h192v-448h-64v64h-256v-64h-64z" />
    <glyph glyph-name="afii10070" unicode="&#x435;" 
d="M64 0v64h192v-64h-192zM256 64v64h64v-64h-64zM0 64v256h64v-64h192v64h64v-128h-256v-128h-64zM64 320v64h192v-64h-192z" />
    <glyph glyph-name="afii10072" unicode="&#x436;" horiz-adv-x="512" 
d="M0 0v64h64v-64h-64zM384 0v64h64v-64h-64zM64 64v128h64v-128h-64zM320 64v128h64v-128h-64zM64 256v64h64v-64h-64zM320 256v64h64v-64h-64zM0 320v64h64v-64h-64zM192 0v192h-64v64h64v128h64v-128h64v-64h-64v-192h-64zM384 320v64h64v-64h-64z" />
    <glyph glyph-name="afii10073" unicode="&#x437;" 
d="M64 0v64h192v-64h-192zM0 64v64h64v-64h-64zM256 64v128h64v-128h-64zM128 192v64h128v-64h-128zM0 256v64h64v-64h-64zM256 256v64h64v-64h-64zM64 320v64h192v-64h-192z" />
    <glyph glyph-name="afii10074" unicode="&#x438;" horiz-adv-x="448" 
d="M128 128v64h64v-64h-64zM192 192v64h64v-64h-64zM0 0v384h64v-256h64v-64h-64v-64h-64zM320 0v256h-64v64h64v64h64v-384h-64z" />
    <glyph glyph-name="afii10075" unicode="&#x439;" horiz-adv-x="448" 
d="M128 128v64h64v-64h-64zM192 192v64h64v-64h-64zM0 0v384h64v-256h64v-64h-64v-64h-64zM320 0v256h-64v64h64v64h64v-384h-64zM64 448v128h64v-64h128v64h64v-128h-256z" />
    <glyph glyph-name="afii10076" unicode="&#x43a;" 
d="M256 0v64h64v-64h-64zM192 64v64h64v-64h-64zM128 128v64h64v-64h-64zM128 256v64h64v-64h-64zM0 0v384h64v-128h64v-64h-64v-192h-64zM192 320v64h128v-64h-128z" />
    <glyph glyph-name="afii10077" unicode="&#x43b;" 
d="M0 0v64h64v-64h-64zM256 0v320h-128v-256h-64v320h256v-384h-64z" />
    <glyph glyph-name="afii10078" unicode="&#x43c;" 
d="M128 128v192h64v-192h-64zM0 0v384h128v-64h-64v-320h-64zM256 0v320h-64v64h128v-384h-64z" />
    <glyph glyph-name="afii10079" unicode="&#x43d;" 
d="M0 0v384h64v-128h192v128h64v-384h-64v192h-192v-192h-64z" />
    <glyph glyph-name="afii10080" unicode="&#x43e;" 
d="M64 0v64h192v-64h-192zM0 64v256h64v-256h-64zM256 64v256h64v-256h-64zM64 320v64h192v-64h-192z" />
    <glyph glyph-name="afii10081" unicode="&#x43f;" 
d="M0 0v384h320v-384h-64v320h-192v-320h-64z" />
    <glyph glyph-name="afii10082" unicode="&#x440;" 
d="M128 0v64h128v-64h-128zM256 64v256h64v-256h-64zM0 -128v512h64v-64h64v-64h-64v-128h64v-64h-64v-192h-64zM128 320v64h128v-64h-128z" />
    <glyph glyph-name="afii10083" unicode="&#x441;" 
d="M64 0v64h192v-64h-192zM256 64v64h64v-64h-64zM0 64v256h64v-256h-64zM256 256v64h64v-64h-64zM64 320v64h192v-64h-192z" />
    <glyph glyph-name="afii10084" unicode="&#x442;" 
d="M128 0v320h-128v64h320v-64h-128v-320h-64z" />
    <glyph glyph-name="afii10085" unicode="&#x443;" 
d="M0 -128v64h64v-64h-64zM64 -64v64h64v-64h-64zM128 0v128h64v-128h-64zM64 128v128h64v-128h-64zM192 128v128h64v-128h-64zM0 256v128h64v-128h-64zM256 256v128h64v-128h-64z" />
    <glyph glyph-name="afii10086" unicode="&#x444;" 
d="M0 64v256h64v-256h-64zM256 64v256h64v-256h-64zM128 -128v128h-64v64h64v256h-64v64h64v128h64v-128h64v-64h-64v-256h64v-64h-64v-128h-64z" />
    <glyph glyph-name="afii10087" unicode="&#x445;" 
d="M0 0v64h64v-64h-64zM256 0v64h64v-64h-64zM64 64v64h64v-64h-64zM192 64v64h64v-64h-64zM128 128v128h64v-128h-64zM64 256v64h64v-64h-64zM192 256v64h64v-64h-64zM0 320v64h64v-64h-64zM256 320v64h64v-64h-64z" />
    <glyph glyph-name="afii10088" unicode="&#x446;" 
d="M256 -64v64h-256v384h64v-320h128v320h64v-320h64v-128h-64z" />
    <glyph glyph-name="afii10089" unicode="&#x447;" horiz-adv-x="320" 
d="M0 256v128h64v-128h-64zM192 0v192h-128v64h128v128h64v-384h-64z" />
    <glyph glyph-name="afii10090" unicode="&#x448;" horiz-adv-x="512" 
d="M0 0v384h64v-320h128v320h64v-320h128v320h64v-384h-448z" />
    <glyph glyph-name="afii10091" unicode="&#x449;" horiz-adv-x="576" 
d="M448 -64v64h-448v384h64v-320h128v320h64v-320h128v320h64v-320h64v-128h-64z" />
    <glyph glyph-name="afii10092" unicode="&#x44a;" horiz-adv-x="448" 
d="M320 64v128h64v-128h-64zM64 0v320h-64v64h128v-128h192v-64h-192v-128h192v-64h-256z" />
    <glyph glyph-name="afii10093" unicode="&#x44b;" horiz-adv-x="512" 
d="M256 64v128h64v-128h-64zM0 0v384h64v-128h192v-64h-192v-128h192v-64h-256zM384 0v384h64v-384h-64z" />
    <glyph glyph-name="afii10094" unicode="&#x44c;" 
d="M256 64v128h64v-128h-64zM0 0v384h64v-128h192v-64h-192v-128h192v-64h-256z" />
    <glyph glyph-name="afii10095" unicode="&#x44d;" 
d="M0 0v64h256v-64h-256zM256 64v128h-128v64h128v64h64v-256h-64zM0 320v64h256v-64h-256z" />
    <glyph glyph-name="afii10096" unicode="&#x44e;" horiz-adv-x="512" 
d="M192 0v64h192v-64h-192zM384 64v256h64v-256h-64zM0 0v384h64v-128h64v64h64v-256h-64v128h-64v-192h-64zM192 320v64h192v-64h-192z" />
    <glyph glyph-name="afii10097" unicode="&#x44f;" 
d="M0 0v64h64v-64h-64zM0 192v128h64v-128h-64zM256 0v128h-128v-64h-64v128h192v128h-192v64h256v-384h-64z" />
    <glyph glyph-name="uni0450" unicode="&#x450;" 
d="M64 0v64h192v-64h-192zM256 64v64h64v-64h-64zM0 64v256h64v-64h192v64h64v-128h-256v-128h-64zM64 320v64h192v-64h-192zM128 448v64h64v-64h-64zM64 512v64h64v-64h-64z" />
    <glyph glyph-name="afii10071" unicode="&#x451;" 
d="M64 0v64h192v-64h-192zM256 64v64h64v-64h-64zM0 64v256h64v-64h192v64h64v-128h-256v-128h-64zM64 320v64h192v-64h-192z" />
    <glyph glyph-name="afii10099" unicode="&#x452;" horiz-adv-x="448" 
d="M192 -128v64h128v-64h-128zM320 -64v320h64v-320h-64zM192 256v64h128v-64h-128zM64 0v384h-64v64h64v64h64v-64h64v-64h-64v-128h64v-64h-64v-192h-64z" />
    <glyph glyph-name="afii10100" unicode="&#x453;" 
d="M0 0v384h320v-64h-256v-320h-64zM128 448v64h64v-64h-64zM192 512v64h64v-64h-64z" />
    <glyph glyph-name="afii10101" unicode="&#x454;" horiz-adv-x="320" 
d="M64 0v64h192v-64h-192zM0 64v256h64v-64h128v-64h-128v-128h-64zM64 320v64h192v-64h-192z" />
    <glyph glyph-name="afii10102" unicode="&#x455;" horiz-adv-x="320" 
d="M0 0v64h192v-64h-192zM192 64v64h64v-64h-64zM64 128v64h128v-64h-128zM0 192v128h64v-128h-64zM192 256v64h64v-64h-64zM64 320v64h128v-64h-128z" />
    <glyph glyph-name="afii10103" unicode="&#x456;" horiz-adv-x="128" 
d="M0 0v384h64v-384h-64zM0 448v64h64v-64h-64z" />
    <glyph glyph-name="afii10104" unicode="&#x457;" horiz-adv-x="256" 
d="M64 0v512h64v-512h-64zM0 576v64h64v-64h-64zM128 576v64h64v-64h-64z" />
    <glyph glyph-name="afii10105" unicode="&#x458;" horiz-adv-x="256" 
d="M0 -64v64h128v-64h-128zM128 0v512h64v-512h-64zM128 576v64h64v-64h-64z" />
    <glyph glyph-name="afii10106" unicode="&#x459;" horiz-adv-x="512" 
d="M0 0v64h64v-64h-64zM384 64v128h64v-128h-64zM192 0v320h-64v-256h-64v320h192v-128h128v-64h-128v-128h128v-64h-192z" />
    <glyph glyph-name="afii10107" unicode="&#x45a;" horiz-adv-x="512" 
d="M384 64v128h64v-128h-64zM0 0v384h64v-128h128v128h64v-128h128v-64h-128v-128h128v-64h-192v192h-128v-192h-64z" />
    <glyph glyph-name="afii10108" unicode="&#x45b;" horiz-adv-x="448" 
d="M320 0v256h64v-256h-64zM192 256v64h128v-64h-128zM64 0v384h-64v64h64v64h64v-64h64v-64h-64v-128h64v-64h-64v-192h-64z" />
    <glyph glyph-name="afii10109" unicode="&#x45c;" horiz-adv-x="320" 
d="M192 0v128h64v-128h-64zM128 128v64h64v-64h-64zM128 256v64h64v-64h-64zM0 0v384h64v-128h64v-64h-64v-192h-64zM192 320v64h64v-64h-64zM64 448v64h64v-64h-64zM128 512v64h64v-64h-64z" />
    <glyph glyph-name="uni045D" unicode="&#x45d;" 
d="M128 128v128h64v-128h-64zM0 0v384h64v-256h64v-64h-64v-64h-64zM256 0v256h-64v64h64v64h64v-384h-64zM128 448v64h64v-64h-64zM64 512v64h64v-64h-64z" />
    <glyph glyph-name="afii10110" unicode="&#x45e;" 
d="M64 -128v128h64v-128h-64zM128 0v128h64v-128h-64zM64 128v128h64v-128h-64zM192 128v128h64v-128h-64zM0 256v128h64v-128h-64zM256 256v128h64v-128h-64zM64 448v128h64v-64h64v64h64v-128h-192z" />
    <glyph glyph-name="afii10193" unicode="&#x45f;" 
d="M128 -64v64h-128v384h64v-320h192v320h64v-384h-128v-64h-64z" />
    <glyph glyph-name="uni0460" unicode="&#x460;" horiz-adv-x="640" 
d="M64 0v64h192v-64h-192zM320 0v64h192v-64h-192zM256 64v192h64v-192h-64zM0 64v384h64v-384h-64zM512 64v384h64v-384h-64zM64 448v64h128v-64h-128zM384 448v64h128v-64h-128z" />
    <glyph glyph-name="uni0461" unicode="&#x461;" horiz-adv-x="512" 
d="M64 0v64h128v-64h-128zM256 0v64h128v-64h-128zM192 64v192h64v-192h-64zM0 64v256h64v-256h-64zM384 64v256h64v-256h-64zM64 320v64h64v-64h-64zM320 320v64h64v-64h-64z" />
    <glyph glyph-name="afii10146" unicode="&#x462;" horiz-adv-x="448" 
d="M320 64v128h64v-128h-64zM64 0v384h-64v64h64v64h64v-64h128v-64h-128v-128h192v-64h-192v-128h192v-64h-256z" />
    <glyph glyph-name="afii10194" unicode="&#x463;" 
d="M256 64v128h64v-128h-64zM64 0v320h-64v64h64v128h64v-128h64v-64h-64v-64h128v-64h-128v-128h128v-64h-192z" />
    <glyph glyph-name="uni0464" unicode="&#x464;" horiz-adv-x="576" 
d="M192 0v64h256v-64h-256zM448 64v64h64v-64h-64zM448 384v64h64v-64h-64zM0 0v512h64v-192h64v128h64v-128h192v-64h-192v-192h-64v192h-64v-256h-64zM192 448v64h256v-64h-256z" />
    <glyph glyph-name="uni0465" unicode="&#x465;" horiz-adv-x="512" 
d="M192 0v64h192v-64h-192zM384 64v64h64v-64h-64zM384 256v64h64v-64h-64zM0 0v384h64v-128h64v64h64v-64h128v-64h-128v-128h-64v128h-64v-192h-64zM192 320v64h192v-64h-192z" />
    <glyph glyph-name="uni0466" unicode="&#x466;" horiz-adv-x="512" 
d="M0 0v128h64v-128h-64zM384 0v128h64v-128h-64zM192 0v192h-64v-64h-64v128h64v128h64v-128h64v128h64v-128h64v-128h-64v64h-64v-192h-64zM192 384v128h64v-128h-64z" />
    <glyph glyph-name="uni0467" unicode="&#x467;" 
d="M0 0v128h64v-128h-64zM256 0v128h64v-128h-64zM128 0v128h-64v128h64v-64h64v64h64v-128h-64v-128h-64zM128 256v128h64v-128h-64z" />
    <glyph glyph-name="uni0468" unicode="&#x468;" horiz-adv-x="640" 
d="M128 0v128h64v-128h-64zM512 0v128h64v-128h-64zM0 0v512h64v-192h192v64h64v-128h64v128h64v-128h64v-128h-64v64h-64v-192h-64v192h-64v-64h-64v128h-128v-256h-64zM320 384v128h64v-128h-64z" />
    <glyph glyph-name="uni0469" unicode="&#x469;" horiz-adv-x="512" 
d="M128 0v128h64v-128h-64zM384 0v128h64v-128h-64zM0 0v384h64v-128h192v-64h64v64h64v-128h-64v-128h-64v128h-64v64h-128v-192h-64zM256 256v128h64v-128h-64z" />
    <glyph glyph-name="uni046A" unicode="&#x46a;" horiz-adv-x="512" 
d="M0 0v192h64v-192h-64zM384 0v192h64v-192h-64zM192 0v192h-128v64h128v64h64v-64h128v-64h-128v-192h-64zM64 320v64h128v-64h-128zM256 320v64h128v-64h-128zM0 384v128h448v-128h-64v64h-320v-64h-64z" />
    <glyph glyph-name="uni046B" unicode="&#x46b;" 
d="M0 0v64h64v-64h-64zM256 0v64h64v-64h-64zM128 0v64h-64v64h64v64h64v-64h64v-64h-64v-64h-64zM64 192v64h-64v64h320v-64h-64v-64h-64v64h-64v-64h-64z" />
    <glyph glyph-name="uni046C" unicode="&#x46c;" horiz-adv-x="640" 
d="M128 0v192h64v-192h-64zM512 0v192h64v-192h-64zM448 192v64h64v-64h-64zM0 0v512h64v-192h192v64h64v-64h64v64h64v-128h-64v-256h-64v256h-64v-64h-64v64h-128v-256h-64zM192 384v64h-64v64h448v-64h-64v-64h-64v64h-192v-64h-64z" />
    <glyph glyph-name="uni046D" unicode="&#x46d;" horiz-adv-x="512" 
d="M384 0v128h64v-128h-64zM0 0v384h64v-192h192v64h64v-64h64v-64h-64v-128h-64v128h-64v-128h-64v128h-64v-128h-64zM192 256v64h-64v64h320v-64h-64v-64h-64v64h-64v-64h-64z" />
    <glyph glyph-name="uni046E" unicode="&#x46e;" 
d="M64 -128v64h128v-64h-128zM0 -64v64h64v-64h-64zM64 0v64h192v-64h-192zM256 64v192h64v-192h-64zM128 256v64h128v-64h-128zM0 384v64h64v-64h-64zM256 320v128h64v-128h-64zM64 448v64h192v-64h-192zM128 576v64h64v-64h-64zM64 640v64h64v-64h-64zM192 640v64h64v-64
h-64z" />
    <glyph glyph-name="uni046F" unicode="&#x46f;" horiz-adv-x="320" 
d="M64 -128v64h128v-64h-128zM0 -64v64h64v-64h-64zM64 0v64h128v-64h-128zM192 64v128h64v-128h-64zM128 192v64h64v-64h-64zM0 256v64h64v-64h-64zM192 256v64h64v-64h-64zM64 320v64h128v-64h-128zM64 448v64h64v-64h-64zM0 512v64h64v-64h-64zM128 512v64h64v-64h-64z
" />
    <glyph glyph-name="uni0470" unicode="&#x470;" horiz-adv-x="512" 
d="M0 320v192h64v-192h-64zM192 0v256h-128v64h128v192h64v-192h128v-64h-128v-256h-64zM384 320v192h64v-192h-64z" />
    <glyph glyph-name="uni0471" unicode="&#x471;" 
d="M0 64v320h64v-320h-64zM128 -128v128h-64v64h64v320h64v-320h64v-64h-64v-128h-64zM256 64v320h64v-320h-64z" />
    <glyph glyph-name="afii10147" unicode="&#x472;" horiz-adv-x="448" 
d="M64 0v64h256v-64h-256zM192 192v64h64v-64h-64zM128 256v64h64v-64h-64zM0 64v384h64v-192h64v-64h-64v-128h-64zM320 64v192h-64v64h64v128h64v-384h-64zM64 448v64h256v-64h-256z" />
    <glyph glyph-name="afii10195" unicode="&#x473;" 
d="M64 0v64h192v-64h-192zM128 192v64h64v-64h-64zM0 64v256h64v-128h64v-64h-64v-64h-64zM256 64v64h-64v64h64v128h64v-256h-64zM64 320v64h192v-64h-192z" />
    <glyph glyph-name="afii10148" unicode="&#x474;" horiz-adv-x="512" 
d="M192 0v128h64v-128h-64zM128 128v128h64v-128h-64zM256 128v128h64v-128h-64zM64 256v128h64v-128h-64zM320 256v128h64v-128h-64zM0 384v128h64v-128h-64zM384 384v128h64v-128h-64z" />
    <glyph glyph-name="afii10196" unicode="&#x475;" horiz-adv-x="448" 
d="M128 0v128h64v-128h-64zM64 128v128h64v-128h-64zM192 128v128h64v-128h-64zM0 256v128h64v-128h-64zM256 256v128h128v-64h-64v-64h-64z" />
    <glyph glyph-name="uni0476" unicode="&#x476;" horiz-adv-x="512" 
d="M192 0v128h64v-128h-64zM128 128v128h64v-128h-64zM256 128v128h64v-128h-64zM64 256v128h64v-128h-64zM320 256v128h64v-128h-64zM0 384v128h64v-128h-64zM384 384v128h64v-128h-64zM128 576v64h64v-64h-64zM320 576v64h64v-64h-64zM64 640v64h64v-64h-64zM256 640v64
h64v-64h-64z" />
    <glyph glyph-name="uni0477" unicode="&#x477;" horiz-adv-x="448" 
d="M128 0v128h64v-128h-64zM64 128v128h64v-128h-64zM192 128v128h64v-128h-64zM0 256v128h64v-128h-64zM256 256v128h128v-64h-64v-64h-64zM128 448v64h64v-64h-64zM320 448v64h64v-64h-64zM64 512v64h64v-64h-64zM256 512v64h64v-64h-64z" />
    <glyph glyph-name="uni0478" unicode="&#x478;" horiz-adv-x="832" 
d="M448 -128v64h128v-64h-128zM64 0v64h256v-64h-256zM576 -64v128h64v-128h-64zM512 64v128h64v-128h-64zM640 64v128h64v-128h-64zM448 192v192h64v-192h-64zM704 192v192h64v-192h-64zM0 64v384h64v-384h-64zM320 64v384h64v-384h-64zM64 448v64h256v-64h-256z" />
    <glyph glyph-name="uni0479" unicode="&#x479;" horiz-adv-x="768" 
d="M384 -128v64h128v-64h-128zM64 0v64h192v-64h-192zM512 -64v192h64v-192h-64zM448 128v128h64v-128h-64zM576 128v128h64v-128h-64zM0 64v256h64v-256h-64zM256 64v256h64v-256h-64zM64 320v64h192v-64h-192zM384 256v128h64v-128h-64zM640 256v128h64v-128h-64z" />
    <glyph glyph-name="uni047A" unicode="&#x47a;" horiz-adv-x="448" 
d="M128 -64v64h-64v64h64v64h64v-64h128v-64h-128v-64h-64zM0 64v384h64v-384h-64zM320 64v384h64v-384h-64zM128 384v64h-64v64h64v64h64v-64h128v-64h-128v-64h-64z" />
    <glyph glyph-name="uni047B" unicode="&#x47b;" 
d="M128 -64v64h-64v64h64v64h64v-64h64v-64h-64v-64h-64zM0 64v256h64v-256h-64zM256 64v256h64v-256h-64zM128 256v64h-64v64h64v64h64v-64h64v-64h-64v-64h-64z" />
    <glyph glyph-name="uni047C" unicode="&#x47c;" horiz-adv-x="640" 
d="M64 0v64h192v-64h-192zM320 0v64h192v-64h-192zM256 64v192h64v-192h-64zM0 64v320h64v-320h-64zM512 64v320h64v-320h-64zM64 384v64h64v-64h-64zM448 384v64h64v-64h-64zM384 448v64h64v-64h-64zM128 512v128h192v64h64v-128h-192v-64h-64z" />
    <glyph glyph-name="uni047D" unicode="&#x47d;" horiz-adv-x="512" 
d="M64 0v64h128v-64h-128zM256 0v64h128v-64h-128zM192 64v128h64v-128h-64zM0 64v256h64v-256h-64zM384 64v256h64v-256h-64zM64 320v64h64v-64h-64zM320 320v64h64v-64h-64zM128 448v128h128v64h64v-128h-128v-64h-64z" />
    <glyph glyph-name="uni047E" unicode="&#x47e;" horiz-adv-x="640" 
d="M64 0v64h192v-64h-192zM320 0v64h192v-64h-192zM256 64v192h64v-192h-64zM0 64v384h64v-384h-64zM512 64v384h64v-384h-64zM64 448v64h64v-64h-64zM448 448v64h64v-64h-64zM128 576v128h64v-64h64v128h64v-128h64v64h64v-128h-320z" />
    <glyph glyph-name="uni047F" unicode="&#x47f;" horiz-adv-x="512" 
d="M64 0v64h128v-64h-128zM256 0v64h128v-64h-128zM192 64v128h64v-128h-64zM0 64v256h64v-256h-64zM384 64v256h64v-256h-64zM64 320v64h64v-64h-64zM320 320v64h64v-64h-64zM64 448v128h64v-64h64v64h64v-64h64v64h64v-128h-320z" />
    <glyph glyph-name="uni0480" unicode="&#x480;" horiz-adv-x="448" 
d="M320 -64v64h-256v64h256v64h64v-192h-64zM0 64v384h64v-384h-64zM320 384v64h64v-64h-64zM64 448v64h256v-64h-256z" />
    <glyph glyph-name="uni0481" unicode="&#x481;" 
d="M256 -64v64h-192v64h192v64h64v-192h-64zM0 64v256h64v-256h-64zM256 256v64h64v-64h-64zM64 320v64h192v-64h-192z" />
    <glyph glyph-name="uni0482" unicode="&#x482;" 
d="M0 0v128h64v-128h-64zM192 64v64h64v-64h-64zM64 128v128h64v-64h64v-64h-128zM256 192v64h64v-64h-64zM0 256v64h64v-64h-64zM128 256v128h64v-64h64v-64h-128zM64 384v64h64v-64h-64zM0 448v64h64v-64h-64zM192 384v128h64v-128h-64z" />
    <glyph glyph-name="uni0483" unicode="&#x483;" horiz-adv-x="256" 
d="M0 320v128h128v64h64v-128h-128v-64h-64z" />
    <glyph glyph-name="uni0484" unicode="&#x484;" horiz-adv-x="320" 
d="M0 384v64h64v-64h-64zM64 448v64h64v-64h-64zM192 448v64h64v-64h-64zM128 512v64h64v-64h-64z" />
    <glyph glyph-name="uni0485" unicode="&#x485;" horiz-adv-x="320" 
d="M0 320v192h64v-64h192v-64h-192v-64h-64z" />
    <glyph glyph-name="uni0486" unicode="&#x486;" horiz-adv-x="320" 
d="M192 320v64h-192v64h192v64h64v-192h-64z" />
    <glyph glyph-name="uni0487" unicode="&#x487;" horiz-adv-x="64" 
d="M-256 384v64h64v-64h-64zM-128 384v64h128v-64h-128zM-192 448v64h64v-64h-64z" />
    <glyph glyph-name="uni048A" unicode="&#x48a;" horiz-adv-x="512" 
d="M320 -128v64h64v-64h-64zM128 128v128h64v-128h-64zM192 256v128h64v-128h-64zM0 0v512h64v-384h64v-64h-64v-64h-64zM384 -64v64h-64v384h-64v64h64v64h64v-448h64v-128h-64zM64 576v128h64v-64h64v64h64v-128h-192z" />
    <glyph glyph-name="uni048B" unicode="&#x48b;" horiz-adv-x="448" 
d="M256 -128v64h64v-64h-64zM128 128v128h64v-128h-64zM0 0v384h64v-256h64v-64h-64v-64h-64zM320 -64v64h-64v256h-64v64h64v64h64v-320h64v-128h-64zM64 448v128h64v-64h64v64h64v-128h-192z" />
    <glyph glyph-name="uni048C" unicode="&#x48c;" horiz-adv-x="448" 
d="M320 64v128h64v-128h-64zM64 0v384h-64v64h64v64h64v-64h64v-64h-64v-128h192v-64h-192v-128h192v-64h-256z" />
    <glyph glyph-name="uni048D" unicode="&#x48d;" horiz-adv-x="320" 
d="M192 64v64h64v-64h-64zM64 0v448h-64v64h64v64h64v-64h64v-64h-64v-256h64v-64h-64v-64h64v-64h-128z" />
    <glyph glyph-name="uni048E" unicode="&#x48e;" horiz-adv-x="448" 
d="M320 128v64h64v-64h-64zM320 320v128h64v-128h-64zM0 0v512h320v-64h-256v-128h128v64h64v-64h64v-128h-64v64h-192v-256h-64z" />
    <glyph glyph-name="uni048F" unicode="&#x48f;" horiz-adv-x="512" 
d="M384 -64v64h64v-64h-64zM128 0v64h128v-64h-128zM320 0v64h64v-64h-64zM256 64v64h-64v64h64v128h64v-256h-64zM0 -128v512h64v-64h64v-64h-64v-128h64v-64h-64v-192h-64zM128 320v64h128v-64h-128z" />
    <glyph glyph-name="afii10050" unicode="&#x490;" horiz-adv-x="448" 
d="M0 0v512h320v64h64v-128h-320v-448h-64z" />
    <glyph glyph-name="afii10098" unicode="&#x491;" 
d="M0 0v384h256v64h64v-128h-256v-320h-64z" />
    <glyph glyph-name="uni0492" unicode="&#x492;" horiz-adv-x="448" 
d="M64 0v256h-64v64h64v192h320v-64h-256v-128h128v-64h-128v-256h-64z" />
    <glyph glyph-name="uni0493" unicode="&#x493;" 
d="M64 0v128h-64v64h64v128h256v-64h-192v-64h128v-64h-128v-128h-64z" />
    <glyph glyph-name="uni0494" unicode="&#x494;" 
d="M128 -64v64h128v-64h-128zM256 0v256h64v-256h-64zM128 256v64h128v-64h-128zM0 0v512h320v-64h-256v-192h64v-64h-64v-192h-64z" />
    <glyph glyph-name="uni0495" unicode="&#x495;" 
d="M128 -64v64h128v-64h-128zM256 0v192h64v-192h-64zM128 192v64h128v-64h-128zM0 0v384h320v-64h-256v-128h64v-64h-64v-128h-64z" />
    <glyph glyph-name="uni0496" unicode="&#x496;" horiz-adv-x="576" 
d="M0 0v192h64v-192h-64zM448 -64v64h-64v192h64v-128h64v-128h-64zM64 192v64h64v-64h-64zM320 192v64h64v-64h-64zM64 320v64h64v-64h-64zM320 320v64h64v-64h-64zM0 384v128h64v-128h-64zM192 0v256h-64v64h64v192h64v-192h64v-64h-64v-256h-64zM384 384v128h64v-128h-64
z" />
    <glyph glyph-name="uni0497" unicode="&#x497;" horiz-adv-x="576" 
d="M0 0v128h64v-128h-64zM448 -64v64h-64v128h64v-64h64v-128h-64zM64 128v64h64v-64h-64zM320 128v64h64v-64h-64zM64 256v64h64v-64h-64zM320 256v64h64v-64h-64zM0 320v64h64v-64h-64zM192 0v192h-64v64h64v128h64v-128h64v-64h-64v-192h-64zM384 320v64h64v-64h-64z" />
    <glyph glyph-name="uni0498" unicode="&#x498;" 
d="M64 -128v64h64v-64h-64zM128 -64v64h-64v64h192v-64h-64v-64h-64zM0 64v64h64v-64h-64zM256 64v128h64v-128h-64zM128 192v64h128v-64h-128zM0 384v64h64v-64h-64zM256 256v192h64v-192h-64zM64 448v64h192v-64h-192z" />
    <glyph glyph-name="uni0499" unicode="&#x499;" horiz-adv-x="320" 
d="M64 -128v64h64v-64h-64zM128 -64v64h-128v64h192v-128h-64zM192 64v128h64v-128h-64zM64 192v64h128v-64h-128zM192 256v64h64v-64h-64zM0 320v64h192v-64h-192z" />
    <glyph glyph-name="uni0500" unicode="&#x500;" horiz-adv-x="448" 
d="M0 64v128h64v-128h-64zM64 0v64h256v128h-256v64h256v256h64v-512h-320z" />
    <glyph glyph-name="uni0501" unicode="&#x501;" horiz-adv-x="448" 
d="M64 0v64h192v-64h-192zM0 64v256h64v-256h-64zM64 320v64h192v-64h-192zM320 0v64h-64v64h64v128h-64v64h64v192h64v-512h-64z" />
    <glyph glyph-name="uni0502" unicode="&#x502;" horiz-adv-x="576" 
d="M64 0v64h192v-64h-192zM320 0v64h128v-64h-128zM448 64v128h64v-128h-64zM0 64v256h64v-256h-64zM256 64v256h-192v64h192v128h64v-448h-64z" />
    <glyph glyph-name="uni0503" unicode="&#x503;" horiz-adv-x="576" 
d="M64 0v64h128v-64h-128zM320 0v64h128v-64h-128zM448 64v128h64v-128h-64zM0 64v256h64v-256h-64zM64 320v64h128v-64h-128zM192 64v64h64v128h-64v64h64v192h64v-448h-128z" />
    <glyph glyph-name="uni0504" unicode="&#x504;" horiz-adv-x="576" 
d="M320 0v64h128v-64h-128zM448 64v128h64v-128h-64zM256 64v192h64v-192h-64zM128 256v64h128v-64h-128zM0 384v64h64v-64h-64zM256 320v128h64v-128h-64zM64 448v64h192v-64h-192z" />
    <glyph glyph-name="uni0505" unicode="&#x505;" horiz-adv-x="512" 
d="M256 0v64h128v-64h-128zM192 64v128h64v-128h-64zM384 64v128h64v-128h-64zM128 192v64h64v-64h-64zM0 256v64h64v-64h-64zM192 256v64h64v-64h-64zM64 320v64h128v-64h-128z" />
    <glyph glyph-name="uni051A" unicode="&#x51a;" horiz-adv-x="448" 
d="M64 0v64h192v-64h-192zM320 0v64h64v-64h-64zM256 64v64h64v-64h-64zM192 128v64h64v-64h-64zM0 64v384h64v-384h-64zM320 128v320h64v-320h-64zM64 448v64h256v-64h-256z" />
    <glyph glyph-name="uni051B" unicode="&#x51b;" 
d="M64 0v64h128v-64h-128zM0 64v256h64v-256h-64zM64 320v64h128v-64h-128zM256 -128v192h-64v64h64v128h-64v64h64v64h64v-512h-64z" />
    <glyph glyph-name="uni051C" unicode="&#x51c;" horiz-adv-x="640" 
d="M128 0v128h64v-128h-64zM384 0v128h64v-128h-64zM64 128v192h64v-192h-64zM192 128v192h64v-192h-64zM320 128v192h64v-192h-64zM448 128v192h64v-192h-64zM0 320v192h64v-192h-64zM256 320v192h64v-192h-64zM512 320v192h64v-192h-64z" />
    <glyph glyph-name="uni051D" unicode="&#x51d;" 
d="M64 0v64h64v-64h-64zM192 0v64h64v-64h-64zM128 64v192h64v-192h-64zM0 64v256h64v-256h-64zM256 64v256h64v-256h-64z" />
    <glyph glyph-name="uni0600" unicode="&#x600;" horiz-adv-x="576" 
d="M0 0v64h384v64h64v-64h64v-64h-512zM448 128v64h64v-64h-64z" />
    <glyph glyph-name="uni0601" unicode="&#x601;" horiz-adv-x="960" 
d="M64 0v64h128v-64h-128zM832 0v64h64v-64h-64zM0 64v64h64v-64h-64zM320 0v64h64v64h64v-64h192v-64h-320zM640 64v64h192v-64h-192zM192 64v64h64v64h64v-128h-128z" />
    <glyph glyph-name="uni0602" unicode="&#x602;" horiz-adv-x="576" 
d="M0 64v64h64v-64h-64zM64 0v64h64v64h64v-64h320v-64h-448zM64 128v64h64v-64h-64z" />
    <glyph glyph-name="uni0603" unicode="&#x603;" horiz-adv-x="704" 
d="M0 0v64h64v64h64v-64h128v64h64v-64h256v64h64v-128h-640zM320 128v64h256v-64h-256z" />
    <glyph glyph-name="uni060B" unicode="&#x60b;" horiz-adv-x="320" 
d="M64 0v128h64v-128h-64zM64 320v64h64v-64h-64zM0 192v64h128v64h64v64h-64v64h128v-256h-256zM128 512v64h64v-64h-64z" />
    <glyph glyph-name="afii57388" unicode="&#x60c;" horiz-adv-x="192" 
d="M0 0v192h64v-64h64v-128h-128zM64 192v64h64v-64h-64z" />
    <glyph glyph-name="uni060D" unicode="&#x60d;" horiz-adv-x="192" 
d="M0 0v128h64v-128h-64zM64 128v64h64v-64h-64z" />
    <glyph glyph-name="uni060E" unicode="&#x60e;" horiz-adv-x="512" 
d="M0 64v64h64v-64h-64zM64 0v64h64v64h64v-64h256v-64h-384zM64 128v64h64v-64h-64z" />
    <glyph glyph-name="uni060F" unicode="&#x60f;" 
d="M64 -320v128h64v64h64v-64h64v-64h-128v-64h-64zM256 -192v64h64v-64h-64zM192 -128v64h64v-64h-64zM0 -192v192h64v-192h-64zM64 0v64h128v-64h-128zM192 64v64h64v-64h-64zM0 64v128h64v-128h-64zM64 192v64h64v-64h-64zM128 256v64h128v-64h-128z" />
    <glyph glyph-name="uni0610" unicode="&#x610;" 
d="M64 0v64h64v-64h-64zM192 0v64h64v-64h-64zM0 64v64h64v-64h-64zM256 64v64h64v-64h-64zM0 192v64h64v-64h-64zM256 192v64h64v-64h-64zM64 256v64h64v-64h-64zM192 256v64h64v-64h-64zM64 384v64h64v-64h-64zM192 384v64h-64v64h192v-128h-128z" />
    <glyph glyph-name="uni0611" unicode="&#x611;" 
d="M64 0v64h64v-64h-64zM192 0v64h64v-64h-64zM0 64v64h64v-64h-64zM256 64v64h64v-64h-64zM0 192v64h64v-64h-64zM256 192v64h64v-64h-64zM64 256v64h64v-64h-64zM192 256v128h64v-128h-64zM0 384v64h128v64h128v-64h-64v-64h-192z" />
    <glyph glyph-name="uni0612" unicode="&#x612;" 
d="M64 0v64h64v-64h-64zM192 0v64h64v-64h-64zM0 64v64h64v-64h-64zM256 64v64h64v-64h-64zM0 192v64h64v-64h-64zM256 192v64h64v-64h-64zM64 256v64h64v-64h-64zM192 256v64h64v-64h-64zM64 384v128h128v-64h-64v-64h-64zM192 384v64h64v64h64v-128h-128z" />
    <glyph glyph-name="uni0613" unicode="&#x613;" 
d="M64 0v64h64v-64h-64zM192 0v64h64v-64h-64zM0 64v64h64v-64h-64zM256 64v64h64v-64h-64zM0 192v64h64v-64h-64zM256 192v64h64v-64h-64zM64 256v64h64v-64h-64zM192 256v64h64v-64h-64zM64 384v64h64v64h128v-64h64v-64h-256z" />
    <glyph glyph-name="uni0614" unicode="&#x614;" 
d="M64 0v64h64v-64h-64zM192 0v64h64v-64h-64zM0 64v64h64v-64h-64zM256 64v64h64v-64h-64zM0 192v64h64v-64h-64zM256 192v64h64v-64h-64zM64 256v64h64v-64h-64zM192 256v64h64v-64h-64zM0 384v64h128v64h64v-64h64v-64h-256zM256 448v64h64v-64h-64z" />
    <glyph glyph-name="uni0615" unicode="&#x615;" 
d="M64 0v64h64v-64h-64zM192 0v64h64v-64h-64zM0 64v64h64v-64h-64zM256 64v64h64v-64h-64zM0 192v64h64v-64h-64zM256 192v64h64v-64h-64zM64 256v64h64v-64h-64zM192 256v64h64v-64h-64zM64 384v64h64v128h64v-64h64v-128h-192z" />
    <glyph glyph-name="afii57403" unicode="&#x61b;" horiz-adv-x="192" 
d="M0 0v128h128v-128h-128zM0 192v192h64v-64h64v-128h-128zM64 384v64h64v-64h-64z" />
    <glyph glyph-name="uni061E" unicode="&#x61e;" 
d="M0 0v128h128v-128h-128zM192 0v128h128v-128h-128zM64 192v128h128v-128h-128z" />
    <glyph glyph-name="afii57407" unicode="&#x61f;" horiz-adv-x="448" 
d="M64 0v128h128v-128h-128zM64 192v128h-64v128h64v64h256v-64h64v-64h-64v-64h-64v64h-64v64h-64v-192h64v-64h-128z" />
    <glyph glyph-name="afii57409" unicode="&#x621;" horiz-adv-x="320" 
d="M0 0v64h64v-64h-64zM64 64v128h64v-64h128v-64h-192zM0 192v64h64v-64h-64zM64 256v64h128v-64h-128z" />
    <glyph glyph-name="afii57410" unicode="&#x622;" horiz-adv-x="320" 
d="M128 0v384h64v-384h-64zM0 448v64h64v-64h-64zM128 448v64h64v-64h-64zM64 512v64h64v-64h-64zM192 512v64h64v-64h-64z" />
    <glyph glyph-name="afii57411" unicode="&#x623;" horiz-adv-x="256" 
d="M64 0v320h64v-320h-64zM64 384v64h64v64h64v-128h-128zM64 512v64h64v-64h-64z" />
    <glyph glyph-name="afii57412" unicode="&#x624;" horiz-adv-x="448" 
d="M0 0v64h64v-64h-64zM192 64v64h64v-64h-64zM64 -64v64h192v64h64v64h64v-128h-64v-64h-256zM256 128v64h64v-64h-64zM192 256v64h64v64h64v-128h-128zM192 384v64h64v-64h-64z" />
    <glyph glyph-name="afii57413" unicode="&#x625;" horiz-adv-x="192" 
d="M0 -256v64h64v64h64v-128h-128zM0 -128v64h64v-64h-64zM0 0v448h64v-448h-64z" />
    <glyph glyph-name="afii57414" unicode="&#x626;" horiz-adv-x="512" 
d="M64 -128v64h320v-64h-320zM0 -64v64h64v-64h-64zM384 -64v64h64v-64h-64zM320 0v64h64v-64h-64zM64 64v64h64v64h64v-128h-128zM256 64v128h64v-128h-64zM64 192v64h64v-64h-64zM320 192v64h128v-64h-128z" />
    <glyph glyph-name="afii57415" unicode="&#x627;" horiz-adv-x="128" 
d="M0 0v512h64v-512h-64z" />
    <glyph glyph-name="afii57416" unicode="&#x628;" horiz-adv-x="512" 
d="M256 -128v64h64v-64h-64zM0 64v128h64v-128h-64zM64 192v64h64v-64h-64zM64 0v64h320v192h64v-256h-384z" />
    <glyph glyph-name="afii57417" unicode="&#x629;" horiz-adv-x="320" 
d="M64 0v64h128v-64h-128zM192 64v64h64v-64h-64zM0 64v128h64v-128h-64zM128 128v64h64v-64h-64zM64 192v64h64v-64h-64zM64 320v64h64v-64h-64zM192 320v64h64v-64h-64z" />
    <glyph glyph-name="afii57418" unicode="&#x62a;" horiz-adv-x="512" 
d="M64 192v64h64v-64h-64zM0 0v192h64v-128h320v192h64v-256h-448zM128 320v64h64v-64h-64zM256 320v64h64v-64h-64z" />
    <glyph glyph-name="afii57419" unicode="&#x62b;" horiz-adv-x="576" 
d="M64 192v64h64v-64h-64zM0 0v192h64v-128h384v192h64v-256h-512zM192 256v64h64v-64h-64zM320 256v64h64v-64h-64zM256 384v64h64v-64h-64z" />
    <glyph glyph-name="afii57420" unicode="&#x62c;" horiz-adv-x="576" 
d="M64 -256v64h384v-64h-384zM448 -192v64h64v-64h-64zM0 -192v128h64v-128h-64zM256 -128v64h64v-64h-64zM64 -64v64h128v-64h-128zM192 0v64h192v-64h-192zM384 64v64h64v-64h-64zM0 128v64h64v-64h-64zM448 128v64h64v-64h-64zM64 192v64h384v-64h-384z" />
    <glyph glyph-name="afii57421" unicode="&#x62d;" horiz-adv-x="576" 
d="M64 -256v64h384v-64h-384zM448 -192v64h64v-64h-64zM0 -192v128h64v-128h-64zM64 -64v64h128v-64h-128zM192 0v64h128v-64h-128zM320 64v64h128v-64h-128zM0 128v64h64v-64h-64zM448 128v64h64v-64h-64zM64 192v64h384v-64h-384z" />
    <glyph glyph-name="afii57422" unicode="&#x62e;" horiz-adv-x="576" 
d="M64 -256v64h384v-64h-384zM448 -192v64h64v-64h-64zM0 -192v128h64v-128h-64zM64 -64v64h128v-64h-128zM192 0v64h128v-64h-128zM320 64v64h128v-64h-128zM0 128v64h64v-64h-64zM448 128v64h64v-64h-64zM64 192v64h384v-64h-384zM192 320v64h64v-64h-64z" />
    <glyph glyph-name="afii57423" unicode="&#x62f;" horiz-adv-x="256" 
d="M0 0v64h128v128h64v-192h-192zM64 192v64h64v-64h-64z" />
    <glyph glyph-name="afii57424" unicode="&#x630;" horiz-adv-x="256" 
d="M0 0v64h128v128h64v-192h-192zM64 192v64h64v-64h-64zM64 320v64h64v-64h-64z" />
    <glyph glyph-name="afii57425" unicode="&#x631;" horiz-adv-x="448" 
d="M64 -64v64h256v-64h-256zM0 0v64h64v-64h-64zM320 0v192h64v-192h-64zM256 192v64h64v-64h-64z" />
    <glyph glyph-name="afii57426" unicode="&#x632;" horiz-adv-x="448" 
d="M64 -64v64h256v-64h-256zM0 0v64h64v-64h-64zM320 0v192h64v-192h-64zM256 192v64h64v-64h-64zM128 256v64h64v-64h-64z" />
    <glyph glyph-name="afii57427" unicode="&#x633;" horiz-adv-x="704" 
d="M64 -256v64h256v-64h-256zM0 -192v192h64v-192h-64zM64 0v64h64v-64h-64zM320 -192v256h64v-64h64v64h64v-64h64v64h64v-128h-256v-128h-64z" />
    <glyph glyph-name="afii57428" unicode="&#x634;" horiz-adv-x="640" 
d="M64 -256v64h192v-64h-192zM0 -192v192h64v-192h-64zM64 0v64h64v-64h-64zM256 -192v256h64v-64h64v64h64v-64h64v64h64v-128h-256v-128h-64zM320 128v64h64v-64h-64zM448 128v64h64v-64h-64zM384 256v64h64v-64h-64z" />
    <glyph glyph-name="afii57429" unicode="&#x635;" horiz-adv-x="832" 
d="M64 -256v64h256v-64h-256zM0 -192v192h64v-192h-64zM64 0v64h64v-64h-64zM320 -192v192h128v64h64v-64h192v64h-192v64h256v-192h-384v-128h-64z" />
    <glyph glyph-name="afii57430" unicode="&#x636;" horiz-adv-x="832" 
d="M64 -256v64h192v-64h-192zM0 -192v192h64v-192h-64zM64 0v64h64v-64h-64zM256 -192v192h128v64h64v-64h256v64h-256v64h320v-192h-448v-128h-64zM576 192v64h64v-64h-64z" />
    <glyph glyph-name="afii57431" unicode="&#x637;" horiz-adv-x="576" 
d="M192 192v64h256v-64h-256zM0 0v64h64v384h64v-64h64v-64h-64v-128h64v-64h-64v-64h320v128h64v-192h-512zM0 448v64h64v-64h-64z" />
    <glyph glyph-name="afii57432" unicode="&#x638;" horiz-adv-x="576" 
d="M192 192v64h256v-64h-256zM320 320v64h64v-64h-64zM0 0v64h64v384h64v-64h64v-64h-64v-128h64v-64h-64v-64h320v128h64v-192h-512zM0 448v64h64v-64h-64z" />
    <glyph glyph-name="afii57433" unicode="&#x639;" horiz-adv-x="320" 
d="M0 -256v64h192v-64h-192zM192 -192v64h64v-64h-64zM-64 -192v128h64v-128h-64zM0 -64v64h64v-64h-64zM64 0v64h128v-64h-128zM192 64v64h64v-64h-64zM0 64v192h64v-192h-64zM64 256v64h192v-64h-192z" />
    <glyph glyph-name="afii57434" unicode="&#x63a;" horiz-adv-x="320" 
d="M0 -256v64h192v-64h-192zM192 -192v64h64v-64h-64zM-64 -192v128h64v-128h-64zM0 -64v64h64v-64h-64zM64 0v64h128v-64h-128zM192 64v64h64v-64h-64zM0 64v192h64v-192h-64zM64 256v64h192v-64h-192zM128 384v64h64v-64h-64z" />
    <glyph glyph-name="afii57440" unicode="&#x640;" horiz-adv-x="256" 
d="M0 192v64h192v-64h-192z" />
    <glyph glyph-name="afii57441" unicode="&#x641;" horiz-adv-x="576" 
d="M0 64v128h64v-128h-64zM320 128v64h64v-64h-64zM64 192v64h64v-64h-64zM64 0v64h320v64h64v64h-64v64h128v-256h-448zM384 320v64h64v-64h-64z" />
    <glyph glyph-name="afii57442" unicode="&#x642;" horiz-adv-x="512" 
d="M64 -128v64h320v-64h-320zM0 -64v256h64v-256h-64zM192 128v64h64v-64h-64zM384 -64v128h-128v64h128v64h64v-256h-64zM64 192v64h64v-64h-64zM256 192v64h128v-64h-128zM256 320v64h64v-64h-64zM384 320v64h64v-64h-64z" />
    <glyph glyph-name="afii57443" unicode="&#x643;" horiz-adv-x="576" 
d="M0 64v64h64v-64h-64zM128 128v64h128v-64h-128zM256 192v64h64v-64h-64zM192 256v64h64v-64h-64zM256 320v64h64v-64h-64zM64 0v64h320v384h64v-64h64v-64h-64v-320h-384zM320 448v64h64v-64h-64z" />
    <glyph glyph-name="afii57444" unicode="&#x644;" horiz-adv-x="448" 
d="M64 -64v64h256v-64h-256zM0 0v128h64v-128h-64zM64 128v64h64v-64h-64zM320 0v512h64v-512h-64z" />
    <glyph glyph-name="afii57445" unicode="&#x645;" horiz-adv-x="320" 
d="M64 -192v64h64v-64h-64zM0 128v64h64v-64h-64zM0 -128v192h192v128h64v-192h-192v-128h-64zM64 192v64h128v-64h-128z" />
    <glyph glyph-name="afii57446" unicode="&#x646;" horiz-adv-x="448" 
d="M64 -192v64h256v-64h-256zM0 -128v128h64v-128h-64zM320 -128v128h64v-128h-64zM64 0v64h64v-64h-64zM256 0v64h64v-64h-64zM128 128v64h64v-64h-64z" />
    <glyph glyph-name="afii57470" unicode="&#x647;" horiz-adv-x="320" 
d="M64 0v64h128v-64h-128zM192 64v64h64v-64h-64zM0 64v128h64v-128h-64zM128 128v64h64v-64h-64zM64 192v64h64v-64h-64z" />
    <glyph glyph-name="afii57448" unicode="&#x648;" horiz-adv-x="512" 
d="M128 -128v64h256v-64h-256zM64 -64v64h64v-64h-64zM0 0v64h64v-64h-64zM192 128v64h64v-64h-64zM384 -64v128h-128v64h128v64h64v-256h-64zM256 192v64h128v-64h-128z" />
    <glyph glyph-name="afii57449" unicode="&#x649;" horiz-adv-x="576" 
d="M64 -128v64h384v-64h-384zM0 -64v64h64v-64h-64zM448 -64v64h64v-64h-64zM320 0v64h128v-64h-128zM256 64v128h64v-128h-64zM320 192v64h128v-64h-128z" />
    <glyph glyph-name="afii57450" unicode="&#x64a;" horiz-adv-x="576" 
d="M192 -256v64h64v-64h-64zM320 -256v64h64v-64h-64zM64 -128v64h384v-64h-384zM0 -64v64h64v-64h-64zM448 -64v64h64v-64h-64zM320 0v64h128v-64h-128zM256 64v128h64v-128h-64zM320 192v64h128v-64h-128z" />
    <glyph glyph-name="afii57452" unicode="&#x64c;" 
d="M64 0v64h64v-64h-64zM192 0v64h64v-64h-64zM0 64v64h64v-64h-64zM256 64v64h64v-64h-64zM0 192v64h64v-64h-64zM256 192v64h64v-64h-64zM64 256v64h64v-64h-64zM192 256v64h64v-64h-64zM64 448v64h64v-64h-64zM128 384v64h64v128h64v-64h64v-64h-64v-64h-128z" />
    <glyph glyph-name="afii57454" unicode="&#x64e;" 
d="M64 0v64h64v-64h-64zM192 0v64h64v-64h-64zM0 64v64h64v-64h-64zM256 64v64h64v-64h-64zM0 192v64h64v-64h-64zM256 192v64h64v-64h-64zM64 256v64h64v-64h-64zM192 256v64h64v-64h-64zM64 384v64h128v-64h-128zM192 448v64h64v-64h-64z" />
    <glyph glyph-name="afii57455" unicode="&#x64f;" 
d="M64 0v64h64v-64h-64zM192 0v64h64v-64h-64zM0 64v64h64v-64h-64zM256 64v64h64v-64h-64zM0 192v64h64v-64h-64zM256 192v64h64v-64h-64zM64 256v64h64v-64h-64zM192 256v64h64v-64h-64zM64 384v64h64v-64h-64zM128 448v128h128v-64h-64v-64h-64z" />
    <glyph glyph-name="afii57456" unicode="&#x650;" 
d="M64 -192v64h128v-64h-128zM192 -128v64h64v-64h-64zM64 0v64h64v-64h-64zM192 0v64h64v-64h-64zM0 64v64h64v-64h-64zM256 64v64h64v-64h-64zM0 192v64h64v-64h-64zM256 192v64h64v-64h-64zM64 256v64h64v-64h-64zM192 256v64h64v-64h-64z" />
    <glyph glyph-name="afii57457" unicode="&#x651;" 
d="M64 0v64h64v-64h-64zM192 0v64h64v-64h-64zM0 64v64h64v-64h-64zM256 64v64h64v-64h-64zM0 192v64h64v-64h-64zM256 192v64h64v-64h-64zM64 256v64h64v-64h-64zM192 256v64h64v-64h-64z" />
    <glyph glyph-name="afii57458" unicode="&#x652;" 
d="M64 0v64h64v-64h-64zM192 0v64h64v-64h-64zM0 64v64h64v-64h-64zM256 64v64h64v-64h-64zM0 192v64h64v-64h-64zM256 192v64h64v-64h-64zM64 256v64h64v-64h-64zM192 256v64h64v-64h-64zM128 384v64h64v-64h-64zM64 448v64h64v-64h-64zM192 448v64h64v-64h-64zM128 512v64
h64v-64h-64z" />
    <glyph glyph-name="uni0653" unicode="&#x653;" 
d="M64 0v64h64v-64h-64zM192 0v64h64v-64h-64zM0 64v64h64v-64h-64zM256 64v64h64v-64h-64zM0 192v64h64v-64h-64zM256 192v64h64v-64h-64zM64 256v64h64v-64h-64zM192 256v64h64v-64h-64zM128 384v64h128v-64h-128zM64 448v64h64v-64h-64z" />
    <glyph glyph-name="uni0654" unicode="&#x654;" 
d="M64 0v64h64v-64h-64zM192 0v64h64v-64h-64zM0 64v64h64v-64h-64zM256 64v64h64v-64h-64zM0 192v64h64v-64h-64zM256 192v64h64v-64h-64zM64 256v64h64v-64h-64zM192 256v64h64v-64h-64zM64 384v64h64v64h64v-128h-128zM64 512v64h64v-64h-64z" />
    <glyph glyph-name="uni0655" unicode="&#x655;" 
d="M64 -256v64h64v64h64v-128h-128zM64 -128v64h64v-64h-64zM64 0v64h64v-64h-64zM192 0v64h64v-64h-64zM0 64v64h64v-64h-64zM256 64v64h64v-64h-64zM0 192v64h64v-64h-64zM256 192v64h64v-64h-64zM64 256v64h64v-64h-64zM192 256v64h64v-64h-64z" />
    <glyph glyph-name="uni0656" unicode="&#x656;" 
d="M128 -192v128h64v-128h-64zM64 0v64h64v-64h-64zM192 0v64h64v-64h-64zM0 64v64h64v-64h-64zM256 64v64h64v-64h-64zM0 192v64h64v-64h-64zM256 192v64h64v-64h-64zM64 256v64h64v-64h-64zM192 256v64h64v-64h-64z" />
    <glyph glyph-name="uni0657" unicode="&#x657;" 
d="M64 0v64h64v-64h-64zM192 0v64h64v-64h-64zM0 64v64h64v-64h-64zM256 64v64h64v-64h-64zM0 192v64h64v-64h-64zM256 192v64h64v-64h-64zM64 256v64h64v-64h-64zM192 256v64h64v-64h-64zM128 320v64h-64v64h128v-128h-64zM192 448v64h64v-64h-64z" />
    <glyph glyph-name="uni0658" unicode="&#x658;" 
d="M64 0v64h64v-64h-64zM192 0v64h64v-64h-64zM0 64v64h64v-64h-64zM256 64v64h64v-64h-64zM0 192v64h64v-64h-64zM256 192v64h64v-64h-64zM64 256v64h64v-64h-64zM192 256v64h64v-64h-64zM128 384v64h64v-64h-64zM64 448v64h64v-64h-64zM192 448v64h64v-64h-64z" />
    <glyph glyph-name="uni0659" unicode="&#x659;" 
d="M64 0v64h64v-64h-64zM192 0v64h64v-64h-64zM0 64v64h64v-64h-64zM256 64v64h64v-64h-64zM0 192v64h64v-64h-64zM256 192v64h64v-64h-64zM64 256v64h64v-64h-64zM192 256v64h64v-64h-64zM64 384v64h192v-64h-192z" />
    <glyph glyph-name="uni065A" unicode="&#x65a;" 
d="M64 0v64h64v-64h-64zM192 0v64h64v-64h-64zM0 64v64h64v-64h-64zM256 64v64h64v-64h-64zM0 192v64h64v-64h-64zM256 192v64h64v-64h-64zM64 256v64h64v-64h-64zM192 256v64h64v-64h-64zM128 384v64h64v-64h-64zM64 448v64h64v-64h-64zM192 448v64h64v-64h-64z" />
    <glyph glyph-name="uni065B" unicode="&#x65b;" 
d="M64 0v64h64v-64h-64zM192 0v64h64v-64h-64zM0 64v64h64v-64h-64zM256 64v64h64v-64h-64zM0 192v64h64v-64h-64zM256 192v64h64v-64h-64zM64 256v64h64v-64h-64zM192 256v64h64v-64h-64zM64 384v64h64v-64h-64zM192 384v64h64v-64h-64zM128 448v64h64v-64h-64z" />
    <glyph glyph-name="uni065E" unicode="&#x65e;" 
d="M64 0v64h64v-64h-64zM192 0v64h64v-64h-64zM0 64v64h64v-64h-64zM256 64v64h64v-64h-64zM0 192v64h64v-64h-64zM256 192v64h64v-64h-64zM64 256v64h64v-64h-64zM192 256v64h64v-64h-64zM64 384v64h192v-64h-192zM64 512v64h64v-64h-64zM192 512v64h64v-64h-64z" />
    <glyph glyph-name="afii57392" unicode="&#x660;" horiz-adv-x="128" 
d="M0 256v64h64v-64h-64z" />
    <glyph glyph-name="afii57393" unicode="&#x661;" horiz-adv-x="192" 
d="M64 0v448h64v-448h-64zM0 448v64h64v-64h-64z" />
    <glyph glyph-name="afii57394" unicode="&#x662;" 
d="M64 0v448h64v-64h128v-64h-128v-320h-64zM0 448v64h64v-64h-64zM256 384v128h64v-128h-64z" />
    <glyph glyph-name="afii57395" unicode="&#x663;" horiz-adv-x="448" 
d="M256 320v64h64v-64h-64zM64 0v448h64v-64h64v-64h-64v-320h-64zM0 448v64h64v-64h-64zM192 384v128h64v-128h-64zM320 384v128h64v-128h-64z" />
    <glyph glyph-name="afii57396" unicode="&#x664;" horiz-adv-x="256" 
d="M128 0v64h64v-64h-64zM64 64v64h64v-64h-64zM0 128v128h64v-128h-64zM64 256v64h128v-64h-128zM0 320v64h64v-64h-64zM64 384v64h64v-64h-64zM128 448v64h64v-64h-64z" />
    <glyph glyph-name="afii57397" unicode="&#x665;" horiz-adv-x="320" 
d="M64 64v64h128v-64h-128zM0 128v128h64v-128h-64zM192 128v128h64v-128h-64zM64 256v64h128v-64h-128z" />
    <glyph glyph-name="afii57398" unicode="&#x666;" horiz-adv-x="448" 
d="M320 0v64h64v-64h-64zM0 448v64h64v-64h-64zM256 64v320h-192v64h192v64h64v-448h-64z" />
    <glyph glyph-name="afii57399" unicode="&#x667;" horiz-adv-x="640" 
d="M256 0v128h64v-128h-64zM192 128v64h64v-64h-64zM320 128v64h64v-64h-64zM128 192v192h64v-192h-64zM384 192v192h64v-192h-64zM64 384v64h64v-64h-64zM448 384v64h64v-64h-64zM0 448v64h64v-64h-64zM512 448v64h64v-64h-64z" />
    <glyph glyph-name="afii57400" unicode="&#x668;" horiz-adv-x="640" 
d="M0 0v64h64v-64h-64zM512 0v64h64v-64h-64zM64 64v64h64v-64h-64zM448 64v64h64v-64h-64zM128 128v128h64v-128h-64zM384 128v128h64v-128h-64zM192 256v64h64v-64h-64zM320 256v64h64v-64h-64zM256 320v192h64v-192h-64z" />
    <glyph glyph-name="afii57401" unicode="&#x669;" horiz-adv-x="320" 
d="M192 0v64h64v-64h-64zM0 384v64h64v-64h-64zM128 64v256h-64v64h64v64h64v-384h-64zM64 448v64h64v-64h-64z" />
    <glyph glyph-name="afii57381" unicode="&#x66a;" horiz-adv-x="320" 
d="M192 0v64h64v-64h-64zM0 0v128h64v-128h-64zM64 128v128h64v-128h-64zM128 256v128h64v-128h-64zM0 448v64h64v-64h-64zM192 384v128h64v-128h-64z" />
    <glyph glyph-name="uni066B" unicode="&#x66b;" horiz-adv-x="192" 
d="M0 0v64h64v-64h-64zM64 64v64h-64v128h128v-192h-64z" />
    <glyph glyph-name="uni066C" unicode="&#x66c;" horiz-adv-x="192" 
d="M0 0v192h64v-64h64v-128h-128zM64 192v64h64v-64h-64z" />
    <glyph glyph-name="uni066E" unicode="&#x66e;" horiz-adv-x="512" 
d="M0 64v128h64v-128h-64zM64 192v64h64v-64h-64zM64 0v64h320v192h64v-256h-384z" />
    <glyph glyph-name="uni066F" unicode="&#x66f;" horiz-adv-x="512" 
d="M64 -192v64h320v-64h-320zM0 -128v192h64v-192h-64zM64 64v64h64v-64h-64zM256 64v64h64v-64h-64zM384 -128v128h-64v64h64v64h64v-256h-64zM320 128v64h64v-64h-64z" />
    <glyph glyph-name="uni0670" unicode="&#x670;" 
d="M64 0v64h64v-64h-64zM192 0v64h64v-64h-64zM0 64v64h64v-64h-64zM256 64v64h64v-64h-64zM0 192v64h64v-64h-64zM256 192v64h64v-64h-64zM64 256v64h64v-64h-64zM192 256v64h64v-64h-64zM128 384v192h64v-192h-64z" />
    <glyph glyph-name="uni0671" unicode="&#x671;" horiz-adv-x="256" 
d="M64 0v384h-64v64h64v64h128v-128h-64v-384h-64z" />
    <glyph glyph-name="uni0672" unicode="&#x672;" horiz-adv-x="192" 
d="M0 0v320h64v-320h-64zM0 384v64h64v64h64v-128h-128zM0 512v64h64v-64h-64z" />
    <glyph glyph-name="uni0673" unicode="&#x673;" horiz-adv-x="192" 
d="M0 -256v64h64v64h64v-128h-128zM0 -128v64h64v-64h-64zM0 0v512h64v-512h-64z" />
    <glyph glyph-name="uni0674" unicode="&#x674;" horiz-adv-x="256" 
d="M64 384v64h64v64h64v-128h-128zM64 512v64h64v-64h-64z" />
    <glyph glyph-name="uni0675" unicode="&#x675;" horiz-adv-x="320" 
d="M128 320v64h64v64h64v-128h-128zM0 0v512h64v-512h-64zM128 448v64h64v-64h-64z" />
    <glyph glyph-name="uni0676" unicode="&#x676;" horiz-adv-x="512" 
d="M0 0v64h64v-64h-64zM256 64v64h64v-64h-64zM64 -64v64h256v64h64v64h-64v64h128v-192h-64v-64h-320zM320 256v64h64v64h64v-128h-128zM320 384v64h64v-64h-64z" />
    <glyph glyph-name="uni0677" unicode="&#x677;" horiz-adv-x="512" 
d="M0 0v64h64v-64h-64zM256 64v64h64v-64h-64zM64 -64v64h256v64h64v64h-64v64h128v-192h-64v-64h-320zM128 256v64h64v-64h-64zM320 256v64h64v64h64v-128h-128zM192 320v64h-64v64h128v-128h-64zM320 384v64h64v-64h-64z" />
    <glyph glyph-name="uni0678" unicode="&#x678;" horiz-adv-x="512" 
d="M64 -64v64h320v-64h-320zM0 0v64h64v-64h-64zM384 0v64h64v-64h-64zM320 64v64h64v-64h-64zM256 128v64h64v-64h-64zM320 192v64h128v-64h-128zM320 320v64h64v64h64v-128h-128zM320 448v64h64v-64h-64z" />
    <glyph glyph-name="afii57511" unicode="&#x679;" horiz-adv-x="512" 
d="M0 64v128h64v-128h-64zM64 192v64h64v-64h-64zM64 0v64h320v192h64v-256h-384zM192 320v192h64v-64h64v-64h64v-64h-192z" />
    <glyph glyph-name="uni067A" unicode="&#x67a;" horiz-adv-x="512" 
d="M0 64v128h64v-128h-64zM64 192v64h64v-64h-64zM64 0v64h320v192h64v-256h-384zM256 320v64h64v-64h-64zM256 448v64h64v-64h-64z" />
    <glyph glyph-name="uni067B" unicode="&#x67b;" horiz-adv-x="512" 
d="M256 -192v64h64v-64h-64zM128 -128v64h64v-64h-64zM0 64v128h64v-128h-64zM64 192v64h64v-64h-64zM64 0v64h320v192h64v-256h-384z" />
    <glyph glyph-name="uni067C" unicode="&#x67c;" horiz-adv-x="512" 
d="M192 -128v64h64v-64h-64zM0 64v128h64v-128h-64zM64 192v64h64v-64h-64zM128 -64v64h-64v64h320v192h64v-256h-128v-64h-64v64h-64v-64h-64zM192 320v64h64v-64h-64zM320 320v64h64v-64h-64z" />
    <glyph glyph-name="uni067D" unicode="&#x67d;" horiz-adv-x="512" 
d="M0 64v128h64v-128h-64zM64 192v64h64v-64h-64zM64 0v64h320v192h64v-256h-384zM192 320v64h64v-64h-64zM128 448v64h64v-64h-64zM320 448v64h64v-64h-64z" />
    <glyph glyph-name="afii57506" unicode="&#x67e;" horiz-adv-x="512" 
d="M192 -256v64h64v-64h-64zM128 -128v64h64v-64h-64zM256 -128v64h64v-64h-64zM0 64v128h64v-128h-64zM64 192v64h64v-64h-64zM64 0v64h320v192h64v-256h-384z" />
    <glyph glyph-name="uni067F" unicode="&#x67f;" horiz-adv-x="512" 
d="M0 64v128h64v-128h-64zM64 192v64h64v-64h-64zM64 0v64h320v192h64v-256h-384zM128 320v64h64v-64h-64zM256 320v64h64v-64h-64zM128 448v64h64v-64h-64zM256 448v64h64v-64h-64z" />
    <glyph glyph-name="uni0680" unicode="&#x680;" horiz-adv-x="512" 
d="M128 -256v64h64v-64h-64zM256 -256v64h64v-64h-64zM128 -128v64h64v-64h-64zM256 -128v64h64v-64h-64zM0 64v128h64v-128h-64zM64 192v64h64v-64h-64zM64 0v64h320v192h64v-256h-384z" />
    <glyph glyph-name="uni0681" unicode="&#x681;" horiz-adv-x="448" 
d="M64 -192v64h256v-64h-256zM320 -128v64h64v-64h-64zM0 -128v128h64v-128h-64zM64 0v64h128v-64h-128zM192 64v64h128v-64h-128zM320 128v64h-320v64h384v-128h-64zM192 320v64h64v-64h-64z" />
    <glyph glyph-name="uni0682" unicode="&#x682;" horiz-adv-x="448" 
d="M64 -192v64h256v-64h-256zM320 -128v64h64v-64h-64zM0 -128v128h64v-128h-64zM64 0v64h128v-64h-128zM192 64v64h128v-64h-128zM320 128v64h-320v64h384v-128h-64zM128 320v64h64v-64h-64zM256 320v64h64v-64h-64z" />
    <glyph glyph-name="uni0683" unicode="&#x683;" horiz-adv-x="512" 
d="M64 -256v64h320v-64h-320zM384 -192v64h64v-64h-64zM0 -192v128h64v-128h-64zM192 -128v64h64v-64h-64zM64 -64v64h64v-64h-64zM320 -64v64h64v-64h-64zM128 0v64h128v-64h-128zM256 64v64h128v-64h-128zM384 128v64h-384v64h448v-128h-64z" />
    <glyph glyph-name="uni0684" unicode="&#x684;" horiz-adv-x="512" 
d="M64 -256v64h320v-64h-320zM384 -192v64h64v-64h-64zM0 -192v128h64v-128h-64zM192 -128v64h64v-64h-64zM64 -64v64h64v-64h-64zM320 -64v64h64v-64h-64zM128 0v64h128v-64h-128zM256 64v64h128v-64h-128zM384 128v64h-384v64h448v-128h-64z" />
    <glyph glyph-name="uni0685" unicode="&#x685;" horiz-adv-x="512" 
d="M64 -256v64h320v-64h-320zM384 -192v64h64v-64h-64zM0 -192v128h64v-128h-64zM64 -64v64h64v-64h-64zM128 0v64h128v-64h-128zM256 64v64h128v-64h-128zM384 128v64h-384v64h448v-128h-64zM128 320v64h64v-64h-64zM256 320v64h64v-64h-64zM192 448v64h64v-64h-64z" />
    <glyph glyph-name="afii57512" unicode="&#x688;" horiz-adv-x="320" 
d="M0 0v128h64v-64h128v128h64v-192h-256zM128 192v64h64v-64h-64zM0 256v64h128v-64h-128zM64 384v192h64v-64h64v-64h64v-64h-192z" />
    <glyph glyph-name="uni0689" unicode="&#x689;" horiz-adv-x="320" 
d="M64 -128v64h64v-64h-64zM0 -64v192h64v-64h128v128h64v-192h-64v-64h-64v64h-64v-64h-64zM128 192v64h64v-64h-64zM0 256v64h128v-64h-128z" />
    <glyph glyph-name="uni068A" unicode="&#x68a;" horiz-adv-x="320" 
d="M128 -128v64h64v-64h-64zM0 0v128h64v-64h128v128h64v-192h-256zM128 192v64h64v-64h-64zM0 256v64h128v-64h-128z" />
    <glyph glyph-name="uni068B" unicode="&#x68b;" horiz-adv-x="320" 
d="M64 -128v64h64v-64h-64zM0 0v128h64v-64h128v128h64v-192h-256zM128 192v64h64v-64h-64zM0 256v64h128v-64h-128zM0 384v192h64v-64h64v-64h64v-64h-192z" />
    <glyph glyph-name="uni068C" unicode="&#x68c;" horiz-adv-x="320" 
d="M0 0v128h64v-64h128v128h64v-192h-256zM128 192v64h64v-64h-64zM0 256v64h128v-64h-128zM64 384v64h64v-64h-64zM192 384v64h64v-64h-64z" />
    <glyph glyph-name="uni068D" unicode="&#x68d;" horiz-adv-x="320" 
d="M0 0v128h64v-64h128v128h64v-192h-256zM128 192v64h64v-64h-64zM0 256v64h128v-64h-128z" />
    <glyph glyph-name="uni068E" unicode="&#x68e;" horiz-adv-x="320" 
d="M0 0v128h64v-64h128v128h64v-192h-256zM128 192v64h64v-64h-64zM0 256v64h128v-64h-128zM0 384v64h64v-64h-64zM192 384v64h64v-64h-64zM128 512v64h64v-64h-64z" />
    <glyph glyph-name="uni068F" unicode="&#x68f;" horiz-adv-x="320" 
d="M0 0v128h64v-64h128v128h64v-192h-256zM128 192v64h64v-64h-64zM0 256v64h128v-64h-128zM128 384v64h64v-64h-64zM64 512v64h64v-64h-64zM192 512v64h64v-64h-64z" />
    <glyph glyph-name="uni0690" unicode="&#x690;" horiz-adv-x="320" 
d="M0 0v128h64v-64h128v128h64v-192h-256zM128 192v64h64v-64h-64zM0 256v64h128v-64h-128zM64 384v64h64v-64h-64zM192 384v64h64v-64h-64zM64 512v64h64v-64h-64zM192 512v64h64v-64h-64z" />
    <glyph glyph-name="afii57513" unicode="&#x691;" horiz-adv-x="448" 
d="M64 -64v64h256v-64h-256zM0 0v64h64v-64h-64zM320 0v256h64v-256h-64zM256 256v64h64v-64h-64zM192 384v192h64v-64h64v-64h64v-64h-192z" />
    <glyph glyph-name="uni0692" unicode="&#x692;" horiz-adv-x="448" 
d="M64 -64v64h256v-64h-256zM0 0v64h64v-64h-64zM320 0v256h64v-256h-64zM256 256v64h64v-64h-64zM256 384v64h64v-64h-64zM192 448v64h64v-64h-64zM320 448v64h64v-64h-64z" />
    <glyph glyph-name="uni0694" unicode="&#x694;" horiz-adv-x="512" 
d="M384 -192v64h64v-64h-64zM64 -64v64h256v-64h-256zM0 0v64h64v-64h-64zM320 0v256h64v-256h-64zM256 256v64h64v-64h-64z" />
    <glyph glyph-name="uni0695" unicode="&#x695;" horiz-adv-x="448" 
d="M256 -256v64h64v-64h-64zM192 -192v64h64v-64h-64zM320 -192v64h64v-64h-64zM64 -64v64h256v-64h-256zM0 0v64h64v-64h-64zM320 0v256h64v-256h-64zM256 256v64h64v-64h-64z" />
    <glyph glyph-name="uni0696" unicode="&#x696;" horiz-adv-x="512" 
d="M64 -64v64h320v-64h-320zM0 0v64h64v-64h-64zM192 128v64h64v-64h-64zM384 0v256h64v-256h-64zM320 256v64h64v-64h-64z" />
    <glyph glyph-name="uni0697" unicode="&#x697;" horiz-adv-x="448" 
d="M64 -64v64h256v-64h-256zM0 0v64h64v-64h-64zM320 0v256h64v-256h-64zM256 256v64h64v-64h-64zM192 384v64h64v-64h-64zM320 384v64h64v-64h-64z" />
    <glyph glyph-name="afii57508" unicode="&#x698;" horiz-adv-x="448" 
d="M64 -64v64h256v-64h-256zM0 0v64h64v-64h-64zM320 0v256h64v-256h-64zM256 256v64h64v-64h-64zM192 384v64h64v-64h-64zM320 384v64h64v-64h-64zM256 512v64h64v-64h-64z" />
    <glyph glyph-name="uni0699" unicode="&#x699;" horiz-adv-x="448" 
d="M64 -64v64h256v-64h-256zM0 0v64h64v-64h-64zM320 0v256h64v-256h-64zM256 256v64h64v-64h-64zM192 384v64h64v-64h-64zM320 384v64h64v-64h-64zM192 512v64h64v-64h-64zM320 512v64h64v-64h-64z" />
    <glyph glyph-name="uni069A" unicode="&#x69a;" horiz-adv-x="768" 
d="M64 -128v64h192v-64h-192zM512 -128v64h64v-64h-64zM0 -64v192h64v-192h-64zM64 128v64h64v-64h-64zM192 128v64h64v-64h-64zM256 -64v192h64v-64h64v128h64v-128h64v-64h-192v-64h-64zM512 64v128h64v-128h-64zM576 0v64h64v128h64v-192h-128zM512 256v64h64v-64h-64z
" />
    <glyph glyph-name="uni0710" unicode="&#x710;" horiz-adv-x="448" 
d="M256 0v64h64v-64h-64zM0 0v192h256v-128h-64v64h-128v-128h-64zM256 192v64h64v-64h-64zM320 256v64h64v-64h-64z" />
    <glyph glyph-name="uni0712" unicode="&#x712;" horiz-adv-x="448" 
d="M64 0v64h256v-64h-256zM0 64v64h64v-64h-64zM320 64v128h64v-128h-64zM128 192v64h192v-64h-192z" />
    <glyph glyph-name="uni0713" unicode="&#x713;" horiz-adv-x="512" 
d="M384 -128v64h64v-64h-64zM320 -64v64h64v-64h-64zM0 0v64h256v64h64v-128h-320zM192 128v64h64v-64h-64zM128 192v64h64v-64h-64z" />
    <glyph glyph-name="uni0714" unicode="&#x714;" horiz-adv-x="512" 
d="M384 -128v64h64v-64h-64zM320 -64v64h64v-64h-64zM0 0v64h128v64h64v-64h64v64h64v-128h-320zM192 128v64h64v-64h-64zM128 192v64h64v-64h-64z" />
    <glyph glyph-name="uni0715" unicode="&#x715;" horiz-adv-x="256" 
d="M0 0v64h64v-64h-64zM128 0v192h-128v64h192v-256h-64z" />
    <glyph glyph-name="uni0716" unicode="&#x716;" horiz-adv-x="256" 
d="M128 0v192h-128v64h192v-256h-64z" />
    <glyph glyph-name="uni0717" unicode="&#x717;" horiz-adv-x="512" 
d="M128 0v64h64v-64h-64zM320 0v64h64v-64h-64zM0 64v128h64v-128h-64zM384 64v128h64v-128h-64zM192 64v128h-128v64h320v-64h-128v-128h-64z" />
    <glyph glyph-name="uni0718" unicode="&#x718;" 
d="M64 0v64h128v-64h-128zM0 64v128h64v-128h-64zM256 0v192h64v-192h-64zM64 192v64h192v-64h-192z" />
    <glyph glyph-name="uni0719" unicode="&#x719;" horiz-adv-x="192" 
d="M64 0v192h64v-192h-64zM0 192v64h64v-64h-64z" />
    <glyph glyph-name="uni071A" unicode="&#x71a;" horiz-adv-x="448" 
d="M0 0v64h64v-64h-64zM64 64v128h-64v64h128v-64h64v-128h-128zM192 0v64h64v192h64v-64h64v-128h-64v-64h-128z" />
    <glyph glyph-name="uni071B" unicode="&#x71b;" horiz-adv-x="576" 
d="M320 -192v64h128v-64h-128zM448 -128v128h64v-128h-64zM256 -128v128h-256v64h192v128h64v-128h192v-64h-128v-128h-64zM128 192v128h64v-128h-64zM64 320v128h64v-128h-64zM0 448v64h64v-64h-64z" />
    <glyph glyph-name="uni071C" unicode="&#x71c;" horiz-adv-x="512" 
d="M256 -192v64h-64v128h-192v64h128v128h64v-128h192v-64h64v-128h-64v-64h-128zM64 192v128h64v-128h-64zM0 320v192h64v-192h-64z" />
    <glyph glyph-name="uni071D" unicode="&#x71d;" horiz-adv-x="192" 
d="M0 -64v64h64v-64h-64zM64 0v64h64v-64h-64zM0 64v64h64v-64h-64z" />
    <glyph glyph-name="uni071E" unicode="&#x71e;" horiz-adv-x="704" 
d="M192 -128v64h64v-64h-64zM64 0v64h64v-64h-64zM0 64v128h64v-128h-64zM192 0v192h64v-192h-64zM320 0v64h64v128h64v-128h64v128h64v-64h64v-128h-320zM64 192v64h128v-64h-128zM256 192v64h128v-64h-128zM128 320v64h64v-64h-64zM256 320v64h64v-64h-64zM192 448v64h64
v-64h-64z" />
    <glyph glyph-name="uni071F" unicode="&#x71f;" horiz-adv-x="640" 
d="M512 -128v64h64v-64h-64zM64 0v64h128v-64h-128zM448 -64v128h64v-128h-64zM192 64v64h64v-64h-64zM384 64v64h64v-64h-64zM0 64v128h64v-128h-64zM256 128v64h128v-64h-128z" />
    <glyph glyph-name="uni0720" unicode="&#x720;" horiz-adv-x="448" 
d="M0 64v64h64v-64h-64zM64 0v64h256v64h64v-128h-320zM256 128v128h64v-128h-64zM192 256v128h64v-128h-64zM64 384v64h128v-64h-128zM0 448v64h64v-64h-64z" />
    <glyph glyph-name="uni0721" unicode="&#x721;" horiz-adv-x="448" 
d="M0 -128v64h64v-64h-64zM64 -64v64h64v-64h-64zM320 64v128h64v-128h-64zM128 0v192h-64v64h256v-64h-128v-128h128v-64h-192zM0 256v64h64v-64h-64z" />
    <glyph glyph-name="uni0722" unicode="&#x722;" horiz-adv-x="448" 
d="M256 -64v64h128v-64h-128zM192 0v64h64v-64h-64zM0 0v192h128v-64h64v-64h-64v-64h-128z" />
    <glyph glyph-name="uni0723" unicode="&#x723;" horiz-adv-x="512" 
d="M0 64v128h64v-128h-64zM64 0v64h128v128h64v-128h128v-64h-320zM384 64v128h64v-128h-64zM64 192v64h128v-64h-128zM256 192v64h128v-64h-128z" />
    <glyph glyph-name="uni0724" unicode="&#x724;" horiz-adv-x="512" 
d="M0 64v128h64v-128h-64zM192 -64v64h-128v64h128v128h64v-128h128v-64h-128v-64h-64zM384 64v128h64v-128h-64zM64 192v64h128v-64h-128zM256 192v64h128v-64h-128z" />
    <glyph glyph-name="uni0725" unicode="&#x725;" horiz-adv-x="448" 
d="M0 0v64h192v64h64v-64h128v-64h-384zM64 128v64h128v-64h-128zM0 192v64h64v-64h-64z" />
    <glyph glyph-name="uni0726" unicode="&#x726;" horiz-adv-x="448" 
d="M64 192v128h64v-128h-64zM0 0v128h64v-64h256v64h-192v64h128v128h64v-128h64v-192h-384zM128 320v64h128v-64h-128z" />
    <glyph glyph-name="uni0727" unicode="&#x727;" horiz-adv-x="448" 
d="M0 0v384h64v-128h128v-64h-128v-128h256v64h64v-128h-384zM192 256v128h64v-128h-64zM64 384v64h128v-64h-128z" />
    <glyph glyph-name="uni0728" unicode="&#x728;" horiz-adv-x="448" 
d="M0 -128v64h256v-64h-256zM256 -64v64h64v-64h-64zM128 0v64h64v64h192v-64h-128v-64h-128z" />
    <glyph glyph-name="uni0729" unicode="&#x729;" horiz-adv-x="448" 
d="M64 -128v64h64v-64h-64zM0 -64v64h64v-64h-64zM128 -64v192h64v-128h128v-64h-192zM320 0v128h64v-128h-64zM192 128v64h128v-64h-128z" />
    <glyph glyph-name="uni072A" unicode="&#x72a;" horiz-adv-x="256" 
d="M128 0v192h64v-192h-64zM0 192v64h128v-64h-128zM64 320v64h64v-64h-64z" />
    <glyph glyph-name="uni072B" unicode="&#x72b;" horiz-adv-x="512" 
d="M0 0v128h64v-64h128v64h-64v128h192v-128h-64v-64h128v64h64v-128h-448z" />
    <glyph glyph-name="uni072C" unicode="&#x72c;" 
d="M64 0v64h64v-64h-64zM0 64v128h64v-128h-64zM256 0v192h64v-192h-64zM128 64v128h-64v64h64v128h64v-128h64v-64h-64v-128h-64zM64 384v64h64v-64h-64zM0 448v64h64v-64h-64z" />
    <glyph glyph-name="uni072D" unicode="&#x72d;" horiz-adv-x="448" 
d="M64 0v64h256v-64h-256zM0 64v64h64v-64h-64zM320 64v64h64v-64h-64zM128 128v128h64v-64h128v-64h-192zM192 256v64h64v-64h-64z" />
    <glyph glyph-name="uni072E" unicode="&#x72e;" horiz-adv-x="448" 
d="M320 -192v64h64v-64h-64zM256 -128v64h64v-64h-64zM192 -64v64h-192v64h128v64h64v-64h64v-128h-64zM0 128v64h128v-64h-128zM192 128v64h64v-64h-64zM256 192v64h64v-64h-64zM192 256v64h64v-64h-64z" />
    <glyph glyph-name="uni072F" unicode="&#x72f;" horiz-adv-x="256" 
d="M64 -128v64h64v-64h-64zM0 -64v64h64v-64h-64zM128 0v256h-128v64h192v-320h-64z" />
    <glyph glyph-name="uni074D" unicode="&#x74d;" 
d="M128 -64v128h64v-128h-64zM64 64v128h64v-128h-64zM192 64v128h64v-128h-64zM0 192v128h64v-128h-64zM256 192v128h64v-128h-64z" />
    <glyph glyph-name="uni074E" unicode="&#x74e;" horiz-adv-x="512" 
d="M0 0v64h320v64h64v-128h-384zM256 128v64h64v-64h-64zM128 192v64h128v-64h-128zM320 192v64h64v-64h-64zM384 256v64h-64v128h128v-192h-64z" />
    <glyph glyph-name="uni074F" unicode="&#x74f;" horiz-adv-x="512" 
d="M0 0v64h320v128h64v-192h-384zM256 192v64h64v-64h-64zM384 192v64h64v-64h-64zM192 256v64h64v-64h-64zM320 256v64h64v-64h-64z" />
    <glyph glyph-name="uni0780" unicode="&#x780;" horiz-adv-x="448" 
d="M0 -64v64h256v-64h-256zM256 0v64h64v-64h-64zM320 64v64h64v-64h-64z" />
    <glyph glyph-name="uni0781" unicode="&#x781;" horiz-adv-x="512" 
d="M0 -64v64h192v-64h-192zM256 -64v64h64v-64h-64zM192 0v64h64v-64h-64zM320 0v64h64v-64h-64zM384 64v64h64v-64h-64z" />
    <glyph glyph-name="uni0782" unicode="&#x782;" horiz-adv-x="512" 
d="M0 -128v64h128v-64h-128zM128 -64v64h64v-64h-64zM192 0v64h64v-64h-64zM320 0v64h64v-64h-64zM128 64v64h64v-64h-64zM256 64v64h64v-64h-64zM384 64v64h64v-64h-64z" />
    <glyph glyph-name="uni0783" unicode="&#x783;" horiz-adv-x="448" 
d="M0 -128v64h64v-64h-64zM64 -64v64h64v-64h-64zM128 0v64h64v-64h-64zM256 0v64h-64v64h64v64h64v-64h64v-64h-64v-64h-64z" />
    <glyph glyph-name="uni0784" unicode="&#x784;" 
d="M0 -64v64h64v-64h-64zM64 -128v64h64v64h64v-64h64v-64h-192zM256 -64v64h64v-64h-64zM64 0v64h64v-64h-64zM192 0v64h64v-64h-64z" />
    <glyph glyph-name="uni0785" unicode="&#x785;" horiz-adv-x="448" 
d="M0 -128v64h192v-64h-192zM192 -64v64h64v-64h-64zM256 0v64h64v-64h-64zM192 64v64h64v-64h-64zM320 64v64h64v-64h-64z" />
    <glyph glyph-name="uni0786" unicode="&#x786;" horiz-adv-x="448" 
d="M64 -128v64h64v-64h-64zM128 -64v128h128v-64h-64v-64h-64zM64 64v64h64v-64h-64zM256 64v64h64v-64h-64zM0 128v64h64v-64h-64zM320 128v64h64v-64h-64z" />
    <glyph glyph-name="uni0787" unicode="&#x787;" 
d="M0 0v64h64v-64h-64zM64 64v64h64v-64h-64zM128 128v64h64v-64h-64zM256 0v192h64v-192h-64zM192 192v64h64v-64h-64z" />
    <glyph glyph-name="uni0E01" unicode="&#xe01;" 
d="M0 0v192h64v-192h-64zM64 192v64h64v-64h-64zM0 256v64h64v-64h-64zM256 0v320h64v-320h-64zM64 320v64h192v-64h-192z" />
    </font>
</defs>
</svg>
